<svg width="1268" height="75" viewBox="0 0 1268 75" fill="none" xmlns="http://www.w3.org/2000/svg">
<path d="M1137.7 9.4C1137.1 10.9 1137.8 12 1139.2 12C1139.6 12 1140 11.1 1140 10C1140 7.7 1138.5 7.3 1137.7 9.4Z" fill="#6D6767"/>
<path d="M657.8 9.7C657.8 10.2 657.6 10.9 657.5 11.5C657.1 13.8 655.1 17.9 654.1 18.5C652.4 19.5 652.8 21.4 655.1 23.9C657 25.9 657.3 26 658.4 24.5C660 22.2 664.2 22.9 664.6 25.5C664.8 26.8 663.8 28.5 661.7 30.3L658.5 33L661.9 32.8C664.8 32.5 665.4 32 666.4 29C667 27 668.5 25.1 669.8 24.5C671.5 23.7 672 22.7 672 19.8C672 16 670.7 14.9 663.8 12.6C662.8 12.3 662 11.4 662 10.5C662 9 658.1 8.3 657.8 9.7Z" fill="#6D6767"/>
<path d="M836.2 10.2C833 10.9 831.7 11.8 831 13.6C830.5 14.9 829.6 16 829.1 16C827.6 16 827.2 22.3 828.5 25.5C830.2 29.6 832.7 31.6 838 33C844.8 34.7 845 34.8 844.3 36.5C843.8 37.8 842.8 38.1 839.1 37.7C830.2 36.7 827.4 35.6 824 31.7L820.7 27.9L816.9 32.2C812.9 36.5 812.1 39.7 814.2 41.8C814.9 42.5 815.9 44.5 816.4 46.2C817 48 818.2 49.6 819.1 49.8C820 50 823.5 48.4 826.8 46.2C831.4 43.2 833.9 42.3 837.7 42.1C841.4 42 842.9 42.3 843.3 43.4C843.7 44.3 843.5 45.2 843 45.5C841.2 46.6 842 47.8 844.9 48.5C846.5 48.8 848.6 50 849.6 51.1C850.7 52.3 852 52.8 853.2 52.4C854.2 52.1 855.8 52.4 856.6 53.1C857.6 53.9 858.4 54 859.1 53.3C860.5 51.9 857.6 46.6 854.5 45C853.1 44.3 852 43.3 852 42.8C852 41 854.9 40.9 857.5 42.6C861 44.9 865 43.2 865 39.5C865 36.6 859.7 33.2 857.7 34.8C857 35.3 855 35.7 853.3 35.7C850.4 35.7 850.1 35.4 850.4 33.3C851.1 29.5 851.9 28.9 854.3 30.5C856.2 31.8 856.6 31.8 858.2 30.3C859.2 29.4 860 28.1 860 27.3C860 25.8 857 22.3 857 23.7C857 24.1 856.3 25.4 855.5 26.4C854 28.3 854 28.3 852.7 26.5C851.4 24.8 851.2 24.8 849.2 26.8C844 32 835 30.9 835 25.1C835 23.5 835.7 21.6 836.6 20.9C838 19.8 838.7 19.9 841.2 21.3C845 23.5 845.7 23.4 846.4 21.2C847.1 19 843.6 10.4 841.8 9.79995C841.1 9.49995 838.6 9.79995 836.2 10.2ZM819 41.1C819 42.1 818.3 43 817.5 43C816.6 43 816 42.1 816 40.5C816 38.7 816.4 38.2 817.5 38.6C818.3 39 819 40.1 819 41.1ZM849 45.4C849 46.2 848.6 47.2 848 47.5C847.5 47.8 847 47.2 847 46.1C847 44.9 847.5 44 848 44C848.6 44 849 44.6 849 45.4Z" fill="#6D6767"/>
<path d="M138.4 11.9003C134.5 14.3003 133.8 15.3003 133.3 19.9003C132.8 24.3003 136.1 29.7003 140.5 31.9003C142.2 32.7003 144.3 33.7003 145.3 34.2003C146.5 34.8003 147.6 34.7003 148.5 34.0003C149.5 33.1003 150.1 33.3003 150.9 34.9003C152.9 38.5003 152.3 39.3003 148.3 38.6003C136.4 36.5003 133.9 35.5003 131.3 32.2003C128.7 28.7003 125.5 28.2003 123.3 31.0003C121.7 33.0003 121.7 37.7003 123.3 38.3003C124.2 38.6003 124.2 39.1003 123.1 40.4003C122 41.7003 122 42.6003 122.8 44.3003C123.4 45.5003 124.2 47.5003 124.5 48.7003C125.3 51.5003 126.3 51.6003 129 49.3003C136.4 42.7003 138.4 41.8003 145.6 41.8003C153.5 41.8003 154 41.9003 154 42.9003C154 43.4003 152.3 44.4003 150.3 45.0003C143.9 47.1003 137.6 50.1003 135.8 52.1003C132.2 55.9003 134.5 61.5003 140.7 64.0003C146.5 66.2003 153 62.9003 153 57.7003C153 54.2003 150.8 53.3003 147.4 55.5003C145.4 56.8003 144.6 56.9003 143.4 55.9003C141.2 54.1003 142.1 50.7003 145.3 49.2003C148.1 47.9003 148.9 48.0003 152 50.0003C155.4 52.2003 165.2 56.0003 166.1 55.5003C166.6 55.1003 167 53.6003 167 52.1003C167 49.3003 165 46.8003 161.8 45.7003C160.8 45.3003 160 44.3003 160 43.4003C160 42.1003 160.7 41.9003 163.8 42.3003C169 43.1003 171.4 41.2003 170 37.5003C169 34.8003 168.8 34.8003 163.6 35.4003C160.7 35.7003 158 35.7003 157.7 35.3003C156.7 34.4003 159 32.0003 160.7 32.0003C163 32.0003 166.5 28.7003 166.8 26.2003C167 24.6003 166.6 24.0003 165.1 24.0003C164 24.0003 162.8 24.4003 162.5 25.0003C162.2 25.5003 160.6 26.0003 158.9 26.0003C157.3 26.0003 156 26.4003 156 26.9003C156 27.4003 154.9 28.1003 153.5 28.4003C152.1 28.8003 150.7 29.7003 150.4 30.5003C149.9 31.6003 149.4 31.7003 147.7 30.8003C146.5 30.2003 144.9 29.4003 144.1 29.0003C141.5 27.9003 140.4 25.2003 141.6 23.2003C143.2 20.7003 145.3 20.6003 148 23.0003C150.6 25.3003 151.7 24.7003 152.3 21.0003C153.5 13.1003 145.2 7.70032 138.4 11.9003ZM129 43.6003C129 45.2003 127.4 45.5003 126.5 44.0003C125.7 42.7003 126.9 40.8003 128.1 41.5003C128.6 41.9003 129 42.8003 129 43.6003Z" fill="#6D6767"/>
<path d="M600.6 12.6001C596.9 15.8001 596 22.1001 598.5 27.3001C599.8 30.0001 601.3 31.3001 605.3 32.9002C608.2 34.0002 611.4 35.0002 612.5 35.2002C613.6 35.4002 614.5 36.2002 614.5 37.0002C614.5 38.2002 613.3 38.5002 609 38.3001C602.5 38.2002 601.1 37.7002 594.2 33.3001C589.6 30.4002 588.6 30.1002 587.2 31.2002C584.6 33.2002 584 34.4002 584.6 36.2002C584.9 37.2002 584.4 39.3002 583.4 40.9002C581.7 43.8002 581.7 43.8001 585.2 47.5002C588.7 51.2002 588.8 51.2002 590.8 49.4002C597.5 43.1002 597.6 43.1002 604.6 42.6002C608.4 42.4002 612.6 41.8002 613.8 41.4002C615.9 40.8002 616.1 41.0001 615.8 43.1002C615.6 44.7002 614.8 45.5001 613.5 45.6002C612.4 45.6002 610.2 46.4002 608.5 47.3002L605.5 48.9002L608.7 49.0002C610.4 49.0002 613.9 49.9002 616.4 51.0002C618.9 52.0002 621.7 52.7002 622.6 52.3002C623.6 51.9002 624.6 52.4002 625.2 53.3002C626.6 55.8002 629 55.4002 629 52.6002C629 49.9002 626.4 47.4002 624 47.8002C622.1 48.1002 620.5 46.5001 619.7 43.3001C619 40.2002 620.3 39.7002 623.1 41.9002C628.2 45.8002 634 45.3002 634 40.9002C634 38.3001 630.3 35.1002 627.9 35.7002C626.9 36.0002 626 36.6002 626 37.1002C626 37.6002 624.9 38.0002 623.5 38.0002C619.4 38.0002 620.3 32.9002 624.8 31.6002C627.1 30.8001 629.4 27.5001 628.6 26.1001C627.8 24.9001 619.7 27.2001 618.3 29.0001C616.9 30.8001 607.6 30.7001 605.4 28.9001C603.5 27.3001 603.6 23.1001 605.6 22.3001C606.5 22.0001 608.6 22.5001 610.2 23.5001C613.4 25.4001 614.4 24.9001 615.3 21.0001C616.1 17.6001 612.3 13.1001 607.2 11.3001C605.2 10.6001 603.5 10.0001 603.5 10.0001C603.5 10.1001 602.2 11.2001 600.6 12.6001Z" fill="#6D6767"/>
<path d="M18.1001 12.9001C16.0001 14.8001 16.1001 21.1001 18.4001 24.4001C21.4001 28.8001 26.0001 33.0001 27.7001 33.0001C28.7001 33.0001 30.5001 33.7001 31.7001 34.5001C33.1001 35.5001 34.1001 35.7001 34.5001 35.0001C35.5001 33.3001 39.0001 35.8001 38.3001 37.6001C37.8001 39.0001 36.6001 39.2001 31.0001 38.7001C23.8001 38.1001 18.0001 35.5001 14.8001 31.4001C12.4001 28.4001 8.00008 28.1001 7.30008 31.0001C7.00008 32.1001 5.70008 33.3001 4.50008 33.6001C1.70008 34.3001 -0.299916 37.8001 0.200084 41.6001C0.400084 43.9001 1.00008 44.5001 2.90008 44.5001C4.30008 44.5001 5.70008 45.4001 6.20008 46.5001C6.70008 47.6001 8.20008 49.3001 9.60008 50.3001C12.6001 52.6001 14.6001 51.4001 15.8001 46.6001C16.4001 44.5001 17.3001 43.5001 18.6001 43.5001C19.6001 43.4001 21.0001 43.1001 21.6001 42.8001C22.1001 42.4001 26.1001 42.2001 30.3001 42.3001C36.9001 42.4001 38.0001 42.7001 38.0001 44.2001C38.0001 46.0001 37.1001 46.3001 29.9001 47.5001C25.0001 48.2001 20.6001 52.6001 20.2001 57.0001C19.8001 61.4001 22.3001 64.0001 27.9001 65.0001C34.3001 66.2001 40.1001 61.2001 38.5001 56.0001C37.7001 53.6001 35.5001 53.4001 33.4001 55.5001C32.5001 56.3001 31.0001 57.0001 29.9001 57.0001C26.8001 57.0001 27.3001 51.2001 30.5001 50.0001C33.6001 48.8001 35.5001 49.1001 39.8001 51.4001C41.6001 52.3001 43.9001 52.8001 45.0001 52.5001C46.0001 52.2001 47.8001 52.5001 48.9001 53.1001C50.4001 54.1001 51.2001 54.1001 52.4001 53.0001C53.9001 51.8001 53.9001 51.6001 52.5001 50.0001C51.6001 49.0001 48.9001 47.5001 46.4001 46.5001C42.7001 45.1001 42.1001 44.5001 43.1001 43.4001C44.4001 41.8001 48.6001 41.5001 49.5001 43.0001C49.8001 43.5001 51.2001 44.0001 52.6001 44.0001C54.7001 44.0001 55.0001 43.6001 55.0001 40.1001C55.0001 35.4001 52.4001 33.9001 48.5001 36.4001C45.1001 38.6001 44.0001 38.4001 44.0001 35.5001C44.0001 33.7001 45.1001 32.3001 48.0001 30.5001C52.2001 27.9001 53.1001 25.4001 50.4001 24.3001C49.4001 23.9001 48.4001 24.4001 47.8001 25.4001C47.0001 26.8001 46.6001 26.9001 45.4001 25.9001C44.2001 24.9001 43.4001 25.2001 41.0001 27.8001C38.7001 30.4001 37.3001 31.0001 34.1001 31.0001C31.3001 31.0001 29.3001 30.3001 28.0001 29.0001C25.9001 26.9001 25.7001 26.1001 26.6001 23.6001C27.4001 21.5001 32.9001 21.5001 33.6001 23.5001C34.0001 24.3001 35.1001 25.0001 36.1001 25.0001C37.6001 25.0001 38.0001 24.3001 38.0001 21.7001C38.0001 13.9001 35.8001 12.0001 26.1001 11.6001C21.6001 11.4001 19.5001 11.7001 18.1001 12.9001Z" fill="#6D6767"/>
<path d="M79.2 11.7001C77.9 12.2001 75 17.2001 75 18.8001C75 19.3001 76.1 20.5001 77.5 21.4001C79.5 22.7001 80.5 22.8001 82.1 22.0001C83.6 21.1001 84.5 21.2001 85.6 22.1001C87.3 23.5001 87.5 28.1001 85.8 29.8001C84.1 31.5001 85.7 32.5001 88.3 31.3001C91.6 29.8001 95.2 22.6001 94.4 19.3001C93.2 14.8001 83.6 9.90006 79.2 11.7001Z" fill="#6D6767"/>
<path d="M192.6 13.9C187.9 18.8 190.2 26.1 195.5 22.6C198.8 20.4 200.5 20.6 202.2 23.2C203.5 25.3 203.5 25.7 201.9 27.4C200.4 29 199.1 29.2 194.4 28.7C190.7 28.3 188.4 27.5 187.5 26.3C185.6 23.7 185 24.9 184.9 31.3C184.8 35.4 184.4 37 183.4 37C182.6 37 182 36.5 182 36C182 35.4 180.2 35 178 35C174.7 35 174 35.3 174 37C174 38.1 174.4 39 174.9 39C175.4 39 176 39.9 176.3 41C176.9 43.4 179.2 43.6 181 41.5C182.5 39.6 184.4 39.6 185.8 41.3C187.3 43 184.6 47 182.1 47C179.9 47 176.6 50.5 177.5 51.9C178.6 53.8 181.7 53.1 182.5 50.8C182.9 49.4 183.3 49 183.7 49.7C184.3 51.2 187.7 51.4 188.2 50C188.4 49.4 190.8 48.7 193.6 48.4C197.8 47.9 199.3 48.1 201.4 49.6C204.3 51.8 204.6 53.5 202.6 55.6C200.5 57.7 196.9 57.4 196.3 55C195.2 50.9 190 53.7 190.7 58C191.2 61.6 196.4 66 200.1 66C204.1 66 207 64.4 207 62.1C207 61.1 207.7 59.7 208.5 59C210.6 57.3 210.4 54.8 208 51.7C206.9 50.3 206 48.7 206 48.2C206 47.3 204.6 46.7 196.8 43.8C189.2 41.2 190.7 39 199.2 40.2C206.3 41.1 212 43.5 212 45.4C212 47.6 215.5 50.1 217.6 49.4C222.6 47.6 231.8 36 228.2 36C227.4 36 223.2 32.9 219.1 29.2L216.5 26.8L215.1 28.9C214.4 30.1 213.1 31 212.3 31C211.5 31 210.1 31.9 209.2 33C207.1 35.5 193.6 37.7 191.4 35.9C189.3 34.2 189.7 33 192.3 33C196.4 33 205.4 29.9 207.8 27.7C209.8 25.8 210.1 24.8 209.7 20.7C209.1 14.3 206.8 12 200.3 11.5C195.8 11.2 194.9 11.5 192.6 13.9Z" fill="#6D6767"/>
<path d="M254.5 12.7003C250.8 14.6003 248.1 17.9003 248 20.4003C248 21.5003 249.2 24.3003 250.6 26.7003C253.4 31.5003 259.5 35.0003 265.1 35.0003C266.9 35.0003 268 35.5003 268 36.4003C268 38.5003 265.6 39.0003 259.6 38.0003C252.9 36.9003 249 35.0003 245.7 31.0003C242.4 27.2003 241.2 27.2003 239.5 31.2003C238.8 33.0003 237.2 35.1003 236.1 35.8003C232.7 37.8003 233.4 42.1003 237.8 47.0003C241.4 50.8003 241.8 51.0003 243.3 49.6003C244.1 48.7003 245.2 48.0003 245.6 48.0003C246 48.0003 247.9 46.8003 249.8 45.4003C252.7 43.1003 254.3 42.7003 260.4 42.6003C266.2 42.5003 267.5 42.8003 267.8 44.1003C268 45.4003 266.9 45.9003 262.4 46.5003C255.2 47.4003 250.1 51.7003 250.5 56.5003C250.7 58.2003 250.8 60.1003 250.9 60.7003C251 62.5003 256.2 64.9003 260.6 65.1003C266.3 65.5003 269 63.7003 269 59.6003C269 55.1003 266.6 53.1003 264.1 55.4003C261.8 57.5003 259.2 57.2003 257.6 54.8003C256.8 53.4003 257 52.6003 258.7 50.9003C260.9 48.7003 260.9 48.7003 266.7 50.5003C269.9 51.5003 273 52.7003 273.7 53.2003C274.4 53.7003 275.4 53.9003 276 53.5003C276.6 53.1003 278 53.6003 279.1 54.6003C280.9 56.2003 281.2 56.2003 282.6 54.8003C284.9 52.5003 283.5 49.3003 279.5 48.0003C276 46.9003 274.3 44.3003 275.9 42.7003C276.4 42.2003 277.6 42.3003 278.9 43.0003C280.1 43.6003 282.3 44.0003 283.8 43.8003C285.9 43.6003 286.6 42.9003 286.8 40.7003C287.4 35.4003 283.2 33.7003 276.6 36.5003C273.7 37.8003 275 33.8003 278 32.3003C283.1 29.8003 284.9 24.0003 280.6 24.0003C279.3 24.0003 277.7 24.7003 277 25.5003C276.3 26.3003 275.3 26.7003 274.8 26.4003C274.3 26.1003 273 26.6003 272 27.5003C269.9 29.4003 263.3 30.5003 259.6 29.6003C257.5 29.1003 257 28.3003 257 26.0003C257 21.8003 260 20.4003 263.4 23.1003C264.9 24.3003 266.7 24.9003 267.5 24.6003C269.6 23.8003 269.4 17.0003 267.2 14.4003C264.9 11.5003 258.4 10.6003 254.5 12.7003ZM269.5 30.9003C269.8 31.4003 269.6 32.1003 269 32.5003C268.5 32.8003 268 32.4003 268 31.6003C268 29.8003 268.6 29.5003 269.5 30.9003Z" fill="#6D6767"/>
<path d="M308.4 13.5002C303.6 18.3002 306.2 27.9002 311.1 23.4002C312.7 22.0002 313.5 21.9002 315.5 22.8002C318.5 24.2002 318.8 27.5002 316 29.0002C313.4 30.4002 305.5 29.3002 303.9 27.4002C302.3 25.4002 300 25.7002 300 27.7002C299.9 29.1002 299.4 28.9002 297.6 26.6002C295 23.5002 292 23.6002 292 26.8002C292 29.2002 294.7 31.6002 298.3 32.5002C299.9 32.9002 301 33.9002 301 34.9002C301 37.6002 300.1 37.9002 297.2 36.4002C293.1 34.3002 291.1 34.7002 290.4 37.7002C289.3 41.9002 291.1 43.5002 296.3 43.2002C298.8 43.0002 301.1 43.3002 301.4 43.8002C302.4 45.5002 301.1 47.6002 298.9 47.7002C296.4 47.9002 293 50.8002 293 52.7002C293 54.4002 295.1 54.4002 298.7 52.6002C303.3 50.3002 309.3 48.8002 312.9 49.2002C317.3 49.6002 321 54.1002 319 56.5002C317.3 58.6002 314.7 58.4002 312.5 56.0002C310.1 53.4002 308 53.5002 307.9 56.2002C307.7 60.9002 308.3 63.5002 309.8 64.7002C311.8 66.2002 323.4 66.5002 322.5 65.0002C322.2 64.5002 322.3 64.0002 322.8 64.0002C324.2 64.0002 327 57.2002 326.3 55.3002C325.5 53.0002 318.9 46.0002 317.6 46.0002C315.7 46.0002 308 42.7002 308 41.9002C308 40.3002 312.1 39.9002 317.7 41.0002C320.9 41.5002 323.7 42.5002 323.8 43.0002C324 43.6002 324.7 44.0002 325.3 44.0002C325.9 44.0002 327.8 45.4002 329.6 47.1002L332.7 50.1002L336.6 46.6002C338.8 44.6002 340.8 43.0002 341.2 43.0002C341.6 43.0002 342.6 41.7002 343.4 40.1002C345 37.0002 345.7 38.0002 335.3 28.6002L332.1 25.7002L330.4 28.7002C327.1 34.4002 312.5 39.3002 308.5 36.0002C306.3 34.2002 307.4 33.3002 312.7 32.6002C315.4 32.2002 318.2 31.7002 319.2 31.4002C321.1 30.8002 325.8 22.2002 325.5 19.9002C325 17.0002 321.8 13.0002 319.6 12.6002C311.6 11.0002 310.9 11.0002 308.4 13.5002Z" fill="#6D6767"/>
<path d="M368.2 14.1003C365.9 16.5003 365 18.3003 365 20.8003C365 25.0003 367.7 31.0003 369.6 31.0003C370.4 31.0003 371 31.4003 371 31.9003C371 32.4003 373 33.1003 375.5 33.4003C378 33.8003 380 34.5003 380 35.1003C380 35.6003 381.6 36.0003 383.6 36.0003C385.7 36.0003 386.9 36.4003 386.5 37.0003C386.2 37.5003 386.4 38.0003 387 38.0003C387.6 38.0003 387.9 38.4003 387.6 38.8003C387.4 39.2003 382.9 39.2003 377.8 38.7003C368.2 37.8003 362.9 35.8003 360.2 31.9003C358.6 29.6003 356 29.4003 356 31.6003C356 32.4003 355.6 32.8003 355 32.5003C354.5 32.2003 354 32.4003 354 33.1003C354 33.8003 353.3 35.1003 352.4 36.1003C350.2 38.5003 352 44.5003 356 48.1003C359.2 51.1003 361.4 51.0003 363.1 47.9003C364.7 44.9003 369.6 43.0003 376.9 42.5003C383.2 42.2003 383.8 42.3003 384.7 44.3003C385.6 46.3003 385.5 46.5003 382.1 46.5003C376 46.6003 369.2 49.0003 367.4 51.7003C362.9 58.7003 366 65.0003 374.6 65.7003C380.4 66.2003 381.4 65.6003 383.5 60.7003C384.9 57.3003 384.9 56.9003 383.4 56.3003C382.6 56.0003 380.1 56.3003 377.9 57.0003C375.5 57.8003 373.6 58.0003 373 57.4003C371.6 56.0003 373 51.0003 375.2 49.9003C377.5 48.7003 387.3 49.7003 386.4 51.1003C386.1 51.6003 386.6 52.0003 387.4 52.0003C388.3 52.0003 389 52.4003 389 53.0003C389 53.5003 389.5 54.0003 390 54.0003C390.6 54.0003 391 53.3003 391 52.5003C391 50.3003 393.1 50.7003 393.7 53.0003C394.4 55.6003 398 55.7003 398 53.2003C398 50.9003 395.5 48.5003 391.7 47.1003C388.8 46.0003 388.2 43.9003 390.3 42.2003C391.7 41.0003 396 41.7003 396 43.1003C396 44.5003 399.6 44.2003 400.8 42.7003C401.6 41.8003 401.3 40.6003 399.8 38.2003L397.8 35.0003L394.4 37.1003C390.8 39.3003 391.1 39.4003 389.6 34.6003C389.3 33.6003 390.3 32.7003 392.6 32.0003C394.9 31.2003 396.2 30.0003 396.6 28.4003C397.4 25.1003 396.5 24.4003 393.6 25.9003C392.3 26.7003 390.7 26.9003 390.1 26.6003C389.5 26.2003 387.7 26.9003 386.2 28.0003C383.5 30.0003 379.1 30.7003 373.8 29.9003C371.5 29.6003 370.7 26.9003 372 23.6003C372.8 21.4003 373.4 21.0003 375.7 21.6003C377.3 22.0003 379 22.9003 379.6 23.6003C381.1 25.5003 382.6 25.4003 383.4 23.4003C385.4 18.2003 381.5 12.4003 375.3 11.4003C371.8 10.9003 371.1 11.2003 368.2 14.1003Z" fill="#6D6767"/>
<path d="M425.8 12.6003C421.2 15.1003 419.5 20.5003 422.5 23.0003C423.7 24.0003 424.4 24.0003 425.2 23.2003C425.9 22.5003 427.6 22.0003 429.1 22.0003C432.6 22.0003 434.2 26.7003 431.4 28.7003C429.1 30.4003 428.7 30.4003 421.8 27.9003C418.6 26.8003 415.4 26.1003 414.7 26.3003C414.1 26.5003 412.5 25.8003 411.3 24.7003C408.7 22.4003 408.4 22.5003 407.5 26.2003C406.9 28.7003 407.2 29.1003 410.6 30.7003C415.5 32.9003 418 34.9003 418 36.7003C418 38.4003 413.3 38.4003 411.5 36.7003C409.3 34.4003 405.5 35.3003 405.2 38.1003C404.8 41.3003 408.5 44.9003 410.2 43.2003C410.9 42.5003 412.7 42.0003 414.2 42.0003C417.9 42.0003 418.1 45.6003 414.5 47.0003C413.1 47.5003 412 48.4003 412 48.9003C412 49.4003 411.1 50.1003 410.1 50.5003C408.9 50.8003 408.3 51.7003 408.6 52.5003C409.2 54.1003 411.2 53.9003 413.4 52.1003C414.3 51.4003 415.6 51.0003 416.3 51.3003C417 51.6003 418.4 51.2003 419.4 50.4003C420.5 49.7003 421.6 49.3003 422.1 49.5003C422.5 49.8003 424 49.5003 425.3 48.9003C427.3 48.0003 428.5 48.1003 431 49.1003C433.6 50.3003 434 51.0003 433.8 53.5003C433.6 56.0003 433 56.6003 430.7 56.8003C428.8 57.0003 427.4 56.5003 426.6 55.4003C424.7 52.9003 422.5 54.2003 422.2 57.9003C422 60.3003 422.7 61.8003 424.8 64.0003C427.5 66.6003 427.9 66.8003 432.5 65.9003C440.9 64.3003 442.6 61.1003 439.1 53.5003C436.5 47.7003 434.7 46.3003 429.2 45.5003C423.3 44.7003 421.5 43.7003 422.3 41.6003C423.1 39.5003 433.2 39.3003 434.9 41.4003C435.6 42.2003 437 42.6003 438 42.3003C439.5 41.9003 441.1 42.9003 443.8 45.9003C445.8 48.1003 447.9 50.0003 448.2 50.0003C448.6 50.0003 450.6 48.4003 452.7 46.4003C454.8 44.5003 457.3 42.1003 458.3 41.3003C459.2 40.4003 460 38.9003 460 38.1003C459.9 36.5003 450.1 28.0003 448.4 28.0003C447.9 28.0003 446.2 29.1003 444.6 30.5003C442.9 31.9003 440.5 33.3003 439.1 33.7003C437.7 34.0003 435.9 34.9003 435.2 35.7003C434.4 36.5003 431.4 37.0003 427.4 37.0003C421.7 37.0003 420.9 36.8003 421.2 35.3003C421.4 34.0003 423 33.3003 426.9 32.8003C434.2 31.7003 438 29.3003 438 25.8003C438 24.3003 438.5 22.8003 439 22.5003C439.6 22.2003 440 20.6003 440 19.0003C440 16.6003 439.2 15.6003 435.7 13.5003C430.7 10.6003 429.5 10.5003 425.8 12.6003Z" fill="#6D6767"/>
<path d="M483.8 13.7002C480.6 17.1002 479.6 20.7002 480.9 24.2002C482.1 27.5002 486.3 31.6002 489.2 32.5002C490.5 32.9002 492 33.7002 492.7 34.2002C493.3 34.7002 494.7 35.1002 495.7 35.0002C498.8 34.6002 499.7 35.0002 499.7 36.5002C499.7 38.0002 497.2 39.0002 493.8 38.8002C492.8 38.7002 492 38.4002 492 38.0002C492 37.7002 490.5 37.3002 488.8 37.2002C482.6 36.8002 479.5 35.4002 477.5 32.2002C475.3 28.7002 472.3 28.0002 471.3 30.7002C470.9 31.7002 469.8 33.2002 468.8 34.0002C467.9 34.8002 466.8 37.4002 466.5 39.7002C466 43.5002 466.2 44.1002 468.7 45.7002C470.2 46.7002 471.9 48.0002 472.3 48.7002C473.4 50.5002 477.4 48.4002 476.6 46.4002C476.3 45.6002 476.5 45.2002 477 45.5002C477.5 45.8002 479.3 45.1002 481 43.8002C483.6 41.9002 485.2 41.6002 491.7 41.7002C496.8 41.8002 499.5 42.3002 500.1 43.2002C501.5 45.4002 500.4 46.5002 497.1 46.2002C494.5 46.0002 493.9 46.3002 494.2 47.7002C494.4 48.7002 495.6 49.7002 496.9 49.8002C498.3 50.0002 500.4 50.8002 501.6 51.6002C502.9 52.5002 504.8 52.8002 506.2 52.5002C507.8 52.1002 509.1 52.4002 509.9 53.4002C511.7 55.6002 514 55.4002 514 53.1002C514 51.2002 510.3 48.0002 506.7 46.7002C504.4 45.8002 504.9 42.6002 507.3 42.2002C508.3 42.0002 510 42.6002 511.2 43.6002C513.1 45.4002 513.2 45.4002 515.1 43.0002C517.3 40.1002 517.4 38.8002 515.8 37.2002C514.3 35.7002 511.5 35.7002 509.1 37.2002C506.5 38.8002 503.8 37.5002 504.2 34.9002C504.4 33.4002 505.9 32.3002 509 31.1002C512.2 29.9002 513.6 28.8002 513.8 27.2002C514.3 23.8002 509.7 24.3002 505.7 28.1002C502.8 30.8002 502 31.1002 497.5 30.6002C490.4 29.9002 487 28.1002 487 24.9002C487 23.4002 487.7 21.7002 488.5 21.0002C490.5 19.3002 494.6 20.5002 495.3 23.0002C496.1 26.1002 497.8 25.4002 498.5 21.6002C499.3 17.5002 498.4 14.0002 496.6 14.0002C495.8 14.0002 494.7 13.3002 494 12.5002C491.9 10.0002 486.7 10.6002 483.8 13.7002Z" fill="#6D6767"/>
<path d="M720.5 11.5003C720 11.7003 718.3 12.1003 716.9 12.4003C713.8 13.1003 712 16.6003 712 22.0003C712 25.2003 712.7 26.6003 715.5 29.5003C717.5 31.4003 720.1 33.0003 721.3 33.0003C722.6 33.0003 724.1 33.5003 724.7 34.1003C725.5 34.9003 726.5 34.7003 728.5 33.4003C730.8 31.9003 731.3 31.9003 732.1 33.1003C732.6 33.9003 733 35.7003 733 37.1003C733 39.6003 732.9 39.6003 728.3 38.9003C719.5 37.6003 716 36.7003 715.4 35.9003C715.1 35.4003 714.1 35.0003 713.2 35.0003C712.3 35.0003 710.1 33.5003 708.3 31.8003L704.9 28.5003L701.5 32.2003C699.2 34.6003 698 36.8003 698 38.7003C698 42.9003 699.1 46.0003 700.5 46.0003C701.1 46.0003 702.2 47.1003 702.8 48.5003C704.2 51.5003 705.1 51.6003 707.5 49.0003C710 46.2003 718.6 42.4003 723.7 41.7003C726.9 41.3003 728.3 41.6003 729.5 43.0003C731 44.7003 730.9 44.8003 727.9 45.9003C726.1 46.5003 723.7 47.0003 722.6 47.0003C719.9 47.0003 713.4 53.6003 712.5 57.1003C711.8 59.9003 713.9 63.0003 716.6 63.0003C717.4 63.0003 718 63.4003 718 64.0003C718 65.4003 724.3 65.3003 727.5 63.8003C730.1 62.6003 731.7 59.0003 730.5 57.1003C729.7 55.8003 726.3 55.7003 725.6 56.9003C724.9 58.0003 719.5 56.7003 719.6 55.4003C720.3 49.7003 724.8 47.8003 731.2 50.4003C733.3 51.3003 736.1 52.0003 737.5 52.0003C738.9 52.0003 740.9 52.6003 742 53.2003C743.4 54.1003 744.2 54.2003 745.1 53.3003C746.7 51.7003 744.3 48.2003 740.3 46.3003C738.5 45.5003 737 44.1003 737 43.4003C737 41.8003 741.6 41.5003 742.5 43.0003C743.4 44.5003 747.6 44.2003 749 42.5003C752 38.9003 746.5 34.1003 741.4 36.0003C737.7 37.5003 737 37.3003 737 34.7003C737 33.1003 738.3 31.7003 741.6 29.7003C746.1 27.0003 746.7 25.0003 742.8 25.0003C740.6 25.0003 733 28.9003 733 30.0003C733 31.3003 724.5 30.8003 721.3 29.3003C716.8 27.2003 716.7 23.4003 721.2 21.6003C724.2 20.3003 724.5 20.4003 725.5 22.3003C728.2 27.7003 733 22.6003 730.6 16.9003C728.4 11.6003 725.2 9.90032 720.5 11.5003Z" fill="#6D6767"/>
<path d="M1182 11.7002C1180 12.5002 1177 16.0002 1175.9 18.8002C1174 23.7002 1174.8 26.8002 1179.2 31.0002C1183 34.6002 1183.9 35.0002 1188.7 35.0002C1194.6 35.0002 1195.5 36.3002 1192 39.5002C1190.2 41.1002 1190.1 41.5002 1191.5 42.2002C1193.7 43.5002 1193.4 44.9002 1190.5 46.2002C1189.1 46.8002 1188 47.7002 1188 48.1002C1188 49.6002 1198.8 55.0002 1200.4 54.4002C1201.4 54.0002 1202.9 54.5002 1204.1 55.6002C1206.8 58.1002 1208.8 56.1002 1207.4 52.3002C1206.8 50.3002 1205.7 49.4002 1203.8 49.2002C1202.2 49.0002 1201 48.1002 1200.7 46.9002C1200.1 44.6002 1201.6 43.4002 1203.3 44.8002C1204.7 45.9002 1211 45.4002 1212.3 44.1002C1213.6 42.8002 1210.9 37.6002 1208.7 37.2002C1207.8 37.0002 1205.8 37.8002 1204.4 38.9002C1202.9 40.1002 1200.9 41.0002 1199.9 41.0002C1197.4 41.0002 1196.4 38.9002 1198.4 37.8002C1199.3 37.3002 1200 36.3002 1200 35.5002C1200 34.8002 1201.4 33.7002 1203 33.1002C1204.7 32.6002 1206 31.7002 1206 31.1002C1206 30.6002 1206.3 29.5002 1206.6 28.6002C1207.5 26.1002 1204.4 26.6002 1202.5 29.2002C1201.3 31.0002 1200.6 31.3002 1199.2 30.4002C1198.3 29.8002 1196.6 29.5002 1195.5 29.7002C1194.4 29.9002 1192.4 30.2002 1191 30.3002C1189.6 30.4002 1188.2 30.8002 1187.9 31.3002C1187 32.5002 1182 28.1002 1182 26.1002C1182 25.1002 1182.9 23.5002 1183.9 22.6002C1185.5 21.1002 1186.1 21.1002 1187.9 22.2002C1189.1 22.9002 1190 23.8002 1190 24.2002C1190 24.7002 1190.9 25.0002 1192 25.0002C1194.3 25.0002 1194.6 22.6002 1193 16.8002C1192.1 13.7002 1191.3 12.9002 1188.2 12.0002C1184.1 10.9002 1184.1 10.9002 1182 11.7002Z" fill="#6D6767"/>
<path d="M540.3 15.1C536.5 19.7 537.9 26.2 542.2 23.9C547.5 21 551.4 26.4 546.3 29.7C544.2 31.1 543.4 31.1 539.9 30C537.8 29.3 535.5 28.1 534.9 27.3C533.2 25.3 531 25.7 531 28C531 29.1 530.5 30 529.9 30C529.3 30 528.6 29.1 528.3 28C527.7 25.6 525.2 25.3 524.4 27.5C523.6 29.5 525.7 32 528.1 32C529.1 32 530.4 32.9 531 34C532.4 36.6 530 37.8 526.5 36.2C524.6 35.3 523.7 35.4 522.5 36.6C519.6 39.6 521.4 43.7 525.1 42.4C526.4 42 528.2 41.7 529.1 41.8C530.1 42 531 41.2 531.3 39.8C531.8 38.1 532.2 37.8 533.1 38.7C535 40.6 532.5 45.2 528 48.6C525.8 50.2 524 52 524 52.7C524 54.4 527.6 55.3 529.7 54.1C530.7 53.6 532.8 52.9 534.3 52.5C535.8 52.2 536.8 51.6 536.6 51.1C536 50.2 540.7 49 545 49C547.7 49 549.7 51.6 549.6 55C549.5 57.2 543.9 57.6 542.3 55.5C540.4 52.7 538 54.4 538 58.5C538 62.3 539 63.9 542.7 65.8C546.2 67.7 549.2 67.2 554 64C556.5 62.4 558.1 61 557.7 61C557.3 61 557.3 60.2 557.9 59.3C558.8 57.5 557.1 53 554.6 50.4C552.2 48 545 45 541.7 45H538.4V39.4C538.5 34.4 538.8 33.6 540.8 32.9C542.1 32.4 543.6 32.3 544.1 32.6C547.2 34.5 555.8 27.9 556.2 23.3C556.7 16.5 554 13.2 547.4 12.7C543.1 12.4 542.2 12.6 540.3 15.1Z" fill="#6D6767"/>
<path d="M770.5 15.4002C768.4 18.1002 768.1 19.2002 768.9 21.2002C770.1 24.3002 773.5 25.4002 775.6 23.2002C776.8 22.1002 777.6 21.9002 778.9 22.7002C781.1 24.1002 781.4 27.4002 779.6 29.0002C777.5 30.6002 770.1 28.9002 765.8 25.7002C762.9 23.5002 762.8 23.5002 761.4 25.5002C760.1 27.2002 759.8 27.3002 759 26.0002C758.5 25.2002 758 24.2002 758 23.7002C758 23.3002 757.3 23.0002 756.5 23.0002C753.7 23.0002 754.7 27.9002 758 29.8002C760.5 31.3002 762.8 35.5002 761.7 36.6002C761.5 36.8002 759.9 36.5002 758.1 35.9002C753.7 34.3002 752.3 35.8002 754.1 39.9002C755.6 43.3002 756.2 43.5002 759 42.0002C760.5 41.2002 761.1 41.4002 761.9 42.7002C762.7 44.1002 762.2 45.1002 759.4 47.6002C754.7 52.0002 754.9 53.4002 760.3 52.5002C762.6 52.1002 765.2 51.1002 766.1 50.4002C768.1 48.6002 774.4 48.0002 778.4 49.1002C780.2 49.6002 781.8 49.6002 782.4 49.0002C782.9 48.5002 782.2 47.9002 780.4 47.5002C778.8 47.2002 776.8 46.5002 776 45.9002C775.2 45.4002 773.5 44.5002 772.2 44.0002C770.9 43.4002 770 42.4002 770.3 41.7002C771.5 38.2002 790.6 43.4002 793 48.0002C794.8 51.4002 796.4 50.8002 805.1 42.7002C807.2 40.8002 807.7 36.0002 805.8 36.0002C805.1 36.0002 802.7 34.4002 800.5 32.5002C796 28.5002 794.8 28.3002 792.1 30.7002C785.7 36.7002 785.3 36.9002 779.9 37.1002C774.3 37.4002 770 36.5002 770 35.0002C770 33.7002 774 32.6002 777.6 32.9002C780 33.1002 781.5 32.4002 783.9 30.0002C786.6 27.3002 787 26.1002 787 21.7002C787 15.3002 786.5 14.5002 781.5 13.1002C775.1 11.3002 773.3 11.7002 770.5 15.4002Z" fill="#6D6767"/>
<path d="M886 14.0001C883.6 16.4001 883.4 20.2001 885.6 22.1001C886.9 23.1001 887.6 23.1001 890 21.7001C894.2 19.2001 895 19.6001 895 23.9001C895 27.2001 894.6 27.9001 892 29.0001C889.4 30.1001 888.5 29.9001 884.4 27.6001C879 24.6001 878 24.4001 878 26.5001C878 28.8001 875.6 28.3001 874.5 25.7001C873 22.4001 871.5 23.0001 871.2 27.1001C870.9 30.4001 871.2 30.8001 874.2 31.6001C877.8 32.7001 879.1 35.6001 876.5 36.6001C875.6 37.0001 873.8 36.7001 872.4 36.0001C870.5 34.9001 869.7 34.9001 868.7 35.9001C867.2 37.4001 870 42.7001 872.1 42.1001C875.6 41.1001 878.5 41.6001 878.8 43.2001C879.2 45.0001 876.9 48.0001 875.2 48.0001C874.7 48.0001 873.5 48.9001 872.5 50.0001C871 51.6001 870.9 52.3001 871.9 53.3001C872.9 54.2001 873.5 54.1001 874.9 52.4001C876.2 50.8001 877.1 50.5001 878.3 51.1001C879.5 51.8001 881 51.3001 883.9 49.4001C886.1 48.0001 888.4 47.1001 889.1 47.5001C889.7 48.0001 891.2 48.4001 892.4 48.5001C893.5 48.6001 894.8 48.8001 895.3 48.9001C896.7 49.1001 896 55.9001 894.3 57.6001C892.7 59.2001 892.4 59.1001 889.8 55.9001C886.9 52.5001 885.8 52.6001 884.6 56.6001C884.2 57.9001 884.8 59.9001 886.3 62.1001C888.2 64.9001 889.3 65.6001 892.8 65.8001C896.8 66.1001 897.7 65.7001 902.1 61.7001C904.7 59.4001 904.5 55.8001 901.6 52.9001C900.4 51.6001 898.8 49.5001 898.1 48.2001C897.5 47.0001 896.1 46.0001 895 46.0001C894 46.0001 892.8 45.5001 892.5 45.0001C892.2 44.4001 890.3 44.0001 888.4 44.0001C885.6 44.0001 884.9 43.6001 885.2 42.3001C885.4 41.0001 886.6 40.5001 889.5 40.3001C891.7 40.2001 894.2 40.1001 895 40.1001C899.9 39.8001 901.2 40.5001 908 47.4001L910.9 50.4001L913 47.7001C914.2 46.2001 915.6 45.0001 916.1 45.0001C918 45.0001 923 40.6001 923 38.9001C923 36.0001 921.9 34.0001 920.2 34.0001C919.4 34.0001 917.2 32.8001 915.3 31.4001C911.5 28.5001 908.3 28.7001 904.8 32.0001C901.4 35.1001 896.8 36.7001 891 36.6001C886.8 36.5001 885.5 36.1001 885.5 35.0001C885.5 34.0001 887.7 33.0001 892.4 31.8001C896.2 30.9001 899.7 29.6001 900.1 28.8001C902.3 25.5001 903 20.2001 901.8 16.4001L900.5 12.5001L894.3 12.2001C889.1 12.0001 887.7 12.3001 886 14.0001Z" fill="#6D6767"/>
<path d="M946.8 13.7C940.2 21.3 942.4 29 952.2 32.8C955.1 34 958.4 35 959.5 35.2C960.6 35.4 961.5 36.2 961.5 37C961.5 38.1 960.1 38.6 956.5 38.8C951.4 39.1 944 37.4 944 35.8C944 35.4 943.3 35 942.5 35C941.7 35 940 33.9 938.8 32.5C935.8 29 934.1 29.3 929.8 34.1C924.3 40.1 924.5 41 933.2 48.5C934.5 49.6 936 49.9 938.1 49.5C939.7 49.1 941 48.5 941 48.2C941.2 44.9 958.6 40.6 961.5 43C962.8 44 962.8 44.6 961.5 47C960.2 49.4 960.2 50 961.5 51C962.3 51.6 963.3 51.9 963.8 51.6C964.4 51.3 965.3 51.7 966 52.5C967 53.7 967.6 53.8 968.7 52.9C969.7 52 970.5 52.1 971.8 53.4C974 55.3 975.6 55.5 976.2 53.7C977.1 51.6 975.9 50 972.4 48.5C969.8 47.4 969 46.5 969 44.6C969 41.6 969.2 41.6 973.6 43.2C976.2 44.1 977.2 44.1 978.4 43.1C980.5 41.3 980.4 39 978.3 37.4C975.9 35.6 974 35.7 971.8 37.7C969.8 39.5 968.3 38.7 968 35.5C967.6 31.4 967.9 30.9 970 32C971.7 32.9 972.5 32.6 974.5 30.6C978.7 26.3 976.9 23.5 972.2 26.9C970.4 28.1 968.9 28.6 968 28C967.1 27.5 966.1 27.9 965.1 29.2C961.1 34.1 950 31.8 950 26.1C950 21.2 954.4 19.2 956.8 23C957.5 24.1 958.9 25 960 25C961.7 25 962 24.3 962 20.6C962 17 961.5 15.8 959.4 14.1C956 11.4 949 11.2 946.8 13.7ZM940 40C940 40.5 939.3 41 938.4 41C937.6 41 937.2 40.5 937.5 40C937.8 39.4 938.5 39 939.1 39C939.6 39 940 39.4 940 40ZM938.5 43.8C939.1 45.4 938.3 47 936.9 47C935.3 47 932.8 44.1 933.5 43.1C934.3 41.7 937.9 42.2 938.5 43.8Z" fill="#6D6767"/>
<path d="M1064.4 13.2002C1062.2 14.2002 1060 17.9002 1060 20.5002C1060 21.3002 1060.5 24.2002 1061.1 27.0002C1062 31.1002 1062.7 32.3002 1064.8 33.2002C1069.1 35.0002 1070.2 35.2002 1077 35.5002C1082.9 35.8002 1083.7 35.6002 1086.8 32.9002C1088.6 31.3002 1090.5 30.0002 1091 30.0002C1091.6 30.0002 1092 29.1002 1092 28.0002C1092 26.9002 1091.8 26.0002 1091.6 26.0002C1090.5 26.0002 1083.9 28.5002 1080.4 30.3002C1076.4 32.3002 1076.1 32.3002 1071.7 30.6002C1067 28.9002 1065.4 26.6002 1066.6 23.6002C1067.4 21.5002 1070.8 21.5002 1073.1 23.6002C1075.5 25.7002 1078 24.7002 1078 21.6002C1078 18.8002 1075.7 14.1002 1073.8 12.9002C1072 11.7002 1067 11.9002 1064.4 13.2002Z" fill="#6D6767"/>
<path d="M1002.3 14.1C1000.7 15.7 1000.6 22.2 1002.2 23.8C1003 24.6 1003.9 24.4 1005.8 23C1009.1 20.4 1010.7 20.5 1011.4 23.4C1012.3 26.8 1011.3 28.7 1008 29.8C1005.1 30.9 999.1 29.5 996.8 27.2C996 26.4 995.1 26.5 993.5 27.6C991.3 29 991.1 29 990.5 27.1C989.6 24.2 988 24.5 988 27.5C988 28.9 988.4 30 988.8 30C989.8 30 998 37.4 998 38.3C998 39.7 993.6 38.9 990.4 36.9C985.9 34.1 982.9 36.1 986.4 39.6C987.2 40.3 988 41.5 988.2 42.2C988.6 43.2 989.3 43.2 991.4 42C994 40.7 994.3 40.7 995.7 42.5C997.2 44.5 997.2 44.5 998.7 42.2C1000 40.4 1001.2 40 1005.4 40C1008.3 40 1011.3 40.7 1012.4 41.5C1015 43.4 1016.9 43.4 1019.2 41.3C1020.2 40.4 1021 40.1 1021.1 40.6C1021.5 45.6 1024 50 1026.4 50C1027 49.9 1030.1 47.5 1033.3 44.6C1037.3 40.9 1038.8 38.7 1038.4 37.6C1038.1 36.7 1037.4 36 1036.9 36C1036.5 36 1034.5 34.4 1032.6 32.5C1028.7 28.7 1026.9 28.2 1025 30.5C1024.3 31.3 1023.2 32 1022.6 32C1022 32 1019.9 33.1 1017.9 34.4C1012.1 38.4 1001 39.1 1001 35.5C1001 34.1 1006.7 32 1010.2 32C1011.2 32 1012.5 31.2 1013.1 30.1C1013.8 29.1 1015.1 28.5 1016 28.7C1019.2 29.6 1019.6 17.6 1016.4 14.9C1014.3 13.2 1003.7 12.6 1002.3 14.1Z" fill="#6D6767"/>
<path d="M1121.3 13.7C1118.8 14 1117.9 14.8 1117.1 17.2C1115.5 21.7 1115.7 23 1118.3 24C1120 24.7 1120.9 24.4 1122.6 22.5C1124.5 20.5 1124.9 20.4 1126.2 21.6C1127.9 23.3 1127.4 30 1125.5 30C1123.5 30 1121.7 32.7 1123.1 33.6C1124.6 34.5 1132.9 30.1 1133.5 28C1134.7 23.8 1134.9 19.7 1133.9 17.9C1132.9 16 1127.1 12.8 1125.3 13.2C1124.9 13.2 1123.1 13.5 1121.3 13.7Z" fill="#6D6767"/>
<path d="M1234.6 15.6003C1232.4 17.7003 1231.5 22.0003 1232.7 23.9003C1233.8 25.5003 1235.8 25.7003 1239.8 24.5003C1241.8 23.8003 1242 24.1003 1242 27.3003C1242 30.0003 1241.5 31.0003 1240 31.5003C1237.7 32.2003 1230 30.3003 1230 29.0003C1230 28.4003 1228.6 28.0003 1226.9 28.0003C1225.2 28.0003 1223 27.5003 1222 27.0003C1220.5 26.2003 1219.9 26.4003 1219.1 27.8003C1217.4 31.0003 1221.7 34.1003 1228.4 34.5003C1231.4 34.7003 1234.4 35.1003 1234.9 35.4003C1235.4 35.8003 1236.1 35.6003 1236.5 35.0003C1236.8 34.5003 1238.5 34.0003 1240.1 34.0003C1243.9 34.0003 1247.7 31.5003 1249.6 27.8003C1251.6 23.9003 1251.2 16.2003 1248.9 14.9003C1246 13.4003 1236.3 13.8003 1234.6 15.6003Z" fill="#6D6767"/>
<path d="M62.7002 24.5C60.5002 26.7 62.4002 29.8 66.5002 30.8C69.5002 31.6 71.0002 34.4 69.3002 36.1C68.8002 36.6 66.8002 36.5 64.6002 35.9C60.4002 34.7 58.5002 35.6 59.6002 38.3C60.5002 40.6 63.7002 41.4 67.1002 40C69.4002 39 70.3002 39 71.5002 40C73.0002 41.3 73.6002 45.9 72.3002 46.1C65.4002 46.7 63.0002 48 63.0002 51.2C63.0002 53 63.4002 53.1 66.6002 52.5C68.6002 52.2 72.0002 50.7 74.1002 49.3C78.4002 46.5 82.2002 46.7 85.9002 50.1C88.6002 52.6 88.6002 54.6 85.9002 56.1C84.2002 57 83.4002 56.8 81.6002 55.1C77.1002 50.8 74.2002 55.6 77.5002 61.9C80.0002 66.9 84.2002 67.3 90.6002 63.3C93.0002 61.7 95.2002 59.7 95.5002 58.8C96.3002 56.4 93.2002 50.2 90.6002 48.8C89.5002 48.2 88.2002 47.3 87.9002 46.8C87.5002 46.2 85.3002 45.7 82.9002 45.7C80.5002 45.6 77.7002 44.8 76.8002 44C75.2002 42.6 75.3002 42.3 78.1002 41.1C79.9002 40.3 82.1002 40.1 83.8002 40.6C85.3002 41 87.4002 41.2 88.6002 41.1C89.7002 41 91.3002 41.6 92.0002 42.4C92.7002 43.3 93.7002 44 94.2002 44C94.7002 44 96.6002 45.1 98.4002 46.5C100.2 47.9 102.1 49 102.6 49C104 49 114 38.7 114 37.3C114 36.6 113 35.6 111.8 34.9C110.5 34.3 108.1 32.3 106.3 30.4C104.5 28.5 102.7 27 102.2 27C101.7 27 100 28.2 98.4002 29.8C92.7002 35.2 88.7002 37 82.1002 37C77.3002 37 76.0002 36.7 76.0002 35.5C76.0002 34.5 77.0002 34 79.0002 34C82.8002 34 82.9002 31.8 79.3002 30C77.7002 29.2 75.5002 27.7 74.2002 26.6C72.4002 25 71.6002 24.8 70.1002 25.7C68.6002 26.6 67.9002 26.4 66.3002 24.8C64.4002 23 64.2002 23 62.7002 24.5ZM100.9 40.2C99.2002 43.6 99.0002 43.6 99.0002 40.7C99.0002 38.9 99.5002 38 100.5 38C101.8 38 101.9 38.4 100.9 40.2Z" fill="#6D6767"/>
<path d="M176.4 24.5C175.5 26.6 178.7 31 181 31C183.4 31 183.5 29.9 181.5 26C179.8 22.8 177.3 22.1 176.4 24.5Z" fill="#6D6767"/>
<path d="M640 26.8002C640 29.5002 642.7 32.7002 645.5 33.4002C647 33.8002 648 34.7002 648 35.9002C648 38.6002 647 39.0002 644.4 37.4002C643.1 36.5002 641.3 36.0002 640.4 36.2002C638.7 36.5002 636.7 41.3002 637.8 42.4002C638.7 43.4002 644.5 43.1002 645.6 42.0002C646.1 41.5002 647.1 41.4002 647.8 41.9002C650 43.2002 647.5 47.7002 643.6 49.5002C641.3 50.6002 640 51.9002 640 53.1002C640 54.2002 640.3 55.0002 640.8 55.0002C642.7 54.9002 649.1 52.2002 650.8 50.7002C654.6 47.2002 666.8 49.7002 666.5 53.8002C666.4 56.1002 664.2 59.0002 662.7 59.0002C662.1 59.0002 660.6 58.0002 659.4 56.9002C656.3 54.0002 654 55.0002 654 59.3002C654 62.8002 655.4 64.5002 660.2 66.9002C663 68.3002 668 67.7002 668 66.0002C668 65.4002 668.7 65.0002 669.5 65.0002C671.5 65.0002 674.2 59.5002 673.4 56.7002C672.6 53.3002 667.5 48.0002 665.1 48.0002C664.1 48.0002 663 47.5002 662.8 46.9002C662.6 46.4002 660.6 45.6002 658.2 45.3002C653.3 44.6002 652.6 42.5002 657 41.6002C660.5 41.0002 666 41.9002 666 43.1002C666 43.6002 667.2 44.0002 668.6 44.0002C670 44.0002 673 45.4002 675.2 47.2002L679.2 50.3002L682.3 48.5002C684.1 47.5002 686.2 45.9002 687 45.0002C687.8 44.1002 689.3 43.1002 690.3 42.7002C692.4 41.9002 692.7 36.0002 690.7 36.0002C690 36.0002 687.3 33.9002 684.7 31.3002L680 26.6002L676.3 30.1002C674.2 32.0002 672.3 33.8002 672 34.2002C670.7 35.9002 663.7 38.0002 659.6 38.0002C654.4 38.0002 653.1 36.7002 655.6 33.9002C657.3 32.1002 657.3 31.9002 655.4 30.5002C654.4 29.7002 652.9 29.0002 652.3 29.0002C651.6 29.0002 651 28.5002 651 28.0002C651 27.4002 650.1 27.0002 649 27.0002C647.9 27.0002 647 27.4002 647 28.0002C647 29.9002 643.8 29.0002 643.3 27.0002C642.6 24.5002 640 24.3002 640 26.8002ZM681 37.9002C681 38.5002 680.6 39.2002 680 39.5002C679.5 39.8002 679 39.4002 679 38.6002C679 37.7002 679.5 37.0002 680 37.0002C680.6 37.0002 681 37.4002 681 37.9002Z" fill="#6D6767"/>
<path d="M1103.3 28.7001C1103.5 30.7001 1104.5 31.9001 1106.8 32.9001C1108.8 33.8001 1110 35.1001 1110 36.3001C1110 38.0001 1109.5 38.1001 1105.1 37.5001C1099.2 36.7001 1098.2 37.8001 1101.4 41.5001C1103.4 43.8001 1104.1 44.0001 1105.8 43.1001C1108.8 41.5001 1110.8 41.7001 1112 43.9001C1112.9 45.6001 1112.4 46.3001 1108.8 48.7001C1106.4 50.3001 1104.4 52.4001 1104.2 53.3001C1103.9 54.9001 1104.3 55.0001 1107.7 54.4001C1109.8 54.0001 1113.3 52.8001 1115.5 51.6001C1117.7 50.4001 1120.1 49.5001 1120.8 49.6001C1121.4 49.7001 1122.6 49.8001 1123.4 49.9001C1125.7 50.1001 1128 52.9001 1128 55.5001C1128 58.4001 1125.2 59.5001 1121.7 57.9001C1118.4 56.4001 1116 57.4001 1116 60.2001C1116.1 64.6001 1121 68.1001 1127.2 68.1001C1128.2 68.1001 1130.3 66.7001 1132 65.0001C1135.8 61.2001 1136.1 55.8001 1132.7 51.9001C1129.8 48.4001 1127.4 47.2001 1121.1 46.4001C1116.5 45.8001 1115.9 45.5001 1116.2 43.6001C1116.5 41.8001 1117.3 41.5001 1122.3 41.2001C1128.9 40.9001 1133 42.7001 1136.8 47.9001C1139 50.9001 1141.2 51.6001 1144.4 50.4001C1145.3 50.1001 1146 49.2001 1146 48.4001C1146 47.6001 1146.4 47.0001 1146.9 47.0001C1147.4 47.0001 1149.3 45.8001 1151 44.4001C1154.6 41.3001 1154.7 38.1001 1151.3 36.4001C1150 35.8001 1148.1 34.2001 1147 32.9001C1145.9 31.6001 1144.5 29.9001 1143.9 29.2001C1143.1 28.2001 1142 28.8001 1138.9 32.0001C1136.8 34.2001 1134.4 36.0001 1133.6 36.0001C1132.8 36.0001 1132 36.4001 1131.8 36.9001C1131.7 37.4001 1128.2 37.9001 1124.3 38.2001C1117.9 38.5001 1117 38.4001 1117 36.8001C1117 35.9001 1117.5 34.8001 1118 34.5001C1120 33.3001 1118.9 31.2001 1115.3 29.0001C1112.4 27.3001 1111.1 27.1001 1109.9 27.9001C1108.6 28.6001 1107.9 28.5001 1107 27.5001C1104.9 25.0001 1102.9 25.7001 1103.3 28.7001Z" fill="#6D6767"/>
<path d="M562.5 29.2C561.4 29.8 559.6 31.2 558.5 32.3C555.7 35 550.1 37.3 545.8 37.4C543.7 37.5 541.5 38.1 540.9 38.7C539.7 39.9 540.7 40.2 549.9 41.6C555.7 42.4 560.4 45.1 560.8 47.8C561.3 51 564.9 50.6 568.8 46.9C570.5 45.3 572 43.5 572 43.1C572 42.6 572.9 42 574 41.7C576.6 41 576.6 38.4 573.9 36.2C572.7 35.3 570.4 33 568.7 31.2C565.3 27.6 565.3 27.6 562.5 29.2Z" fill="#6D6767"/>
<path d="M1252.5 33.6003C1250.3 36.1003 1248.2 38.7003 1247.8 39.3003C1247.2 40.2003 1246.8 40.1003 1246.1 39.1003C1245.1 37.5003 1242.9 38.5003 1243.6 40.3003C1243.8 41.0003 1245.3 42.1003 1246.9 42.8003C1248.5 43.5003 1251.5 45.8003 1253.7 48.0003C1257.6 52.0003 1257.6 52.0003 1260.8 50.4003C1262.6 49.6003 1264.1 48.4003 1264.1 47.9003C1264.2 47.4003 1264.4 46.5003 1264.5 46.0003C1264.6 45.4003 1264.8 43.9003 1264.9 42.5003C1265 40.9003 1265.6 40.0003 1266.6 40.0003C1269.3 40.0003 1267.7 36.6003 1264.1 34.8003C1262.3 33.9003 1259.9 32.2003 1258.9 31.1003C1257.8 29.9003 1256.8 29.0003 1256.7 29.0003C1256.6 29.0003 1254.7 31.1003 1252.5 33.6003Z" fill="#6D6767"/>
<path d="M1047.6 33.3C1044.6 36.6 1043.1 41.3 1044.9 42.4C1045.4 42.7 1046.1 42 1046.4 40.7C1047 38.6 1047.1 38.6 1048.5 40.4C1049.4 41.5 1049.6 42.9 1049.1 43.7C1048 45.7 1049 50 1050.7 50.7C1051.5 51 1053.1 50.3 1054.3 49.2C1055.5 48.1 1056.7 47.1 1057 47.1C1058.7 47.2 1063.1 44.8 1063.6 43.6C1064.4 41.5 1078 41.9 1078 44.1C1078 46.8 1075.7 48 1070.5 48C1065.9 48 1065.3 48.3 1063.7 51C1062.7 52.7 1061.5 54 1060.9 54C1059.4 54 1059.9 59.9 1061.6 62.5C1063.1 64.8 1068.3 67 1072.1 67C1074.7 67 1077.5 63.7 1077.8 60.3C1078.2 56.5 1076.5 55.2 1074 57.5C1071.7 59.6 1069.2 59.2 1067.3 56.4C1066.1 54.6 1066.2 54 1067.7 52.1C1070.3 48.9 1074.7 48.8 1079.4 51.7C1082.5 53.7 1083.4 53.9 1084.1 52.9C1084.8 51.8 1085.5 51.8 1087.9 53.3C1089.5 54.2 1091.1 55 1091.4 55C1092.7 55 1091.9 51.2 1090.3 49.7C1088.6 48.2 1088.1 48 1086.1 48C1085.6 48 1084.8 47.1 1084.5 46C1084.2 44.9 1083 44 1081.9 44C1080.7 44 1080 43.3 1080 42C1080 40.3 1079.3 40 1075.4 40C1067.7 40 1061.9 38 1057.5 33.8C1055.3 31.7 1052.9 30 1052.1 30C1051.4 30 1049.3 31.5 1047.6 33.3Z" fill="#6D6767"/>
<path d="M1164.6 33.3003C1162.3 37.0003 1161.6 46.8003 1163.4 49.1003C1164 49.9003 1165.6 51.1003 1166.9 51.9003C1169.1 53.1003 1169.5 53.0003 1170.7 51.4003C1171.4 50.4003 1172 49.3003 1172 48.9003C1172 47.5003 1179.6 43.6003 1183.4 43.1003C1188.6 42.3003 1189.1 40.4003 1184.3 39.5003C1180.1 38.8003 1174.7 35.8003 1171.1 32.3003C1167.9 29.2003 1166.9 29.4003 1164.6 33.3003Z" fill="#6D6767"/>
<path d="M1089 38.5002C1089 39.3002 1089.7 41.2002 1090.6 42.5002C1091.9 44.5002 1092.6 44.8002 1094.1 43.9002C1097.5 42.1002 1096.1 39.1002 1091.3 37.6002C1089.6 37.0002 1089 37.3002 1089 38.5002Z" fill="#6D6767"/>
<path d="M1215.6 39.9003C1215.3 40.4003 1216 41.9003 1217.1 43.4003C1219 45.9003 1219.3 45.9003 1221.8 44.6003C1223.3 43.8003 1225.3 42.9003 1226.3 42.6003C1227.2 42.3003 1228 41.4003 1228 40.6003C1228 39.6003 1226.5 39.2003 1222 39.1003C1218.8 39.1003 1215.8 39.4003 1215.6 39.9003Z" fill="#6D6767"/>
<path d="M1231.3 40.4001C1230.7 41.1001 1230 42.8001 1229.8 44.1001C1229.6 45.7001 1228.9 46.4001 1227.8 46.2001C1226.1 45.9001 1219 52.2001 1219 54.1001C1219 55.6001 1222 56.4001 1223.3 55.1001C1223.9 54.5001 1225.4 54.0001 1226.6 54.0001C1227.8 54.0001 1229 53.3001 1229.4 52.5001C1229.7 51.6001 1231.2 51.0001 1232.9 51.0001C1234.5 51.0001 1236 50.5001 1236.2 49.8001C1236.8 48.2001 1241.4 51.4001 1242.8 54.5001C1243.4 55.9001 1244.4 57.0001 1245 57.0001C1246.4 57.0001 1246.3 60.7001 1244.8 61.2001C1242.1 62.1001 1238.8 60.6001 1237.4 57.9001C1235.6 54.4001 1234.3 54.2001 1232.9 57.4001C1231.2 61.0001 1232.6 64.6001 1236.5 67.0001C1243.5 71.3001 1251 67.2001 1251 59.1001C1251 52.2001 1247.1 48.5001 1238.4 47.3001C1233.6 46.7001 1232 44.9001 1234 42.5001C1234.6 41.7001 1234.9 40.6001 1234.5 40.0001C1233.7 38.7001 1232.8 38.8001 1231.3 40.4001Z" fill="#6D6767"/>
<path d="M1236.7 39.7C1235.4 40.9 1236 42 1238 42C1239.1 42 1240 41.3 1240 40.5C1240 39 1237.9 38.4 1236.7 39.7Z" fill="#6D6767"/>
<path d="M1001.7 45.4002C1000.9 46.2002 998 47.1002 995.2 47.4002C988.9 48.0002 988 48.5002 988 51.7002C988 53.7002 988.3 54.1002 989.8 53.5002C990.7 53.0002 993 52.5002 994.8 52.2002C996.7 52.0002 998.4 51.1002 998.7 50.4002C999 49.6002 1000.3 49.0002 1001.5 49.0002C1002.8 49.0002 1004 48.4002 1004.2 47.8002C1004.5 46.9002 1005.1 47.0002 1006.4 48.3002C1007.4 49.2002 1009 50.0002 1010.1 50.0002C1013 50.0002 1013 56.5002 1010.2 58.7002C1007.7 60.6002 1006.2 60.3002 1005.8 57.8002C1005.4 54.5002 1002.2 54.3002 1001.4 57.4002C1000.5 61.1002 1003.2 64.8002 1007.3 65.5002C1011.4 66.3002 1018 63.8002 1018 61.6002C1018 60.7002 1018.5 60.0002 1019 60.0002C1019.6 60.0002 1020 58.7002 1020 57.0002C1020 53.9002 1016.6 49.0002 1014.5 49.0002C1013.8 49.0002 1011.6 47.9002 1009.6 46.5002C1005.4 43.6002 1003.7 43.4002 1001.7 45.4002Z" fill="#6D6767"/>
<path d="M485.2 49.8C481.4 53.4 480.5 56.8 482 61.4C483.1 64.9 483.3 65 488.3 65C495 65 498.5 63.2 498.5 60C498.5 57.9 498 57.5 495 57.2C487.9 56.6 484.4 52.5 489 50C490.1 49.4 490.8 48.5 490.5 47.9C489.5 46.4 488.4 46.8 485.2 49.8Z" fill="#6D6767"/>
<path d="M832.6 50.1003C831 51.8003 829.3 54.9003 828.8 56.8003C827.9 60.2003 828 60.6003 831 63.3003C832.8 64.9003 834.8 65.9003 835.7 65.6003C836.5 65.3003 838.6 65.0003 840.4 65.0003C842.9 65.0003 844 64.3003 845.3 62.0003C846.4 60.2003 846.9 58.2003 846.5 56.9003C845.8 54.8003 844.7 54.7003 838 56.4003C835.2 57.0003 835.1 52.7003 837.8 49.7003L840.4 47.0003H837.9C836.3 47.0003 834.3 48.2003 832.6 50.1003Z" fill="#6D6767"/>
<path d="M1178.8 50.6C1175.5 52.7 1175 53.6 1175 56.7C1175 58.9 1175.9 61.7 1177.3 63.7C1179.2 66.6 1180 67 1184 67C1190.1 67 1193 64.9 1193 60.5C1193 56.8 1191.5 55.1 1189.7 56.9C1188.1 58.5 1184 58.2 1183.3 56.4C1183 55.5 1183.4 53.5 1184.4 52C1185.3 50.4 1186 48.9 1186 48.6C1186 47.3 1182.3 48.3 1178.8 50.6Z" fill="#6D6767"/>
<path d="M598.6 52.2002C595.2 57.1002 598.1 64.6002 603.5 65.1002C611.5 65.9002 616 63.3002 616 58.1002C616 54.8002 613.8 53.5002 611 55.0002C607.9 56.7002 606.2 56.1002 604.3 53.0002C602.2 49.4002 600.7 49.2002 598.6 52.2002Z" fill="#6D6767"/>
<path d="M781.6 50.8002C781.3 51.1002 781 52.6002 781 54.0002C781 58.7002 778.8 59.4002 775 56.0002C771.2 52.6002 770.5 52.4002 769.6 54.6002C767.8 59.4002 769.3 63.6002 773.6 65.6002C777.7 67.6002 782.4 66.9002 785.7 63.8002C789.9 59.9002 788.4 51.1002 783.5 50.4002C782.7 50.3002 781.9 50.5002 781.6 50.8002Z" fill="#6D6767"/>
<path d="M949 50.8002C949 51.3002 947.9 52.3002 946.5 53.0002C943 54.9002 943 60.7002 946.5 64.0002C948.5 65.8002 949.6 66.2002 952.7 65.7002C961.3 64.3002 962 63.9002 962 59.4002C962 55.4002 959.9 54.0002 957.5 56.4002C954.1 59.8002 951 57.9002 951 52.4002C951 51.1002 950.6 50.0002 950 50.0002C949.5 50.0002 949 50.4002 949 50.8002Z" fill="#6D6767"/>
</svg>
