<svg width="101" height="26" viewBox="0 0 101 26" fill="none" xmlns="http://www.w3.org/2000/svg">
<path d="M10.0841 5.9542C10.0841 6.26293 9.84242 6.94656 9.35909 8.00509C8.87576 9.01951 7.49167 12.57 5.20682 18.6565C6.78864 16.7159 8.78788 14.4665 11.2045 11.9084C16.0818 6.7922 19.4432 4.2341 21.2886 4.2341C21.6841 4.2341 22.0576 4.34436 22.4091 4.56489C22.8045 4.78541 23.0023 5.29262 23.0023 6.08651C23.0023 6.8363 22.7606 7.69635 22.2773 8.66667C21.7939 9.59287 21.2447 10.7396 20.6295 12.1069C20.0144 13.4741 19.597 14.3342 19.3773 14.687C23.0682 11.335 25.8583 9.30619 27.7477 8.60051C29.6371 7.85072 30.8894 7.47583 31.5045 7.47583C32.1197 7.47583 32.4273 7.69635 32.4273 8.1374C32.4273 8.40204 32.0977 9.04156 31.4386 10.056C30.7795 11.0704 30.0545 12.57 29.2636 14.5547C28.4727 16.5394 28.0333 17.9288 27.9455 18.7226C27.8576 19.5165 27.8136 20.2222 27.8136 20.8397C27.8136 21.4572 27.9894 21.9644 28.3409 22.3613C29 23.067 29.9008 23.1111 31.0432 22.4936C32.1856 21.8762 33.7674 20.6412 35.7886 18.7888C37.8538 16.9364 39.5015 15.1281 40.7318 13.3639C40.9076 13.1433 41.1053 13.0992 41.325 13.2316C41.5886 13.3198 41.7204 13.43 41.7204 13.5623C41.7204 13.6506 41.6765 13.7608 41.5886 13.8931C40.9295 15.084 39.7432 16.6056 38.0295 18.458C35.2174 21.5013 32.8667 23.3757 30.9773 24.0814C28.9121 24.7871 27.4182 24.8753 26.4955 24.3461C25.5727 23.8168 25.0015 23.2214 24.7818 22.5598C24.5621 21.8982 24.4523 21.2366 24.4523 20.5751C24.4523 18.5021 24.8477 16.4292 25.6386 14.3562C26.4735 12.2833 27.1326 10.8719 27.6159 10.1221C25.9462 10.8278 24.5182 11.7099 23.3318 12.7684C21.5303 14.3562 20.0803 15.7455 18.9818 16.9364L17.6636 18.3919C17.2682 19.3622 16.5651 19.9135 15.5545 20.0458C14.5879 20.1781 14.1265 19.8473 14.1705 19.0534C14.2583 18.2154 15.0712 16.341 16.6091 13.43C18.147 10.5191 18.9159 8.90924 18.9159 8.60051C18.9159 8.24767 18.7401 8.07125 18.3886 8.07125C17.5977 8.07125 16.1697 8.9754 14.1045 10.7837C12.7424 12.0628 10.7212 14.4885 8.04091 18.0611C5.40454 21.5895 3.91061 23.464 3.55909 23.6845C1.97727 24.4784 0.988636 24.8753 0.593182 24.8753C0.197727 24.8753 0 24.8092 0 24.6768C0 24.5445 0.0659091 24.3461 0.197727 24.0814C0.329545 23.8168 1.6697 19.9796 4.21818 12.57C3.25151 14.0695 2.37273 15.2163 1.58182 16.0102C1.2303 16.4071 1.05455 16.341 1.05455 15.8117C1.05455 15.2383 1.20833 14.7532 1.51591 14.3562C3.49318 11.754 4.94318 9.54877 5.86591 7.74046C6.12954 6.19678 6.65682 5.29262 7.44773 5.02799C7.93106 4.85157 8.4803 4.85157 9.09545 5.02799C9.75454 5.20441 10.0841 5.51315 10.0841 5.9542Z" fill="#F7F7F7"/>
<path d="M43.3671 8.40204C43.3671 6.28499 42.752 5.22646 41.5217 5.22646C41.2581 5.22646 40.9724 5.27057 40.6649 5.35878C40.4012 5.40288 40.2694 5.33673 40.2694 5.16031C40.2694 4.98388 40.4012 4.76336 40.6649 4.49873C40.9285 4.2782 41.8293 4.10178 43.3671 3.96947C45.2126 3.96947 46.355 4.2341 46.7944 4.76336C47.2777 5.29262 47.5194 5.82188 47.5194 6.35115C47.5194 6.88041 47.102 8.20356 46.2671 10.3206C45.4762 12.3936 45.0588 13.4741 45.0149 13.5623C43.6967 17.5318 43.1035 20.0237 43.2353 21.0382C47.1899 15.7014 49.7823 12.3715 51.0126 11.0483C53.605 8.18151 55.4505 6.21883 56.549 5.16031C59.0975 2.77863 61.3384 1.16879 63.2717 0.330788C63.8429 0.110263 64.3482 0 64.7876 0C66.2376 0 67.2262 0.441052 67.7535 1.32316C67.9293 1.54368 68.0171 1.76421 68.0171 1.98473C68.0171 2.16115 67.9512 2.38168 67.8194 2.64631C67.6876 2.91094 67.4459 2.91094 67.0944 2.64631C66.7429 2.33758 65.952 2.18321 64.7217 2.18321C62.7005 2.18321 59.3171 4.56489 54.5717 9.32824C51.7156 12.2833 49.0793 15.3707 46.6626 18.5903C44.2899 21.81 43.0156 24.1035 42.8399 25.4707C42.8399 25.8236 42.5103 26 41.8512 26C41.1921 26 40.6868 25.7133 40.3353 25.1399C40.0278 24.6107 39.874 24.1476 39.874 23.7506C39.874 23.3978 39.8959 23.0891 39.9399 22.8244C39.9838 22.5157 40.4232 20.8838 41.2581 17.9288C42.0929 14.9737 42.6202 13.011 42.8399 12.0407C42.3126 12.9228 41.5876 14.0034 40.6649 15.2824C40.3573 15.6353 40.0937 15.7455 39.874 15.6132C39.6982 15.4368 39.6103 15.2824 39.6103 15.1501C39.6103 15.0178 39.6543 14.8634 39.7421 14.687C41.5876 12.173 42.7959 10.078 43.3671 8.40204Z" fill="#F7F7F7"/>
<path d="M69.3636 5.9542C69.3636 6.26293 69.122 6.94656 68.6386 8.00509C68.1553 9.01951 66.7712 12.57 64.4864 18.6565C66.0682 16.7159 68.0674 14.4665 70.4841 11.9084C75.3614 6.7922 78.7227 4.2341 80.5682 4.2341C80.9636 4.2341 81.3371 4.34436 81.6886 4.56489C82.0841 4.78541 82.2818 5.29262 82.2818 6.08651C82.2818 6.8363 82.0402 7.69635 81.5568 8.66667C81.0735 9.59287 80.5243 10.7396 79.9091 12.1069C79.2939 13.4741 78.8765 14.3342 78.6568 14.687C82.3477 11.335 85.1379 9.30619 87.0273 8.60051C88.9167 7.85072 90.1689 7.47583 90.7841 7.47583C91.3992 7.47583 91.7068 7.69635 91.7068 8.1374C91.7068 8.40204 91.3773 9.04156 90.7182 10.056C90.0591 11.0704 89.3341 12.57 88.5432 14.5547C87.7523 16.5394 87.3129 17.9288 87.225 18.7226C87.1371 19.5165 87.0932 20.2222 87.0932 20.8397C87.0932 21.4572 87.269 21.9644 87.6205 22.3613C88.2796 23.067 89.1803 23.1111 90.3227 22.4936C91.4652 21.8762 93.047 20.6412 95.0682 18.7888C97.1333 16.9364 98.7811 15.1281 100.011 13.3639C100.187 13.1433 100.385 13.0992 100.605 13.2316C100.868 13.3198 101 13.43 101 13.5623C101 13.6506 100.956 13.7608 100.868 13.8931C100.209 15.084 99.0227 16.6056 97.3091 18.458C94.497 21.5013 92.1462 23.3757 90.2568 24.0814C88.1917 24.7871 86.6977 24.8753 85.775 24.3461C84.8523 23.8168 84.2811 23.2214 84.0614 22.5598C83.8417 21.8982 83.7318 21.2366 83.7318 20.5751C83.7318 18.5021 84.1273 16.4292 84.9182 14.3562C85.753 12.2833 86.4121 10.8719 86.8955 10.1221C85.2258 10.8278 83.7977 11.7099 82.6114 12.7684C80.8099 14.3562 79.3599 15.7455 78.2614 16.9364L76.9432 18.3919C76.5477 19.3622 75.8447 19.9135 74.8341 20.0458C73.8674 20.1781 73.4061 19.8473 73.45 19.0534C73.5379 18.2154 74.3508 16.341 75.8886 13.43C77.4265 10.5191 78.1955 8.90924 78.1955 8.60051C78.1955 8.24767 78.0197 8.07125 77.6682 8.07125C76.8773 8.07125 75.4492 8.9754 73.3841 10.7837C72.022 12.0628 70.0008 14.4885 67.3205 18.0611C64.6841 21.5895 63.1902 23.464 62.8386 23.6845C61.2568 24.4784 60.2682 24.8753 59.8727 24.8753C59.4773 24.8753 59.2796 24.8092 59.2796 24.6768C59.2796 24.5445 59.3455 24.3461 59.4773 24.0814C59.6091 23.8168 60.9492 19.9796 63.4977 12.57C62.5311 14.0695 61.6523 15.2163 60.8614 16.0102C60.5099 16.4071 60.3341 16.341 60.3341 15.8117C60.3341 15.2383 60.4879 14.7532 60.7955 14.3562C62.7727 11.754 64.2227 9.54877 65.1455 7.74046C65.4091 6.19678 65.9364 5.29262 66.7273 5.02799C67.2106 4.85157 67.7599 4.85157 68.375 5.02799C69.0341 5.20441 69.3636 5.51315 69.3636 5.9542Z" fill="#F7F7F7"/>
</svg>
