<svg width="480" height="146" viewBox="0 0 480 146" fill="none" xmlns="http://www.w3.org/2000/svg">
<g filter="url(#filter0_d)">
<path d="M66.2376 136.375C64.7876 136.375 64.0626 136.1 64.0626 135.55C64.0626 135.2 64.2626 134.925 64.6626 134.725C65.0626 134.525 65.6876 134.35 66.5376 134.2C69.1376 133.75 70.6876 131.8 71.1876 128.35C73.2376 112.95 74.2626 102.3 74.2626 96.4001C74.2626 95.2501 74.2376 94.4251 74.1876 93.9251C74.1376 93.3751 74.0376 92.9251 73.8876 92.5751C73.7876 92.1751 73.5126 91.8001 73.0626 91.4501C72.2626 90.7501 71.4626 90.2751 70.6626 90.0251C69.9126 89.7751 68.8376 89.5001 67.4376 89.2001C66.9376 89.1001 66.5376 88.9251 66.2376 88.6751C65.9376 88.3751 65.7876 88.0501 65.7876 87.7001C65.7876 87.3501 65.9876 87.1251 66.3876 87.0251C66.8376 86.9251 67.4876 86.8751 68.3376 86.8751C68.9876 86.8751 70.8626 86.9751 73.9626 87.1751C77.0626 87.3751 78.9376 87.4751 79.5876 87.4751C80.2876 87.4751 80.7626 87.8751 81.0126 88.6751L81.5376 90.6251C81.9876 92.4251 82.3626 93.7001 82.6626 94.4501L94.5126 124.525C94.6626 124.975 94.9876 125.2 95.4876 125.2C95.8376 125.2 96.0876 125.05 96.2376 124.75L111.013 94.0001C111.613 91.7501 112.063 89.8751 112.363 88.3751C112.513 87.7251 112.763 87.4001 113.113 87.4001H115.813C116.563 87.4001 118.363 87.2751 121.213 87.0251C122.513 86.8751 123.563 86.8001 124.363 86.8001C125.413 86.8001 125.938 87.0501 125.938 87.5501C125.938 87.9001 125.788 88.1751 125.488 88.3751C125.238 88.5751 124.738 88.8251 123.988 89.1251C123.538 89.2751 122.938 89.5001 122.188 89.8001C121.438 90.1001 120.563 90.4501 119.563 90.8501C119.013 91.1001 118.563 91.4501 118.213 91.9001C117.913 92.3501 117.763 92.8501 117.763 93.4001C117.763 97.8001 117.838 101.925 117.988 105.775C118.188 109.625 118.463 114.125 118.813 119.275C119.113 123.375 119.313 126.575 119.413 128.875C119.463 130.425 119.938 131.625 120.838 132.475C121.738 133.275 123.138 133.85 125.038 134.2C125.888 134.35 126.513 134.525 126.913 134.725C127.313 134.925 127.513 135.2 127.513 135.55C127.513 136.1 126.788 136.375 125.338 136.375C123.488 136.375 121.888 136.3 120.538 136.15C118.938 136.05 117.613 136 116.563 136C115.713 136 114.588 136.05 113.188 136.15C112.088 136.3 110.588 136.375 108.688 136.375C107.238 136.375 106.513 136.1 106.513 135.55C106.513 134.85 107.338 134.4 108.988 134.2C110.438 134 111.438 133.5 111.988 132.7C112.538 131.9 112.813 130.6 112.813 128.8C112.813 123.7 112.713 119 112.513 114.7C112.363 110.35 112.263 107.775 112.213 106.975C112.113 105.725 112.013 103.8 111.913 101.2C111.863 100.7 111.713 100.45 111.463 100.45C111.263 100.45 111.013 100.7 110.713 101.2L93.4626 136.375C93.4126 136.675 93.1876 136.825 92.7876 136.825C92.4876 136.825 92.2626 136.65 92.1126 136.3C88.6626 126.05 84.0626 114.175 78.3126 100.675C78.2126 100.425 78.0376 100.3 77.7876 100.3C77.5376 100.3 77.3876 100.425 77.3376 100.675C76.4376 107.325 75.8126 112.45 75.4626 116.05C75.1126 119.65 74.9376 123.75 74.9376 128.35C74.9376 129.75 75.3626 131 76.2126 132.1C77.1126 133.2 78.3126 133.9 79.8126 134.2C80.6626 134.35 81.2876 134.525 81.6876 134.725C82.0876 134.925 82.2876 135.2 82.2876 135.55C82.2876 136.1 81.5626 136.375 80.1126 136.375C78.2626 136.375 76.8376 136.3 75.8376 136.15C74.8376 136.05 73.9126 136 73.0626 136C72.3126 136 71.4376 136.05 70.4376 136.15C68.4876 136.3 67.0876 136.375 66.2376 136.375Z" fill="white"/>
<path d="M133.54 136.225C132.54 136.225 132.04 135.95 132.04 135.4C132.04 135.05 132.165 134.8 132.415 134.65C132.715 134.5 133.165 134.35 133.765 134.2C134.915 133.9 135.74 133.575 136.24 133.225C136.74 132.825 136.99 132.2 136.99 131.35V115.075C136.99 111.775 135.865 109.95 133.615 109.6C133.115 109.55 132.865 109.225 132.865 108.625C132.865 108.075 133.09 107.775 133.54 107.725C136.59 107.025 139.215 105.775 141.415 103.975C141.865 103.625 142.215 103.45 142.465 103.45C142.765 103.45 142.915 103.575 142.915 103.825C142.915 104.375 142.84 105.325 142.69 106.675C142.64 107.275 142.54 108.4 142.39 110.05C142.29 111.65 142.24 112.95 142.24 113.95V131.35C142.24 132.15 142.49 132.75 142.99 133.15C143.54 133.55 144.365 133.9 145.465 134.2C146.065 134.35 146.49 134.5 146.74 134.65C147.04 134.8 147.19 135.05 147.19 135.4C147.19 135.95 146.69 136.225 145.69 136.225C144.44 136.225 143.39 136.15 142.54 136C141.44 135.9 140.465 135.85 139.615 135.85C138.815 135.85 137.865 135.9 136.765 136C135.965 136.15 134.89 136.225 133.54 136.225ZM139.54 97.3001C138.49 97.3001 137.59 96.9501 136.84 96.2501C136.14 95.5001 135.79 94.6001 135.79 93.5501C135.79 92.4501 136.14 91.5501 136.84 90.8501C137.59 90.1001 138.49 89.7251 139.54 89.7251C140.64 89.7251 141.54 90.1001 142.24 90.8501C142.99 91.5501 143.365 92.4501 143.365 93.5501C143.365 94.6001 142.99 95.5001 142.24 96.2501C141.54 96.9501 140.64 97.3001 139.54 97.3001Z" fill="white"/>
<path d="M159.424 137.05C157.874 137.05 156.424 136.8 155.074 136.3C153.724 135.85 152.574 135.2 151.624 134.35C151.224 133.55 150.949 131.55 150.799 128.35C150.799 127.9 151.124 127.675 151.774 127.675C152.324 127.675 152.624 127.85 152.674 128.2C153.274 130.5 154.249 132.225 155.599 133.375C156.999 134.475 158.499 135.025 160.099 135.025C161.549 135.025 162.774 134.55 163.774 133.6C164.824 132.6 165.349 131.375 165.349 129.925C165.349 128.625 164.899 127.5 163.999 126.55C163.149 125.55 161.574 124.325 159.274 122.875C156.674 121.275 154.824 119.8 153.724 118.45C152.674 117.05 152.149 115.425 152.149 113.575C152.149 111.075 153.024 109.025 154.774 107.425C156.524 105.775 159.024 104.95 162.274 104.95C163.674 104.95 164.874 105.1 165.874 105.4C166.924 105.65 167.724 105.975 168.274 106.375C168.674 106.925 168.999 107.8 169.249 109C169.549 110.15 169.699 111.25 169.699 112.3C169.699 112.65 169.449 112.825 168.949 112.825C168.649 112.825 168.349 112.775 168.049 112.675C167.749 112.525 167.574 112.35 167.524 112.15C166.824 110.45 165.974 109.175 164.974 108.325C164.024 107.475 162.849 107.05 161.449 107.05C160.149 107.05 159.024 107.45 158.074 108.25C157.124 109.05 156.649 110.125 156.649 111.475C156.649 112.675 156.999 113.725 157.699 114.625C158.449 115.475 159.824 116.475 161.824 117.625C164.974 119.425 167.199 121.05 168.499 122.5C169.799 123.9 170.449 125.7 170.449 127.9C170.449 130.6 169.424 132.8 167.374 134.5C165.324 136.2 162.674 137.05 159.424 137.05Z" fill="white"/>
<path d="M188.842 137.125C186.342 137.125 184.067 136.5 182.017 135.25C180.017 133.95 178.417 132.2 177.217 130C176.067 127.75 175.492 125.25 175.492 122.5C175.492 119.3 176.192 116.375 177.592 113.725C179.042 111.025 180.967 108.9 183.367 107.35C185.767 105.75 188.417 104.95 191.317 104.95C194.567 104.95 197.417 105.825 199.867 107.575C200.467 108.025 200.767 108.5 200.767 109C200.767 109.65 200.392 110.325 199.642 111.025C198.892 111.725 198.192 112.075 197.542 112.075C197.292 112.075 197.042 112 196.792 111.85C196.542 111.65 196.267 111.45 195.967 111.25C194.717 110.3 193.442 109.475 192.142 108.775C190.842 108.075 189.767 107.725 188.917 107.725C186.467 107.725 184.467 108.875 182.917 111.175C181.417 113.475 180.667 116.45 180.667 120.1C180.667 122.4 181.167 124.525 182.167 126.475C183.167 128.375 184.542 129.875 186.292 130.975C188.042 132.075 189.967 132.625 192.067 132.625C193.517 132.625 194.767 132.4 195.817 131.95C196.867 131.45 197.992 130.6 199.192 129.4C199.442 129.15 199.692 129.025 199.942 129.025C200.192 129.025 200.392 129.125 200.542 129.325C200.692 129.525 200.767 129.775 200.767 130.075C200.767 130.625 200.392 131.4 199.642 132.4C198.442 133.95 196.917 135.125 195.067 135.925C193.217 136.725 191.142 137.125 188.842 137.125Z" fill="white"/>
<path d="M217.919 137.125C215.219 137.125 212.819 136.45 210.719 135.1C208.669 133.75 207.069 131.85 205.919 129.4C204.769 126.9 204.194 124.025 204.194 120.775C204.194 117.975 204.844 115.35 206.144 112.9C207.494 110.45 209.269 108.525 211.469 107.125C213.669 105.675 216.069 104.95 218.669 104.95C221.669 104.95 224.119 105.85 226.019 107.65C227.969 109.4 228.944 111.65 228.944 114.4C228.944 115.95 228.194 116.725 226.694 116.725H210.869C210.169 116.725 209.669 116.925 209.369 117.325C209.119 117.675 208.994 118.4 208.994 119.5C208.994 121.85 209.494 124.025 210.494 126.025C211.544 128.025 212.944 129.625 214.694 130.825C216.494 131.975 218.444 132.55 220.544 132.55C223.494 132.55 225.944 131.425 227.894 129.175C228.194 128.775 228.469 128.575 228.719 128.575C229.119 128.575 229.319 128.825 229.319 129.325C229.319 130.275 228.869 131.325 227.969 132.475C226.869 133.925 225.419 135.075 223.619 135.925C221.819 136.725 219.919 137.125 217.919 137.125ZM217.844 114.4C220.194 114.4 222.044 114.275 223.394 114.025C223.794 113.975 223.994 113.425 223.994 112.375C223.994 110.925 223.344 109.7 222.044 108.7C220.794 107.65 219.294 107.125 217.544 107.125C216.444 107.125 215.294 107.475 214.094 108.175C212.944 108.825 211.994 109.65 211.244 110.65C210.494 111.65 210.119 112.65 210.119 113.65C210.119 114.15 210.419 114.4 211.019 114.4H217.844Z" fill="white"/>
<path d="M234.093 136.225C233.093 136.225 232.593 136 232.593 135.55C232.593 135.2 232.718 134.95 232.968 134.8C233.268 134.6 233.718 134.4 234.318 134.2C235.418 133.85 236.218 133.525 236.718 133.225C237.268 132.875 237.543 132.25 237.543 131.35V93.5501C237.543 90.4001 236.393 88.5751 234.093 88.0751C233.893 88.0251 233.743 87.9251 233.643 87.7751C233.543 87.5751 233.493 87.3501 233.493 87.1001C233.493 86.6001 233.668 86.3001 234.018 86.2001C235.968 85.7501 238.193 85.0001 240.693 83.9501L242.493 83.2751C242.693 83.1751 242.843 83.1251 242.943 83.1251C243.043 83.1251 243.118 83.2001 243.168 83.3501C243.268 83.4501 243.318 83.5501 243.318 83.6501C243.318 83.9501 243.218 84.9001 243.018 86.5001C242.868 88.1001 242.793 90.5501 242.793 93.8501V131.35C242.793 132.25 243.043 132.875 243.543 133.225C244.093 133.525 244.918 133.85 246.018 134.2C246.618 134.4 247.043 134.6 247.293 134.8C247.593 134.95 247.743 135.2 247.743 135.55C247.743 136 247.243 136.225 246.243 136.225C244.943 136.225 243.868 136.15 243.018 136C241.918 135.9 240.968 135.85 240.168 135.85C239.368 135.85 238.418 135.9 237.318 136C236.518 136.15 235.443 136.225 234.093 136.225Z" fill="white"/>
<path d="M252.11 136.225C251.11 136.225 250.61 136 250.61 135.55C250.61 135.2 250.735 134.95 250.985 134.8C251.285 134.6 251.735 134.4 252.335 134.2C253.435 133.85 254.235 133.525 254.735 133.225C255.285 132.875 255.56 132.25 255.56 131.35V93.5501C255.56 90.4001 254.41 88.5751 252.11 88.0751C251.91 88.0251 251.76 87.9251 251.66 87.7751C251.56 87.5751 251.51 87.3501 251.51 87.1001C251.51 86.6001 251.685 86.3001 252.035 86.2001C253.985 85.7501 256.21 85.0001 258.71 83.9501L260.51 83.2751C260.71 83.1751 260.86 83.1251 260.96 83.1251C261.06 83.1251 261.135 83.2001 261.185 83.3501C261.285 83.4501 261.335 83.5501 261.335 83.6501C261.335 83.9501 261.235 84.9001 261.035 86.5001C260.885 88.1001 260.81 90.5501 260.81 93.8501V131.35C260.81 132.25 261.06 132.875 261.56 133.225C262.11 133.525 262.935 133.85 264.035 134.2C264.635 134.4 265.06 134.6 265.31 134.8C265.61 134.95 265.76 135.2 265.76 135.55C265.76 136 265.26 136.225 264.26 136.225C262.96 136.225 261.885 136.15 261.035 136C259.935 135.9 258.985 135.85 258.185 135.85C257.385 135.85 256.435 135.9 255.335 136C254.535 136.15 253.46 136.225 252.11 136.225Z" fill="white"/>
<path d="M275.978 137.05C275.128 137.05 274.228 136.7 273.278 136C272.328 135.35 271.528 134.525 270.878 133.525C270.278 132.475 269.978 131.5 269.978 130.6C269.978 129.05 270.378 127.825 271.178 126.925C272.028 126.025 273.403 125.175 275.303 124.375L282.953 121.225C283.903 120.825 284.478 120.475 284.678 120.175C284.878 119.875 285.003 119.225 285.053 118.225L285.203 113.425C285.253 112.075 284.878 110.95 284.078 110.05C283.278 109.1 282.178 108.625 280.778 108.625C280.028 108.625 279.278 108.75 278.528 109C277.778 109.25 277.153 109.575 276.653 109.975C276.153 110.325 275.903 111.05 275.903 112.15L275.978 113.5C275.978 113.9 275.328 114.45 274.028 115.15C272.778 115.8 271.778 116.125 271.028 116.125C270.778 116.125 270.578 116.075 270.428 115.975C270.278 115.825 270.203 115.65 270.203 115.45C270.203 114.65 270.453 113.8 270.953 112.9C271.503 111.95 272.253 111.075 273.203 110.275C274.903 108.725 276.803 107.45 278.903 106.45C281.053 105.45 282.878 104.95 284.378 104.95C286.178 104.95 287.653 105.6 288.803 106.9C290.003 108.15 290.578 109.725 290.528 111.625L290.153 129.625C290.103 130.675 290.328 131.525 290.828 132.175C291.328 132.825 292.003 133.15 292.853 133.15C294.103 133.15 295.028 132.875 295.628 132.325C295.878 132.075 296.078 131.95 296.228 131.95C296.478 131.95 296.678 132.025 296.828 132.175C296.978 132.325 297.053 132.525 297.053 132.775C297.053 132.975 296.978 133.25 296.828 133.6C296.678 133.9 296.478 134.175 296.228 134.425C295.428 135.225 294.553 135.85 293.603 136.3C292.703 136.8 291.853 137.05 291.053 137.05C288.753 137.05 286.928 135.75 285.578 133.15H285.353C283.703 134.5 282.128 135.475 280.628 136.075C279.128 136.725 277.578 137.05 275.978 137.05ZM279.503 133.45C281.253 133.45 282.728 132.85 283.928 131.65C284.228 131.35 284.453 130.975 284.603 130.525C284.753 130.075 284.853 129.425 284.903 128.575L285.053 124.9V124.45C285.053 124.05 285.003 123.775 284.903 123.625C284.803 123.425 284.628 123.325 284.378 123.325C284.078 123.325 283.578 123.45 282.878 123.7C280.378 124.6 278.578 125.55 277.478 126.55C276.378 127.55 275.828 128.525 275.828 129.475C275.828 130.725 276.178 131.7 276.878 132.4C277.628 133.1 278.503 133.45 279.503 133.45Z" fill="white"/>
<path d="M300.459 136.225C299.459 136.225 298.959 135.95 298.959 135.4C298.959 135.05 299.084 134.825 299.334 134.725C299.584 134.575 300.034 134.4 300.684 134.2C301.734 133.95 302.534 133.65 303.084 133.3C303.634 132.9 303.909 132.25 303.909 131.35V115.225C303.909 113.625 303.734 112.4 303.384 111.55C303.034 110.7 302.284 110.125 301.134 109.825C300.634 109.675 300.384 109.35 300.384 108.85C300.384 108.3 300.609 108 301.059 107.95C302.609 107.55 303.909 107.05 304.959 106.45C306.059 105.85 307.259 105.075 308.559 104.125C308.909 103.875 309.184 103.75 309.384 103.75C309.634 103.75 309.759 103.925 309.759 104.275L309.609 105.85C309.559 106.25 309.509 106.75 309.459 107.35C309.409 107.9 309.384 108.475 309.384 109.075C309.384 109.575 309.434 109.875 309.534 109.975C311.334 108.275 313.209 107.025 315.159 106.225C317.109 105.375 319.259 104.95 321.609 104.95C324.009 104.95 326.009 105.95 327.609 107.95C329.259 109.95 330.084 112.425 330.084 115.375V131.35C330.084 132.25 330.334 132.875 330.834 133.225C331.384 133.525 332.209 133.85 333.309 134.2C333.909 134.4 334.334 134.6 334.584 134.8C334.884 134.95 335.034 135.2 335.034 135.55C335.034 136 334.534 136.225 333.534 136.225C332.184 136.225 331.109 136.15 330.309 136C329.309 135.9 328.384 135.85 327.534 135.85C326.734 135.85 325.784 135.9 324.684 136C323.884 136.15 322.784 136.225 321.384 136.225C320.384 136.225 319.884 136 319.884 135.55C319.884 135.2 320.009 134.95 320.259 134.8C320.559 134.6 321.009 134.4 321.609 134.2C322.709 133.85 323.509 133.525 324.009 133.225C324.559 132.875 324.834 132.25 324.834 131.35V115.6C324.834 113.45 324.209 111.75 322.959 110.5C321.759 109.25 320.134 108.6 318.084 108.55C314.984 108.55 312.209 109.55 309.759 111.55C309.359 111.95 309.159 112.525 309.159 113.275V131.35C309.159 132.25 309.434 132.9 309.984 133.3C310.534 133.65 311.334 133.95 312.384 134.2C312.984 134.35 313.409 134.525 313.659 134.725C313.959 134.875 314.109 135.1 314.109 135.4C314.109 135.95 313.609 136.225 312.609 136.225C311.309 136.225 310.234 136.15 309.384 136C308.284 135.9 307.334 135.85 306.534 135.85C305.734 135.85 304.784 135.9 303.684 136C302.884 136.15 301.809 136.225 300.459 136.225Z" fill="white"/>
<path d="M340.083 136.225C339.083 136.225 338.583 135.95 338.583 135.4C338.583 135.05 338.708 134.8 338.958 134.65C339.258 134.5 339.708 134.35 340.308 134.2C341.458 133.9 342.283 133.575 342.783 133.225C343.283 132.825 343.533 132.2 343.533 131.35V115.075C343.533 111.775 342.408 109.95 340.158 109.6C339.658 109.55 339.408 109.225 339.408 108.625C339.408 108.075 339.633 107.775 340.083 107.725C343.133 107.025 345.758 105.775 347.958 103.975C348.408 103.625 348.758 103.45 349.008 103.45C349.308 103.45 349.458 103.575 349.458 103.825C349.458 104.375 349.383 105.325 349.233 106.675C349.183 107.275 349.083 108.4 348.933 110.05C348.833 111.65 348.783 112.95 348.783 113.95V131.35C348.783 132.15 349.033 132.75 349.533 133.15C350.083 133.55 350.908 133.9 352.008 134.2C352.608 134.35 353.033 134.5 353.283 134.65C353.583 134.8 353.733 135.05 353.733 135.4C353.733 135.95 353.233 136.225 352.233 136.225C350.983 136.225 349.933 136.15 349.083 136C347.983 135.9 347.008 135.85 346.158 135.85C345.358 135.85 344.408 135.9 343.308 136C342.508 136.15 341.433 136.225 340.083 136.225ZM346.083 97.3001C345.033 97.3001 344.133 96.9501 343.383 96.2501C342.683 95.5001 342.333 94.6001 342.333 93.5501C342.333 92.4501 342.683 91.5501 343.383 90.8501C344.133 90.1001 345.033 89.7251 346.083 89.7251C347.183 89.7251 348.083 90.1001 348.783 90.8501C349.533 91.5501 349.908 92.4501 349.908 93.5501C349.908 94.6001 349.533 95.5001 348.783 96.2501C348.083 96.9501 347.183 97.3001 346.083 97.3001Z" fill="white"/>
<path d="M371.142 137.125C368.442 137.125 366.042 136.45 363.942 135.1C361.892 133.75 360.292 131.85 359.142 129.4C357.992 126.9 357.417 124.025 357.417 120.775C357.417 117.975 358.067 115.35 359.367 112.9C360.717 110.45 362.492 108.525 364.692 107.125C366.892 105.675 369.292 104.95 371.892 104.95C374.892 104.95 377.342 105.85 379.242 107.65C381.192 109.4 382.167 111.65 382.167 114.4C382.167 115.95 381.417 116.725 379.917 116.725H364.092C363.392 116.725 362.892 116.925 362.592 117.325C362.342 117.675 362.217 118.4 362.217 119.5C362.217 121.85 362.717 124.025 363.717 126.025C364.767 128.025 366.167 129.625 367.917 130.825C369.717 131.975 371.667 132.55 373.767 132.55C376.717 132.55 379.167 131.425 381.117 129.175C381.417 128.775 381.692 128.575 381.942 128.575C382.342 128.575 382.542 128.825 382.542 129.325C382.542 130.275 382.092 131.325 381.192 132.475C380.092 133.925 378.642 135.075 376.842 135.925C375.042 136.725 373.142 137.125 371.142 137.125ZM371.067 114.4C373.417 114.4 375.267 114.275 376.617 114.025C377.017 113.975 377.217 113.425 377.217 112.375C377.217 110.925 376.567 109.7 375.267 108.7C374.017 107.65 372.517 107.125 370.767 107.125C369.667 107.125 368.517 107.475 367.317 108.175C366.167 108.825 365.217 109.65 364.467 110.65C363.717 111.65 363.342 112.65 363.342 113.65C363.342 114.15 363.642 114.4 364.242 114.4H371.067Z" fill="white"/>
<path d="M395.19 137.05C393.64 137.05 392.191 136.8 390.841 136.3C389.491 135.85 388.341 135.2 387.391 134.35C386.991 133.55 386.715 131.55 386.565 128.35C386.565 127.9 386.891 127.675 387.541 127.675C388.091 127.675 388.39 127.85 388.44 128.2C389.04 130.5 390.016 132.225 391.366 133.375C392.766 134.475 394.266 135.025 395.866 135.025C397.316 135.025 398.541 134.55 399.541 133.6C400.591 132.6 401.116 131.375 401.116 129.925C401.116 128.625 400.666 127.5 399.766 126.55C398.916 125.55 397.341 124.325 395.041 122.875C392.441 121.275 390.591 119.8 389.491 118.45C388.441 117.05 387.916 115.425 387.916 113.575C387.916 111.075 388.791 109.025 390.541 107.425C392.291 105.775 394.791 104.95 398.041 104.95C399.441 104.95 400.641 105.1 401.641 105.4C402.691 105.65 403.491 105.975 404.041 106.375C404.441 106.925 404.766 107.8 405.016 109C405.316 110.15 405.466 111.25 405.466 112.3C405.466 112.65 405.216 112.825 404.716 112.825C404.416 112.825 404.115 112.775 403.815 112.675C403.515 112.525 403.341 112.35 403.291 112.15C402.591 110.45 401.741 109.175 400.741 108.325C399.791 107.475 398.616 107.05 397.216 107.05C395.916 107.05 394.791 107.45 393.841 108.25C392.891 109.05 392.416 110.125 392.416 111.475C392.416 112.675 392.766 113.725 393.466 114.625C394.216 115.475 395.591 116.475 397.591 117.625C400.741 119.425 402.966 121.05 404.266 122.5C405.566 123.9 406.216 125.7 406.216 127.9C406.216 130.6 405.191 132.8 403.141 134.5C401.091 136.2 398.44 137.05 395.19 137.05Z" fill="white"/>
<path d="M120.578 0.870117C120.878 0.870117 121.088 1.05012 121.208 1.41012C121.328 1.71011 121.298 1.98012 121.118 2.22012C118.058 5.22012 115.328 8.58012 112.928 12.3001C110.588 15.9601 108.608 19.7401 106.988 23.6401C105.368 27.5401 104.138 31.4101 103.298 35.2501C102.518 39.0301 102.128 42.5101 102.128 45.6901C102.128 48.9301 102.518 51.4801 103.298 53.3401C104.078 55.1401 105.158 56.0401 106.538 56.0401C107.738 56.0401 108.878 55.5901 109.958 54.6901C111.098 53.7901 112.208 52.5301 113.288 50.9101C113.468 50.7901 113.648 50.7901 113.828 50.9101C114.068 51.0301 114.158 51.2401 114.098 51.5401C113.438 52.5601 112.688 53.5801 111.848 54.6001C111.008 55.5601 110.078 56.4601 109.058 57.3001C108.098 58.0801 107.108 58.7401 106.088 59.2801C105.068 59.7601 104.078 60.0001 103.118 60.0001C100.898 60.0001 99.2477 58.9801 98.1677 56.9401C97.0877 54.9001 96.5477 52.1701 96.5477 48.7501C96.5477 45.9301 96.8777 42.8101 97.5377 39.3901C98.1977 35.9101 99.1577 32.3701 100.418 28.7701C101.738 25.1701 103.298 21.6601 105.098 18.2401C106.958 14.7601 109.058 11.6401 111.398 8.88012C107.798 11.5801 104.078 14.8201 100.238 18.6001C96.3977 22.3801 92.6777 26.4301 89.0777 30.7501C85.5377 35.0101 82.2077 39.4201 79.0877 43.9801C76.0277 48.5401 73.4777 52.9801 71.4377 57.3001C71.3177 57.5401 71.0777 57.8401 70.7177 58.2001C70.3577 58.5001 69.9377 58.8001 69.4577 59.1001C68.9777 59.3401 68.4977 59.5501 68.0177 59.7301C67.5377 59.9101 67.1177 60.0001 66.7577 60.0001C66.2777 60.0001 66.0977 59.7901 66.2177 59.3701C67.3577 50.0701 68.9777 41.7901 71.0777 34.5301C73.2377 27.2701 75.7577 20.5801 78.6377 14.4601C73.8377 21.6601 69.1277 28.1101 64.5077 33.8101C59.9477 39.4501 55.3277 44.2201 50.6477 48.1201C46.0277 51.9601 41.3177 54.9001 36.5177 56.9401C31.7177 58.9801 26.7677 60.0001 21.6677 60.0001C16.0277 60.0001 11.6777 58.5901 8.61768 55.7701C5.61768 52.9501 4.11768 49.2301 4.11768 44.6101C4.11768 41.5501 4.98768 38.8201 6.72768 36.4201C8.46768 33.9601 10.8677 32.1601 13.9277 31.0201C14.1677 30.9001 14.3177 30.9601 14.3777 31.2001C14.4977 31.4401 14.4977 31.6501 14.3777 31.8301C12.5177 33.0301 11.1977 34.4101 10.4177 35.9701C9.69768 37.5301 9.33768 39.5701 9.33768 42.0901C9.33768 44.0701 9.66768 45.9601 10.3277 47.7601C10.9877 49.5001 11.9477 51.0601 13.2077 52.4401C14.4677 53.7601 16.0577 54.8101 17.9777 55.5901C19.8977 56.3701 22.1177 56.7601 24.6377 56.7601C29.8577 56.7601 34.8377 55.5601 39.5777 53.1601C44.3777 50.7601 49.0277 47.4901 53.5277 43.3501C58.0877 39.1501 62.5277 34.2301 66.8477 28.5901C71.2277 22.9501 75.5777 16.8901 79.8977 10.4101C75.6977 8.97011 71.2877 7.77011 66.6677 6.81012C62.1077 5.79011 57.6977 5.28011 53.4377 5.28011C48.5777 5.28011 44.8277 6.66011 42.1877 9.42011C39.5477 12.1201 37.9277 15.7801 37.3277 20.4001C37.2077 20.7001 37.0277 20.8201 36.7877 20.7601C36.6077 20.7001 36.4877 20.5201 36.4277 20.2201C37.0877 14.2801 39.2477 9.75012 42.9077 6.63011C46.5677 3.51011 51.3377 1.95011 57.2177 1.95011C59.6177 1.95011 62.1677 2.13011 64.8677 2.49011C67.5677 2.79012 70.2077 3.21012 72.7877 3.75012C75.4277 4.29011 77.9177 4.89011 80.2577 5.55012C82.6577 6.15012 84.7577 6.75011 86.5577 7.35011C86.7977 7.29011 87.0977 7.20012 87.4577 7.08012C87.6977 7.14012 87.8477 7.29012 87.9077 7.53012C87.9677 7.77011 87.9377 7.98011 87.8177 8.16011C86.9777 8.64011 86.2577 9.30011 85.6577 10.1401C85.1177 10.9201 84.5177 11.9101 83.8577 13.1101C80.8577 19.1701 78.4577 25.5001 76.6577 32.1001C74.9177 38.6401 73.4777 45.2701 72.3377 51.9901C75.0977 47.0101 78.3377 42.0301 82.0577 37.0501C85.8377 32.0101 89.8577 27.2401 94.1177 22.7401C98.3777 18.2401 102.758 14.1001 107.258 10.3201C111.818 6.54012 116.258 3.39012 120.578 0.870117Z" fill="white"/>
<path d="M141.939 54.3301C142.059 54.2101 142.209 54.2101 142.389 54.3301C142.569 54.4501 142.629 54.6301 142.569 54.8701C141.489 56.4301 140.289 57.6901 138.969 58.6501C137.649 59.5501 136.389 60.0001 135.189 60.0001C133.809 60.0001 132.909 59.0401 132.489 57.1201C132.129 55.1401 132.339 52.8001 133.119 50.1001C131.499 52.6801 129.729 54.9001 127.809 56.7601C125.949 58.5601 123.969 59.6401 121.869 60.0001C120.429 60.0001 119.319 59.3401 118.539 58.0201C117.759 56.7001 117.369 55.1701 117.369 53.4301C117.369 51.4501 117.849 49.5001 118.809 47.5801C119.769 45.6001 121.029 43.8301 122.589 42.2701C124.209 40.7101 125.979 39.4501 127.899 38.4901C129.879 37.4701 131.859 36.9601 133.839 36.9601C135.939 36.9601 137.589 37.4701 138.789 38.4901C139.389 38.0701 140.139 37.7101 141.039 37.4101C141.999 37.1101 142.839 36.9601 143.559 36.9601C143.799 36.9601 143.919 37.1101 143.919 37.4101C142.539 39.0901 141.339 40.9501 140.319 42.9901C139.359 44.9701 138.609 46.8901 138.069 48.7501C137.529 50.5501 137.199 52.1701 137.079 53.6101C136.959 55.0501 137.079 56.0401 137.439 56.5801C137.739 56.9401 138.249 57.0601 138.969 56.9401C139.689 56.7601 140.679 55.8901 141.939 54.3301ZM124.659 56.6701C125.379 56.6701 126.249 56.2201 127.269 55.3201C128.349 54.4201 129.459 53.2201 130.599 51.7201C131.739 50.2201 132.849 48.5401 133.929 46.6801C135.069 44.8201 136.059 42.9301 136.899 41.0101C136.659 40.2301 136.089 39.6001 135.189 39.1201C134.349 38.6401 133.359 38.4001 132.219 38.4001C130.839 38.4001 129.549 38.7601 128.349 39.4801C127.149 40.1401 126.099 41.1001 125.199 42.3601C124.359 43.5601 123.669 45.0301 123.129 46.7701C122.649 48.4501 122.409 50.3101 122.409 52.3501C122.409 53.6701 122.619 54.7201 123.039 55.5001C123.519 56.2801 124.059 56.6701 124.659 56.6701Z" fill="white"/>
<path d="M172.282 53.7001C172.402 53.5801 172.552 53.6101 172.732 53.7901C172.912 53.9101 172.972 54.0901 172.912 54.3301C171.832 55.8301 170.572 57.1501 169.132 58.2901C167.752 59.4301 166.372 60.0001 164.992 60.0001C163.972 60.0001 163.162 59.6701 162.562 59.0101C162.022 58.3501 161.752 57.4801 161.752 56.4001C161.752 54.3001 162.112 52.0201 162.832 49.5601C163.612 47.1001 164.632 44.6101 165.892 42.0901C166.072 41.6701 166.162 41.2201 166.162 40.7401C166.162 40.1401 165.892 39.8401 165.352 39.8401C163.132 39.8401 160.672 41.3701 157.972 44.4301C155.272 47.4301 152.782 52.2301 150.502 58.8301C150.442 59.0101 150.232 59.1901 149.872 59.3701C149.572 59.4901 149.212 59.6101 148.792 59.7301C148.372 59.7901 147.952 59.8501 147.532 59.9101C147.112 59.9701 146.782 60.0001 146.542 60.0001C146.242 60.0001 146.002 59.9401 145.822 59.8201C145.702 59.7001 145.702 59.4901 145.822 59.1901C146.842 56.6101 147.862 53.7901 148.882 50.7301C149.962 47.6101 150.892 44.4901 151.672 41.3701C151.852 40.7701 151.882 40.3501 151.762 40.1101C151.642 39.8101 151.432 39.6601 151.132 39.6601C150.472 39.6601 149.842 39.9601 149.242 40.5601C148.642 41.1001 148.102 41.7001 147.622 42.3601C147.442 42.4801 147.262 42.4501 147.082 42.2701C146.962 42.0901 146.932 41.9101 146.992 41.7301C147.292 41.3101 147.682 40.8301 148.162 40.2901C148.702 39.7501 149.302 39.2401 149.962 38.7601C150.622 38.2201 151.312 37.8001 152.032 37.5001C152.752 37.1401 153.472 36.9601 154.192 36.9601C155.212 36.9601 155.872 37.2901 156.172 37.9501C156.532 38.5501 156.622 39.3001 156.442 40.2001C156.142 41.5201 155.812 42.7801 155.452 43.9801C155.152 45.1201 154.762 46.4101 154.282 47.8501C155.002 46.5301 155.872 45.2401 156.892 43.9801C157.972 42.6601 159.142 41.4901 160.402 40.4701C161.722 39.3901 163.132 38.5501 164.632 37.9501C166.132 37.2901 167.722 36.9601 169.402 36.9601C170.122 36.9601 170.662 37.1401 171.022 37.5001C171.442 37.8601 171.652 38.2801 171.652 38.7601C171.652 39.6001 171.442 40.3501 171.022 41.0101C169.762 43.2901 168.682 45.6601 167.782 48.1201C166.942 50.5201 166.522 52.6801 166.522 54.6001C166.522 56.1601 167.032 56.9401 168.052 56.9401C168.712 56.9401 169.372 56.6701 170.032 56.1301C170.692 55.5901 171.442 54.7801 172.282 53.7001Z" fill="white"/>
<path d="M179.686 60.0001C177.166 60.0001 175.906 58.6201 175.906 55.8601C175.906 54.9001 175.996 53.7901 176.176 52.5301C176.416 51.2701 176.746 49.9801 177.166 48.6601C177.646 47.2801 178.186 45.9001 178.786 44.5201C179.386 43.1401 180.106 41.8201 180.946 40.5601C180.286 40.9801 179.656 41.4301 179.056 41.9101C178.456 42.3301 177.916 42.7801 177.436 43.2601C177.256 43.3801 177.076 43.3501 176.896 43.1701C176.776 42.9301 176.776 42.7201 176.896 42.5401C177.916 41.4601 179.356 40.3501 181.216 39.2101C183.136 38.0701 184.966 37.1701 186.706 36.5101C187.006 36.5101 187.216 36.6001 187.336 36.7801C187.516 36.9001 187.546 37.0801 187.426 37.3201C185.506 39.8401 183.946 42.5701 182.746 45.5101C181.606 48.4501 181.036 51.3001 181.036 54.0601C181.036 55.8001 181.576 56.6701 182.656 56.6701C183.436 56.6701 184.396 56.1601 185.536 55.1401C186.676 54.0601 187.876 52.6801 189.136 51.0001C190.396 49.2601 191.656 47.3101 192.916 45.1501C194.236 42.9901 195.436 40.8001 196.516 38.5801C196.696 38.2201 197.206 37.8601 198.046 37.5001C198.946 37.1401 199.846 36.9601 200.746 36.9601C201.646 36.9601 201.916 37.2001 201.556 37.6801C200.716 39.2401 199.966 40.7101 199.306 42.0901C198.706 43.4101 198.196 44.7301 197.776 46.0501C197.356 47.3701 197.026 48.7201 196.786 50.1001C196.606 51.4201 196.516 52.8901 196.516 54.5101C196.516 56.4301 197.026 57.3901 198.046 57.3901C199.066 57.3901 200.206 56.4901 201.466 54.6901C201.646 54.5701 201.826 54.5701 202.006 54.6901C202.186 54.8101 202.246 54.9901 202.186 55.2301C201.166 56.7901 200.026 57.9901 198.766 58.8301C197.566 59.6101 196.456 60.0001 195.436 60.0001C192.916 60.0001 191.656 58.5301 191.656 55.5901C191.656 52.5301 192.196 49.5001 193.276 46.5001C190.996 50.6401 188.596 53.9401 186.076 56.4001C183.556 58.8001 181.426 60.0001 179.686 60.0001Z" fill="white"/>
<path d="M216.859 36.9601C218.179 36.9601 219.229 37.1401 220.009 37.5001C220.849 37.8601 221.269 38.3101 221.269 38.8501C221.269 39.5101 221.089 40.2601 220.729 41.1001C220.429 41.9401 220.129 42.6301 219.829 43.1701C219.709 43.2901 219.559 43.3201 219.379 43.2601C219.199 43.1401 219.109 42.9601 219.109 42.7201C219.289 42.3001 219.379 41.7001 219.379 40.9201C219.379 40.0801 219.139 39.3901 218.659 38.8501C218.239 38.3101 217.639 38.0401 216.859 38.0401C215.839 38.0401 214.999 38.3701 214.339 39.0301C213.739 39.6301 213.439 40.5001 213.439 41.6401C213.439 42.6001 213.679 43.5301 214.159 44.4301C214.699 45.2701 215.269 46.1401 215.869 47.0401C216.529 47.8801 217.129 48.8101 217.669 49.8301C218.209 50.7901 218.479 51.9001 218.479 53.1601C218.479 55.3201 217.609 57.0001 215.869 58.2001C214.129 59.4001 211.849 60.0001 209.029 60.0001C206.989 60.0001 205.369 59.6701 204.169 59.0101C203.029 58.3501 202.459 57.6301 202.459 56.8501C202.459 56.6101 202.549 56.2801 202.729 55.8601C202.909 55.4401 203.149 54.9901 203.449 54.5101C203.749 54.0301 204.079 53.5501 204.439 53.0701C204.799 52.5901 205.189 52.2001 205.609 51.9001C205.789 51.7801 205.939 51.8101 206.059 51.9901C206.239 52.1701 206.269 52.3501 206.149 52.5301C205.789 52.8901 205.519 53.2801 205.339 53.7001C205.159 54.0601 205.069 54.5701 205.069 55.2301C205.069 56.3101 205.429 57.2101 206.149 57.9301C206.869 58.5901 207.799 58.9201 208.939 58.9201C210.499 58.9201 211.699 58.5001 212.539 57.6601C213.439 56.7601 213.889 55.6801 213.889 54.4201C213.889 53.2801 213.619 52.2301 213.079 51.2701C212.599 50.2501 212.059 49.2901 211.459 48.3901C210.859 47.4301 210.289 46.4701 209.749 45.5101C209.269 44.5501 209.029 43.5301 209.029 42.4501C209.029 40.8901 209.689 39.6001 211.009 38.5801C212.329 37.5001 214.279 36.9601 216.859 36.9601Z" fill="white"/>
<path d="M239.274 45.0601C238.914 45.1801 238.734 45.0301 238.734 44.6101C239.154 43.3501 239.064 42.2401 238.464 41.2801C237.924 40.3201 236.904 39.8401 235.404 39.8401C233.484 39.8401 231.924 41.0401 230.724 43.4401C229.584 45.8401 229.014 48.9601 229.014 52.8001C229.014 55.6201 230.124 57.0301 232.344 57.0301C233.364 57.0301 234.474 56.6701 235.674 55.9501C236.934 55.1701 238.074 54.1801 239.094 52.9801C239.334 52.8601 239.544 52.8901 239.724 53.0701C239.904 53.2501 239.934 53.4601 239.814 53.7001C238.314 55.6201 236.634 57.1501 234.774 58.2901C232.914 59.4301 230.934 60.0001 228.834 60.0001C227.514 60.0001 226.404 59.5501 225.504 58.6501C224.604 57.6901 224.154 56.3701 224.154 54.6901C224.154 52.5901 224.574 50.4901 225.414 48.3901C226.314 46.2301 227.454 44.3101 228.834 42.6301C230.214 40.9501 231.714 39.6001 233.334 38.5801C234.954 37.5001 236.544 36.9601 238.104 36.9601C239.484 36.9601 240.564 37.3501 241.344 38.1301C242.124 38.9101 242.514 39.7801 242.514 40.7401C242.514 41.1001 242.394 41.4901 242.154 41.9101C241.974 42.3301 241.704 42.7501 241.344 43.1701C241.044 43.5901 240.684 43.9801 240.264 44.3401C239.904 44.7001 239.574 44.9401 239.274 45.0601Z" fill="white"/>
<path d="M254.26 39.5701C254.26 40.4701 254.17 41.4901 253.99 42.6301C253.81 43.7701 253.57 44.9401 253.27 46.1401C254.47 43.2601 255.79 41.0101 257.23 39.3901C258.67 37.7701 260.23 36.9601 261.91 36.9601C262.81 36.9601 263.5 37.1701 263.98 37.5901C264.46 38.0101 264.7 38.5501 264.7 39.2101C264.7 39.8101 264.46 40.5901 263.98 41.5501C263.56 42.5101 263.2 43.1701 262.9 43.5301C262.78 43.5901 262.66 43.5901 262.54 43.5301C262.42 43.4101 262.36 43.2901 262.36 43.1701C262.36 42.7501 262.18 42.3901 261.82 42.0901C261.52 41.7901 261.04 41.6401 260.38 41.6401C258.28 41.6401 256.36 43.0801 254.62 45.9601C252.94 48.7801 251.38 52.8601 249.94 58.2001C249.88 58.5001 249.67 58.7701 249.31 59.0101C248.95 59.1901 248.53 59.3701 248.05 59.5501C247.63 59.6701 247.18 59.7901 246.7 59.9101C246.22 59.9701 245.8 60.0001 245.44 60.0001C244.78 60.0001 244.6 59.6401 244.9 58.9201C245.44 57.6601 245.95 56.3101 246.43 54.8701C246.97 53.3701 247.45 51.8701 247.87 50.3701C248.29 48.8701 248.65 47.4301 248.95 46.0501C249.25 44.6101 249.49 43.2901 249.67 42.0901C249.79 41.1901 249.82 40.5001 249.76 40.0201C249.76 39.5401 249.52 39.3001 249.04 39.3001C248.44 39.3001 247.81 39.5701 247.15 40.1101C246.55 40.5901 245.98 41.2201 245.44 42.0001C245.2 42.1801 244.96 42.2101 244.72 42.0901C244.54 41.9101 244.51 41.7001 244.63 41.4601C244.99 40.9801 245.41 40.5001 245.89 40.0201C246.43 39.4801 247 39.0001 247.6 38.5801C248.26 38.1001 248.92 37.7101 249.58 37.4101C250.3 37.1101 251.02 36.9601 251.74 36.9601C252.7 36.9601 253.36 37.2001 253.72 37.6801C254.08 38.1001 254.26 38.7301 254.26 39.5701Z" fill="white"/>
<path d="M275.402 33.0901C275.222 33.2701 275.012 33.2701 274.772 33.0901C274.592 32.9101 274.442 32.6701 274.322 32.3701C274.202 32.0101 274.142 31.6501 274.142 31.2901C274.142 30.8701 274.232 30.5101 274.412 30.2101C275.072 29.3701 276.032 28.3201 277.292 27.0601C278.612 25.7401 279.962 24.6301 281.342 23.7301C281.462 23.6701 281.612 23.7301 281.792 23.9101C281.972 24.0301 282.032 24.1501 281.972 24.2701C280.712 25.4101 279.512 26.7901 278.372 28.4101C277.232 29.9701 276.242 31.5301 275.402 33.0901ZM265.772 43.2601C265.592 43.3801 265.442 43.3501 265.322 43.1701C265.202 42.9301 265.172 42.7201 265.232 42.5401C267.452 40.7401 270.542 38.8801 274.502 36.9601C274.982 36.9601 275.222 37.2301 275.222 37.7701C274.442 39.1501 273.662 40.6501 272.882 42.2701C272.162 43.8901 271.502 45.5101 270.902 47.1301C270.362 48.6901 269.912 50.2201 269.552 51.7201C269.192 53.1601 269.012 54.3601 269.012 55.3201C269.012 56.5201 269.432 57.1201 270.272 57.1201C270.932 57.1201 271.562 56.8501 272.162 56.3101C272.822 55.7101 273.572 54.9601 274.412 54.0601C274.532 53.9401 274.682 53.9701 274.862 54.1501C275.042 54.2701 275.072 54.4801 274.952 54.7801C273.632 56.3401 272.312 57.6001 270.992 58.5601C269.732 59.5201 268.502 60.0001 267.302 60.0001C265.202 60.0001 264.152 59.0101 264.152 57.0301C264.152 55.9501 264.302 54.6901 264.602 53.2501C264.962 51.7501 265.412 50.2501 265.952 48.7501C266.552 47.1901 267.182 45.6901 267.842 44.2501C268.562 42.7501 269.282 41.4601 270.002 40.3801C269.342 40.7401 268.592 41.1901 267.752 41.7301C266.972 42.2701 266.312 42.7801 265.772 43.2601Z" fill="white"/>
<path d="M297.274 36.9601C298.594 36.9601 299.644 37.6201 300.424 38.9401C301.264 40.2001 301.684 41.7001 301.684 43.4401C301.684 45.9001 301.174 48.1501 300.154 50.1901C299.194 52.1701 297.904 53.9101 296.284 55.4101C294.664 56.8501 292.804 57.9901 290.704 58.8301C288.604 59.6101 286.474 60.0001 284.314 60.0001C283.294 60.0001 282.424 59.8801 281.704 59.6401C280.684 62.5801 279.754 65.7301 278.914 69.0901C278.134 72.4501 277.744 75.5701 277.744 78.4501C277.744 79.8301 278.404 80.3701 279.724 80.0701C280.204 80.0101 280.654 79.8901 281.074 79.7101C281.554 79.5301 282.004 79.2901 282.424 78.9901C282.664 78.9901 282.784 79.1101 282.784 79.3501C282.844 79.5901 282.814 79.8301 282.694 80.0701C282.334 80.2501 281.794 80.4301 281.074 80.6101C280.414 80.8501 279.694 81.0601 278.914 81.2401C278.134 81.4801 277.354 81.6601 276.574 81.7801C275.794 81.9001 275.134 81.9601 274.594 81.9601C274.114 81.9601 273.724 81.8401 273.424 81.6001C273.124 81.3601 272.974 81.0001 272.974 80.5201C272.974 77.4601 273.484 73.8901 274.504 69.8101C275.464 65.7901 276.724 61.6201 278.284 57.3001C277.924 56.8201 277.714 56.4301 277.654 56.1301C277.594 55.8901 278.044 55.6201 279.004 55.3201C279.784 53.1601 280.624 51.0001 281.524 48.8401C282.424 46.6801 283.324 44.5501 284.224 42.4501C285.364 39.9901 285.874 38.4601 285.754 37.8601C285.694 37.2601 285.334 37.1401 284.674 37.5001C283.774 37.9801 282.784 38.8201 281.704 40.0201C281.584 40.1401 281.434 40.1101 281.254 39.9301C281.134 39.6901 281.104 39.5101 281.164 39.3901C281.584 38.9101 282.124 38.4001 282.784 37.8601C283.444 37.2601 284.134 36.7201 284.854 36.2401C285.634 35.7601 286.384 35.3701 287.104 35.0701C287.824 34.7101 288.454 34.5301 288.994 34.5301C289.654 34.5301 290.074 34.8301 290.254 35.4301C290.494 35.9701 290.464 36.5701 290.164 37.2301C289.384 39.3301 288.364 41.7001 287.104 44.3401C287.704 43.5001 288.394 42.6601 289.174 41.8201C289.954 40.9201 290.764 40.1101 291.604 39.3901C292.504 38.6701 293.434 38.1001 294.394 37.6801C295.354 37.2001 296.314 36.9601 297.274 36.9601ZM286.564 58.2001C288.004 58.2001 289.354 57.9301 290.614 57.3901C291.874 56.7901 292.954 55.9501 293.854 54.8701C294.814 53.7301 295.564 52.3501 296.104 50.7301C296.704 49.0501 297.004 47.1301 297.004 44.9701C297.004 43.5301 296.734 42.3601 296.194 41.4601C295.654 40.5601 294.874 40.1101 293.854 40.1101C292.474 40.1101 290.824 41.3401 288.904 43.8001C286.984 46.2601 285.214 49.7101 283.594 54.1501C283.414 54.6301 283.234 55.1401 283.054 55.6801C282.874 56.1601 282.694 56.6701 282.514 57.2101C283.474 57.8701 284.824 58.2001 286.564 58.2001Z" fill="white"/>
<path d="M322.557 37.4101C322.857 37.5301 322.977 37.7101 322.917 37.9501C322.857 38.1301 322.587 38.2801 322.107 38.4001C321.207 38.4001 320.157 38.4301 318.957 38.4901C317.817 38.5501 316.587 38.6401 315.267 38.7601C314.067 41.7001 313.077 44.5801 312.297 47.4001C311.517 50.1601 311.127 52.4101 311.127 54.1501C311.127 56.1901 311.907 57.2101 313.467 57.2101C315.027 57.2101 316.767 55.8601 318.687 53.1601C318.867 53.0401 319.017 53.0401 319.137 53.1601C319.317 53.2801 319.377 53.4901 319.317 53.7901C318.297 55.4701 317.007 56.9401 315.447 58.2001C313.887 59.4001 312.357 60.0001 310.857 60.0001C309.297 60.0001 308.127 59.6401 307.347 58.9201C306.627 58.1401 306.267 57.0901 306.267 55.7701C306.267 54.0301 306.687 51.6301 307.527 48.5701C308.367 45.5101 309.447 42.3901 310.767 39.2101C309.207 39.3901 307.767 39.6301 306.447 39.9301C306.147 39.8701 306.057 39.7201 306.177 39.4801C306.357 39.2401 306.627 39.0001 306.987 38.7601C307.407 38.4601 307.887 38.2201 308.427 38.0401C308.967 37.8001 309.477 37.6801 309.957 37.6801C310.197 37.6801 310.437 37.6801 310.677 37.6801C310.917 37.6801 311.157 37.6501 311.397 37.5901C312.177 35.8501 312.987 34.1701 313.827 32.5501C314.667 30.9301 315.507 29.4601 316.347 28.1401C316.707 27.7201 317.187 27.3601 317.787 27.0601C318.447 26.7001 319.077 26.4301 319.677 26.2501C320.277 26.0701 320.757 25.9801 321.117 25.9801C321.537 25.9201 321.717 26.0101 321.657 26.2501C320.637 27.8101 319.617 29.5501 318.597 31.4701C317.637 33.3901 316.707 35.4001 315.807 37.5001C316.947 37.4401 318.087 37.4101 319.227 37.4101C320.427 37.4101 321.537 37.4101 322.557 37.4101Z" fill="white"/>
<path d="M403.909 12.6601C403.909 17.2801 402.829 21.5701 400.669 25.5301C398.569 29.4301 395.779 33.2401 392.299 36.9601C388.879 40.6201 385.009 44.3401 380.689 48.1201C376.369 51.8401 372.019 55.8301 367.639 60.0901C366.559 60.0901 366.289 59.1601 366.829 57.3001C367.969 53.8201 368.899 50.1301 369.619 46.2301C370.339 42.3301 370.789 38.4601 370.969 34.6201C371.149 30.7801 371.029 27.1201 370.609 23.6401C370.189 20.1601 369.409 17.1001 368.269 14.4601C367.189 11.7601 365.689 9.63012 363.769 8.07012C361.849 6.45011 359.479 5.64011 356.659 5.64011C352.579 5.64011 349.219 7.26011 346.579 10.5001C343.939 13.6801 341.779 18.5701 340.099 25.1701C339.979 25.4101 339.799 25.5001 339.559 25.4401C339.319 25.3801 339.199 25.2301 339.199 24.9901C339.979 21.6301 340.939 18.5401 342.079 15.7201C343.279 12.9001 344.689 10.5001 346.309 8.52011C347.989 6.48012 349.939 4.89012 352.159 3.75012C354.379 2.61011 356.929 2.04011 359.809 2.04011C362.569 2.04011 364.939 2.73011 366.919 4.11011C368.899 5.49011 370.549 7.38011 371.869 9.78011C373.189 12.1801 374.149 15.0301 374.749 18.3301C375.349 21.5701 375.649 25.1101 375.649 28.9501C375.649 32.7301 375.319 36.7201 374.659 40.9201C374.059 45.0601 373.189 49.2301 372.049 53.4301C376.249 49.9501 380.029 46.6801 383.389 43.6201C386.749 40.5601 389.569 37.5601 391.849 34.6201C394.129 31.6201 395.869 28.5901 397.069 25.5301C398.329 22.4701 398.959 19.2001 398.959 15.7201C398.959 12.9001 398.359 10.6201 397.159 8.88012C395.959 7.14012 394.489 6.27012 392.749 6.27012C391.669 6.27012 390.799 6.54012 390.139 7.08012C389.539 7.56011 388.999 8.34011 388.519 9.42011C387.919 9.66011 387.619 9.45011 387.619 8.79012C387.919 7.95012 388.339 7.14012 388.879 6.36012C389.479 5.52012 390.079 4.80012 390.679 4.20012C391.339 3.54011 391.999 3.03011 392.659 2.67012C393.319 2.25011 393.919 2.04011 394.459 2.04011C395.899 2.04011 397.189 2.34011 398.329 2.94012C399.529 3.54012 400.519 4.35011 401.299 5.37011C402.139 6.33011 402.769 7.47012 403.189 8.79012C403.669 10.0501 403.909 11.3401 403.909 12.6601Z" fill="white"/>
<path d="M416.719 41.4601C416.719 44.8801 412.189 47.2201 403.129 48.4801C403.069 49.0801 403.009 49.6801 402.949 50.2801C402.949 50.8801 402.949 51.5101 402.949 52.1701C402.949 53.7301 403.309 54.9301 404.029 55.7701C404.749 56.6101 405.889 57.0301 407.449 57.0301C408.589 57.0301 409.759 56.7001 410.959 56.0401C412.159 55.3801 413.119 54.5401 413.839 53.5201C414.079 53.4001 414.259 53.4601 414.379 53.7001C414.499 53.8801 414.529 54.0901 414.469 54.3301C413.269 55.8901 411.739 57.2401 409.879 58.3801C408.079 59.4601 406.129 60.0001 404.029 60.0001C401.929 60.0001 400.399 59.4901 399.439 58.4701C398.539 57.3901 398.089 55.8901 398.089 53.9701C398.089 52.1101 398.479 50.1901 399.259 48.2101C400.039 46.1701 401.029 44.3101 402.229 42.6301C403.489 40.9501 404.899 39.6001 406.459 38.5801C408.079 37.5001 409.699 36.9601 411.319 36.9601C412.939 36.9601 414.229 37.4401 415.189 38.4001C416.209 39.3001 416.719 40.3201 416.719 41.4601ZM408.889 39.3001C407.509 39.3001 406.309 39.9601 405.289 41.2801C404.329 42.5401 403.669 44.5201 403.309 47.2201C406.189 46.9201 408.319 46.3801 409.699 45.6001C411.079 44.7601 411.769 43.7401 411.769 42.5401C411.769 41.6401 411.499 40.8901 410.959 40.2901C410.419 39.6301 409.729 39.3001 408.889 39.3001Z" fill="white"/>
<path d="M428.987 39.5701C428.987 40.4701 428.897 41.4901 428.717 42.6301C428.537 43.7701 428.297 44.9401 427.997 46.1401C429.197 43.2601 430.517 41.0101 431.957 39.3901C433.397 37.7701 434.957 36.9601 436.637 36.9601C437.537 36.9601 438.227 37.1701 438.707 37.5901C439.187 38.0101 439.427 38.5501 439.427 39.2101C439.427 39.8101 439.187 40.5901 438.707 41.5501C438.287 42.5101 437.927 43.1701 437.627 43.5301C437.507 43.5901 437.387 43.5901 437.267 43.5301C437.147 43.4101 437.087 43.2901 437.087 43.1701C437.087 42.7501 436.907 42.3901 436.547 42.0901C436.247 41.7901 435.767 41.6401 435.107 41.6401C433.007 41.6401 431.087 43.0801 429.347 45.9601C427.667 48.7801 426.107 52.8601 424.667 58.2001C424.607 58.5001 424.397 58.7701 424.037 59.0101C423.677 59.1901 423.257 59.3701 422.777 59.5501C422.357 59.6701 421.907 59.7901 421.427 59.9101C420.947 59.9701 420.527 60.0001 420.167 60.0001C419.507 60.0001 419.327 59.6401 419.627 58.9201C420.167 57.6601 420.677 56.3101 421.157 54.8701C421.697 53.3701 422.177 51.8701 422.597 50.3701C423.017 48.8701 423.377 47.4301 423.677 46.0501C423.977 44.6101 424.217 43.2901 424.397 42.0901C424.517 41.1901 424.547 40.5001 424.487 40.0201C424.487 39.5401 424.247 39.3001 423.767 39.3001C423.167 39.3001 422.537 39.5701 421.877 40.1101C421.277 40.5901 420.707 41.2201 420.167 42.0001C419.927 42.1801 419.687 42.2101 419.447 42.0901C419.267 41.9101 419.237 41.7001 419.357 41.4601C419.717 40.9801 420.137 40.5001 420.617 40.0201C421.157 39.4801 421.727 39.0001 422.327 38.5801C422.987 38.1001 423.647 37.7101 424.307 37.4101C425.027 37.1101 425.747 36.9601 426.467 36.9601C427.427 36.9601 428.087 37.2001 428.447 37.6801C428.807 38.1001 428.987 38.7301 428.987 39.5701Z" fill="white"/>
<path d="M449.769 36.9601C451.089 36.9601 452.139 37.1401 452.919 37.5001C453.759 37.8601 454.179 38.3101 454.179 38.8501C454.179 39.5101 453.999 40.2601 453.639 41.1001C453.339 41.9401 453.039 42.6301 452.739 43.1701C452.619 43.2901 452.469 43.3201 452.289 43.2601C452.109 43.1401 452.019 42.9601 452.019 42.7201C452.199 42.3001 452.289 41.7001 452.289 40.9201C452.289 40.0801 452.049 39.3901 451.569 38.8501C451.149 38.3101 450.549 38.0401 449.769 38.0401C448.749 38.0401 447.909 38.3701 447.249 39.0301C446.649 39.6301 446.349 40.5001 446.349 41.6401C446.349 42.6001 446.589 43.5301 447.069 44.4301C447.609 45.2701 448.179 46.1401 448.779 47.0401C449.439 47.8801 450.039 48.8101 450.579 49.8301C451.119 50.7901 451.389 51.9001 451.389 53.1601C451.389 55.3201 450.519 57.0001 448.779 58.2001C447.039 59.4001 444.759 60.0001 441.939 60.0001C439.899 60.0001 438.279 59.6701 437.079 59.0101C435.939 58.3501 435.369 57.6301 435.369 56.8501C435.369 56.6101 435.459 56.2801 435.639 55.8601C435.819 55.4401 436.059 54.9901 436.359 54.5101C436.659 54.0301 436.989 53.5501 437.349 53.0701C437.709 52.5901 438.099 52.2001 438.519 51.9001C438.699 51.7801 438.849 51.8101 438.969 51.9901C439.149 52.1701 439.179 52.3501 439.059 52.5301C438.699 52.8901 438.429 53.2801 438.249 53.7001C438.069 54.0601 437.979 54.5701 437.979 55.2301C437.979 56.3101 438.339 57.2101 439.059 57.9301C439.779 58.5901 440.709 58.9201 441.849 58.9201C443.409 58.9201 444.609 58.5001 445.449 57.6601C446.349 56.7601 446.799 55.6801 446.799 54.4201C446.799 53.2801 446.529 52.2301 445.989 51.2701C445.509 50.2501 444.969 49.2901 444.369 48.3901C443.769 47.4301 443.199 46.4701 442.659 45.5101C442.179 44.5501 441.939 43.5301 441.939 42.4501C441.939 40.8901 442.599 39.6001 443.919 38.5801C445.239 37.5001 447.189 36.9601 449.769 36.9601Z" fill="white"/>
<path d="M475.694 41.4601C475.694 44.8801 471.164 47.2201 462.104 48.4801C462.044 49.0801 461.984 49.6801 461.924 50.2801C461.924 50.8801 461.924 51.5101 461.924 52.1701C461.924 53.7301 462.284 54.9301 463.004 55.7701C463.724 56.6101 464.864 57.0301 466.424 57.0301C467.564 57.0301 468.734 56.7001 469.934 56.0401C471.134 55.3801 472.094 54.5401 472.814 53.5201C473.054 53.4001 473.234 53.4601 473.354 53.7001C473.474 53.8801 473.504 54.0901 473.444 54.3301C472.244 55.8901 470.714 57.2401 468.854 58.3801C467.054 59.4601 465.104 60.0001 463.004 60.0001C460.904 60.0001 459.374 59.4901 458.414 58.4701C457.514 57.3901 457.064 55.8901 457.064 53.9701C457.064 52.1101 457.454 50.1901 458.234 48.2101C459.014 46.1701 460.004 44.3101 461.204 42.6301C462.464 40.9501 463.874 39.6001 465.434 38.5801C467.054 37.5001 468.674 36.9601 470.294 36.9601C471.914 36.9601 473.204 37.4401 474.164 38.4001C475.184 39.3001 475.694 40.3201 475.694 41.4601ZM467.864 39.3001C466.484 39.3001 465.284 39.9601 464.264 41.2801C463.304 42.5401 462.644 44.5201 462.284 47.2201C465.164 46.9201 467.294 46.3801 468.674 45.6001C470.054 44.7601 470.744 43.7401 470.744 42.5401C470.744 41.6401 470.474 40.8901 469.934 40.2901C469.394 39.6301 468.704 39.3001 467.864 39.3001Z" fill="white"/>
</g>
<defs>
<filter id="filter0_d" x="0.117676" y="0.870117" width="479.576" height="144.255" filterUnits="userSpaceOnUse" color-interpolation-filters="sRGB">
<feFlood flood-opacity="0" result="BackgroundImageFix"/>
<feColorMatrix in="SourceAlpha" type="matrix" values="0 0 0 0 0 0 0 0 0 0 0 0 0 0 0 0 0 0 127 0"/>
<feOffset dy="4"/>
<feGaussianBlur stdDeviation="2"/>
<feColorMatrix type="matrix" values="0 0 0 0 0 0 0 0 0 0 0 0 0 0 0 0 0 0 0.25 0"/>
<feBlend mode="normal" in2="BackgroundImageFix" result="effect1_dropShadow"/>
<feBlend mode="normal" in="SourceGraphic" in2="effect1_dropShadow" result="shape"/>
</filter>
</defs>
</svg>
