<svg width="645" height="194" viewBox="0 0 645 194" fill="none" xmlns="http://www.w3.org/2000/svg">
<path d="M0 106H255M389 106L645 106" stroke="#FEFEFE" stroke-opacity="0.6" stroke-width="2"/>
<g filter="url(#filter0_d)">
<path d="M149.062 184.5C147.612 184.5 146.887 184.225 146.887 183.675C146.887 183.325 147.087 183.05 147.487 182.85C147.887 182.65 148.512 182.475 149.362 182.325C151.962 181.875 153.512 179.925 154.012 176.475C156.062 161.075 157.087 150.425 157.087 144.525C157.087 143.375 157.062 142.55 157.012 142.05C156.962 141.5 156.862 141.05 156.712 140.7C156.612 140.3 156.337 139.925 155.887 139.575C155.087 138.875 154.287 138.4 153.487 138.15C152.737 137.9 151.662 137.625 150.262 137.325C149.762 137.225 149.362 137.05 149.062 136.8C148.762 136.5 148.612 136.175 148.612 135.825C148.612 135.475 148.812 135.25 149.212 135.15C149.662 135.05 150.312 135 151.162 135C151.812 135 153.687 135.1 156.787 135.3C159.887 135.5 161.762 135.6 162.412 135.6C163.112 135.6 163.587 136 163.837 136.8L164.362 138.75C164.812 140.55 165.187 141.825 165.487 142.575L177.337 172.65C177.487 173.1 177.812 173.325 178.312 173.325C178.662 173.325 178.912 173.175 179.062 172.875L193.837 142.125C194.437 139.875 194.887 138 195.187 136.5C195.337 135.85 195.587 135.525 195.937 135.525H198.637C199.387 135.525 201.187 135.4 204.037 135.15C205.337 135 206.387 134.925 207.187 134.925C208.237 134.925 208.762 135.175 208.762 135.675C208.762 136.025 208.612 136.3 208.312 136.5C208.062 136.7 207.562 136.95 206.812 137.25C206.362 137.4 205.762 137.625 205.012 137.925C204.262 138.225 203.387 138.575 202.387 138.975C201.837 139.225 201.387 139.575 201.037 140.025C200.737 140.475 200.587 140.975 200.587 141.525C200.587 145.925 200.662 150.05 200.812 153.9C201.012 157.75 201.287 162.25 201.637 167.4C201.937 171.5 202.137 174.7 202.237 177C202.287 178.55 202.762 179.75 203.662 180.6C204.562 181.4 205.962 181.975 207.862 182.325C208.712 182.475 209.337 182.65 209.737 182.85C210.137 183.05 210.337 183.325 210.337 183.675C210.337 184.225 209.612 184.5 208.162 184.5C206.312 184.5 204.712 184.425 203.362 184.275C201.762 184.175 200.437 184.125 199.387 184.125C198.537 184.125 197.412 184.175 196.012 184.275C194.912 184.425 193.412 184.5 191.512 184.5C190.062 184.5 189.337 184.225 189.337 183.675C189.337 182.975 190.162 182.525 191.812 182.325C193.262 182.125 194.262 181.625 194.812 180.825C195.362 180.025 195.637 178.725 195.637 176.925C195.637 171.825 195.537 167.125 195.337 162.825C195.187 158.475 195.087 155.9 195.037 155.1C194.937 153.85 194.837 151.925 194.737 149.325C194.687 148.825 194.537 148.575 194.287 148.575C194.087 148.575 193.837 148.825 193.537 149.325L176.287 184.5C176.237 184.8 176.012 184.95 175.612 184.95C175.312 184.95 175.087 184.775 174.937 184.425C171.487 174.175 166.887 162.3 161.137 148.8C161.037 148.55 160.862 148.425 160.612 148.425C160.362 148.425 160.212 148.55 160.162 148.8C159.262 155.45 158.637 160.575 158.287 164.175C157.937 167.775 157.762 171.875 157.762 176.475C157.762 177.875 158.187 179.125 159.037 180.225C159.937 181.325 161.137 182.025 162.637 182.325C163.487 182.475 164.112 182.65 164.512 182.85C164.912 183.05 165.112 183.325 165.112 183.675C165.112 184.225 164.387 184.5 162.937 184.5C161.087 184.5 159.662 184.425 158.662 184.275C157.662 184.175 156.737 184.125 155.887 184.125C155.137 184.125 154.262 184.175 153.262 184.275C151.312 184.425 149.912 184.5 149.062 184.5Z" fill="white"/>
<path d="M216.365 184.35C215.365 184.35 214.865 184.075 214.865 183.525C214.865 183.175 214.99 182.925 215.24 182.775C215.54 182.625 215.99 182.475 216.59 182.325C217.74 182.025 218.565 181.7 219.065 181.35C219.565 180.95 219.815 180.325 219.815 179.475V163.2C219.815 159.9 218.69 158.075 216.44 157.725C215.94 157.675 215.69 157.35 215.69 156.75C215.69 156.2 215.915 155.9 216.365 155.85C219.415 155.15 222.04 153.9 224.24 152.1C224.69 151.75 225.04 151.575 225.29 151.575C225.59 151.575 225.74 151.7 225.74 151.95C225.74 152.5 225.665 153.45 225.515 154.8C225.465 155.4 225.365 156.525 225.215 158.175C225.115 159.775 225.065 161.075 225.065 162.075V179.475C225.065 180.275 225.315 180.875 225.815 181.275C226.365 181.675 227.19 182.025 228.29 182.325C228.89 182.475 229.315 182.625 229.565 182.775C229.865 182.925 230.015 183.175 230.015 183.525C230.015 184.075 229.515 184.35 228.515 184.35C227.265 184.35 226.215 184.275 225.365 184.125C224.265 184.025 223.29 183.975 222.44 183.975C221.64 183.975 220.69 184.025 219.59 184.125C218.79 184.275 217.715 184.35 216.365 184.35ZM222.365 145.425C221.315 145.425 220.415 145.075 219.665 144.375C218.965 143.625 218.615 142.725 218.615 141.675C218.615 140.575 218.965 139.675 219.665 138.975C220.415 138.225 221.315 137.85 222.365 137.85C223.465 137.85 224.365 138.225 225.065 138.975C225.815 139.675 226.19 140.575 226.19 141.675C226.19 142.725 225.815 143.625 225.065 144.375C224.365 145.075 223.465 145.425 222.365 145.425Z" fill="white"/>
<path d="M242.248 185.175C240.698 185.175 239.248 184.925 237.898 184.425C236.548 183.975 235.398 183.325 234.448 182.475C234.048 181.675 233.773 179.675 233.623 176.475C233.623 176.025 233.948 175.8 234.598 175.8C235.148 175.8 235.448 175.975 235.498 176.325C236.098 178.625 237.073 180.35 238.423 181.5C239.823 182.6 241.323 183.15 242.923 183.15C244.373 183.15 245.598 182.675 246.598 181.725C247.648 180.725 248.173 179.5 248.173 178.05C248.173 176.75 247.723 175.625 246.823 174.675C245.973 173.675 244.398 172.45 242.098 171C239.498 169.4 237.648 167.925 236.548 166.575C235.498 165.175 234.973 163.55 234.973 161.7C234.973 159.2 235.848 157.15 237.598 155.55C239.348 153.9 241.848 153.075 245.098 153.075C246.498 153.075 247.698 153.225 248.698 153.525C249.748 153.775 250.548 154.1 251.098 154.5C251.498 155.05 251.823 155.925 252.073 157.125C252.373 158.275 252.523 159.375 252.523 160.425C252.523 160.775 252.273 160.95 251.773 160.95C251.473 160.95 251.173 160.9 250.873 160.8C250.573 160.65 250.398 160.475 250.348 160.275C249.648 158.575 248.798 157.3 247.798 156.45C246.848 155.6 245.673 155.175 244.273 155.175C242.973 155.175 241.848 155.575 240.898 156.375C239.948 157.175 239.473 158.25 239.473 159.6C239.473 160.8 239.823 161.85 240.523 162.75C241.273 163.6 242.648 164.6 244.648 165.75C247.798 167.55 250.023 169.175 251.323 170.625C252.623 172.025 253.273 173.825 253.273 176.025C253.273 178.725 252.248 180.925 250.198 182.625C248.148 184.325 245.498 185.175 242.248 185.175Z" fill="white"/>
<path d="M271.667 185.25C269.167 185.25 266.892 184.625 264.842 183.375C262.842 182.075 261.242 180.325 260.042 178.125C258.892 175.875 258.317 173.375 258.317 170.625C258.317 167.425 259.017 164.5 260.417 161.85C261.867 159.15 263.792 157.025 266.192 155.475C268.592 153.875 271.242 153.075 274.142 153.075C277.392 153.075 280.242 153.95 282.692 155.7C283.292 156.15 283.592 156.625 283.592 157.125C283.592 157.775 283.217 158.45 282.467 159.15C281.717 159.85 281.017 160.2 280.367 160.2C280.117 160.2 279.867 160.125 279.617 159.975C279.367 159.775 279.092 159.575 278.792 159.375C277.542 158.425 276.267 157.6 274.967 156.9C273.667 156.2 272.592 155.85 271.742 155.85C269.292 155.85 267.292 157 265.742 159.3C264.242 161.6 263.492 164.575 263.492 168.225C263.492 170.525 263.992 172.65 264.992 174.6C265.992 176.5 267.367 178 269.117 179.1C270.867 180.2 272.792 180.75 274.892 180.75C276.342 180.75 277.592 180.525 278.642 180.075C279.692 179.575 280.817 178.725 282.017 177.525C282.267 177.275 282.517 177.15 282.767 177.15C283.017 177.15 283.217 177.25 283.367 177.45C283.517 177.65 283.592 177.9 283.592 178.2C283.592 178.75 283.217 179.525 282.467 180.525C281.267 182.075 279.742 183.25 277.892 184.05C276.042 184.85 273.967 185.25 271.667 185.25Z" fill="white"/>
<path d="M300.744 185.25C298.044 185.25 295.644 184.575 293.544 183.225C291.494 181.875 289.894 179.975 288.744 177.525C287.594 175.025 287.019 172.15 287.019 168.9C287.019 166.1 287.669 163.475 288.969 161.025C290.319 158.575 292.094 156.65 294.294 155.25C296.494 153.8 298.894 153.075 301.494 153.075C304.494 153.075 306.944 153.975 308.844 155.775C310.794 157.525 311.769 159.775 311.769 162.525C311.769 164.075 311.019 164.85 309.519 164.85H293.694C292.994 164.85 292.494 165.05 292.194 165.45C291.944 165.8 291.819 166.525 291.819 167.625C291.819 169.975 292.319 172.15 293.319 174.15C294.369 176.15 295.769 177.75 297.519 178.95C299.319 180.1 301.269 180.675 303.369 180.675C306.319 180.675 308.769 179.55 310.719 177.3C311.019 176.9 311.294 176.7 311.544 176.7C311.944 176.7 312.144 176.95 312.144 177.45C312.144 178.4 311.694 179.45 310.794 180.6C309.694 182.05 308.244 183.2 306.444 184.05C304.644 184.85 302.744 185.25 300.744 185.25ZM300.669 162.525C303.019 162.525 304.869 162.4 306.219 162.15C306.619 162.1 306.819 161.55 306.819 160.5C306.819 159.05 306.169 157.825 304.869 156.825C303.619 155.775 302.119 155.25 300.369 155.25C299.269 155.25 298.119 155.6 296.919 156.3C295.769 156.95 294.819 157.775 294.069 158.775C293.319 159.775 292.944 160.775 292.944 161.775C292.944 162.275 293.244 162.525 293.844 162.525H300.669Z" fill="white"/>
<path d="M320.052 185.25C319.052 185.25 318.552 185.025 318.552 184.575C318.552 184.225 318.677 183.975 318.927 183.825C319.227 183.625 319.677 183.425 320.277 183.225C321.377 182.875 322.177 182.55 322.677 182.25C323.227 181.9 323.502 181.275 323.502 180.375V142.575C323.502 139.425 322.352 137.6 320.052 137.1C319.852 137.05 319.702 136.95 319.602 136.8C319.502 136.6 319.452 136.375 319.452 136.125C319.452 135.625 319.627 135.325 319.977 135.225C321.927 134.775 324.152 134.025 326.652 132.975L328.452 132.3C328.652 132.2 328.802 132.15 328.902 132.15C329.002 132.15 329.077 132.225 329.127 132.375C329.227 132.475 329.277 132.575 329.277 132.675C329.277 132.975 329.177 133.925 328.977 135.525C328.827 137.125 328.752 139.575 328.752 142.875V180.375C328.752 181.275 329.002 181.9 329.502 182.25C330.052 182.55 330.877 182.875 331.977 183.225C332.577 183.425 333.002 183.625 333.252 183.825C333.552 183.975 333.702 184.225 333.702 184.575C333.702 185.025 333.202 185.25 332.202 185.25C330.902 185.25 329.827 185.175 328.977 185.025C327.877 184.925 326.927 184.875 326.127 184.875C325.327 184.875 324.377 184.925 323.277 185.025C322.477 185.175 321.402 185.25 320.052 185.25Z" fill="white"/>
<path d="M337.942 185.1C336.942 185.1 336.442 184.875 336.442 184.425C336.442 184.075 336.567 183.825 336.817 183.675C337.117 183.475 337.567 183.275 338.167 183.075C339.267 182.725 340.067 182.4 340.567 182.1C341.117 181.75 341.392 181.125 341.392 180.225V142.425C341.392 139.275 340.242 137.45 337.942 136.95C337.742 136.9 337.592 136.8 337.492 136.65C337.392 136.45 337.342 136.225 337.342 135.975C337.342 135.475 337.517 135.175 337.867 135.075C339.817 134.625 342.042 133.875 344.542 132.825L346.342 132.15C346.542 132.05 346.692 132 346.792 132C346.892 132 346.967 132.075 347.017 132.225C347.117 132.325 347.167 132.425 347.167 132.525C347.167 132.825 347.067 133.775 346.867 135.375C346.717 136.975 346.642 139.425 346.642 142.725V180.225C346.642 181.125 346.892 181.75 347.392 182.1C347.942 182.4 348.767 182.725 349.867 183.075C350.467 183.275 350.892 183.475 351.142 183.675C351.442 183.825 351.592 184.075 351.592 184.425C351.592 184.875 351.092 185.1 350.092 185.1C348.792 185.1 347.717 185.025 346.867 184.875C345.767 184.775 344.817 184.725 344.017 184.725C343.217 184.725 342.267 184.775 341.167 184.875C340.367 185.025 339.292 185.1 337.942 185.1Z" fill="white"/>
<path d="M363.262 185.175C362.412 185.175 361.513 184.825 360.562 184.125C359.613 183.475 358.812 182.65 358.162 181.65C357.562 180.6 357.262 179.625 357.262 178.725C357.262 177.175 357.662 175.95 358.462 175.05C359.312 174.15 360.687 173.3 362.587 172.5L370.237 169.35C371.187 168.95 371.762 168.6 371.962 168.3C372.162 168 372.287 167.35 372.337 166.35L372.487 161.55C372.537 160.2 372.162 159.075 371.362 158.175C370.562 157.225 369.462 156.75 368.062 156.75C367.312 156.75 366.562 156.875 365.812 157.125C365.062 157.375 364.438 157.7 363.938 158.1C363.438 158.45 363.188 159.175 363.188 160.275L363.262 161.625C363.262 162.025 362.613 162.575 361.312 163.275C360.062 163.925 359.062 164.25 358.312 164.25C358.063 164.25 357.862 164.2 357.712 164.1C357.562 163.95 357.487 163.775 357.487 163.575C357.487 162.775 357.737 161.925 358.237 161.025C358.787 160.075 359.537 159.2 360.487 158.4C362.187 156.85 364.088 155.575 366.188 154.575C368.338 153.575 370.162 153.075 371.662 153.075C373.462 153.075 374.937 153.725 376.087 155.025C377.287 156.275 377.862 157.85 377.812 159.75L377.438 177.75C377.387 178.8 377.612 179.65 378.112 180.3C378.612 180.95 379.287 181.275 380.137 181.275C381.387 181.275 382.312 181 382.912 180.45C383.162 180.2 383.362 180.075 383.512 180.075C383.762 180.075 383.962 180.15 384.112 180.3C384.262 180.45 384.337 180.65 384.337 180.9C384.337 181.1 384.262 181.375 384.112 181.725C383.962 182.025 383.762 182.3 383.512 182.55C382.712 183.35 381.837 183.975 380.887 184.425C379.987 184.925 379.137 185.175 378.337 185.175C376.037 185.175 374.212 183.875 372.862 181.275H372.637C370.987 182.625 369.412 183.6 367.912 184.2C366.412 184.85 364.862 185.175 363.262 185.175ZM366.787 181.575C368.537 181.575 370.012 180.975 371.212 179.775C371.512 179.475 371.737 179.1 371.887 178.65C372.037 178.2 372.137 177.55 372.188 176.7L372.337 173.025V172.575C372.337 172.175 372.287 171.9 372.188 171.75C372.087 171.55 371.912 171.45 371.662 171.45C371.362 171.45 370.862 171.575 370.162 171.825C367.662 172.725 365.862 173.675 364.762 174.675C363.662 175.675 363.112 176.65 363.112 177.6C363.112 178.85 363.462 179.825 364.162 180.525C364.912 181.225 365.787 181.575 366.787 181.575Z" fill="white"/>
<path d="M387.744 184.35C386.744 184.35 386.244 184.075 386.244 183.525C386.244 183.175 386.369 182.95 386.619 182.85C386.869 182.7 387.319 182.525 387.969 182.325C389.019 182.075 389.819 181.775 390.369 181.425C390.919 181.025 391.194 180.375 391.194 179.475V163.35C391.194 161.75 391.019 160.525 390.669 159.675C390.319 158.825 389.569 158.25 388.419 157.95C387.919 157.8 387.669 157.475 387.669 156.975C387.669 156.425 387.894 156.125 388.344 156.075C389.894 155.675 391.194 155.175 392.244 154.575C393.344 153.975 394.544 153.2 395.844 152.25C396.194 152 396.469 151.875 396.669 151.875C396.919 151.875 397.044 152.05 397.044 152.4L396.894 153.975C396.844 154.375 396.794 154.875 396.744 155.475C396.694 156.025 396.669 156.6 396.669 157.2C396.669 157.7 396.719 158 396.819 158.1C398.619 156.4 400.494 155.15 402.444 154.35C404.394 153.5 406.544 153.075 408.894 153.075C411.294 153.075 413.294 154.075 414.894 156.075C416.544 158.075 417.369 160.55 417.369 163.5V179.475C417.369 180.375 417.619 181 418.119 181.35C418.669 181.65 419.494 181.975 420.594 182.325C421.194 182.525 421.619 182.725 421.869 182.925C422.169 183.075 422.319 183.325 422.319 183.675C422.319 184.125 421.819 184.35 420.819 184.35C419.469 184.35 418.394 184.275 417.594 184.125C416.594 184.025 415.669 183.975 414.819 183.975C414.019 183.975 413.069 184.025 411.969 184.125C411.169 184.275 410.069 184.35 408.669 184.35C407.669 184.35 407.169 184.125 407.169 183.675C407.169 183.325 407.294 183.075 407.544 182.925C407.844 182.725 408.294 182.525 408.894 182.325C409.994 181.975 410.794 181.65 411.294 181.35C411.844 181 412.119 180.375 412.119 179.475V163.725C412.119 161.575 411.494 159.875 410.244 158.625C409.044 157.375 407.419 156.725 405.369 156.675C402.269 156.675 399.494 157.675 397.044 159.675C396.644 160.075 396.444 160.65 396.444 161.4V179.475C396.444 180.375 396.719 181.025 397.269 181.425C397.819 181.775 398.619 182.075 399.669 182.325C400.269 182.475 400.694 182.65 400.944 182.85C401.244 183 401.394 183.225 401.394 183.525C401.394 184.075 400.894 184.35 399.894 184.35C398.594 184.35 397.519 184.275 396.669 184.125C395.569 184.025 394.619 183.975 393.819 183.975C393.019 183.975 392.069 184.025 390.969 184.125C390.169 184.275 389.094 184.35 387.744 184.35Z" fill="white"/>
<path d="M427.368 184.35C426.368 184.35 425.868 184.075 425.868 183.525C425.868 183.175 425.993 182.925 426.243 182.775C426.543 182.625 426.993 182.475 427.593 182.325C428.743 182.025 429.568 181.7 430.068 181.35C430.568 180.95 430.818 180.325 430.818 179.475V163.2C430.818 159.9 429.693 158.075 427.443 157.725C426.943 157.675 426.693 157.35 426.693 156.75C426.693 156.2 426.918 155.9 427.368 155.85C430.418 155.15 433.043 153.9 435.243 152.1C435.693 151.75 436.043 151.575 436.293 151.575C436.593 151.575 436.743 151.7 436.743 151.95C436.743 152.5 436.668 153.45 436.518 154.8C436.468 155.4 436.368 156.525 436.218 158.175C436.118 159.775 436.068 161.075 436.068 162.075V179.475C436.068 180.275 436.318 180.875 436.818 181.275C437.368 181.675 438.193 182.025 439.293 182.325C439.893 182.475 440.318 182.625 440.568 182.775C440.868 182.925 441.018 183.175 441.018 183.525C441.018 184.075 440.518 184.35 439.518 184.35C438.268 184.35 437.218 184.275 436.368 184.125C435.268 184.025 434.293 183.975 433.443 183.975C432.643 183.975 431.693 184.025 430.593 184.125C429.793 184.275 428.718 184.35 427.368 184.35ZM433.368 145.425C432.318 145.425 431.418 145.075 430.668 144.375C429.968 143.625 429.618 142.725 429.618 141.675C429.618 140.575 429.968 139.675 430.668 138.975C431.418 138.225 432.318 137.85 433.368 137.85C434.468 137.85 435.368 138.225 436.068 138.975C436.818 139.675 437.193 140.575 437.193 141.675C437.193 142.725 436.818 143.625 436.068 144.375C435.368 145.075 434.468 145.425 433.368 145.425Z" fill="white"/>
<path d="M458.426 185.25C455.726 185.25 453.326 184.575 451.226 183.225C449.176 181.875 447.576 179.975 446.426 177.525C445.276 175.025 444.701 172.15 444.701 168.9C444.701 166.1 445.351 163.475 446.651 161.025C448.001 158.575 449.776 156.65 451.976 155.25C454.176 153.8 456.576 153.075 459.176 153.075C462.176 153.075 464.626 153.975 466.526 155.775C468.476 157.525 469.451 159.775 469.451 162.525C469.451 164.075 468.701 164.85 467.201 164.85H451.376C450.676 164.85 450.176 165.05 449.876 165.45C449.626 165.8 449.501 166.525 449.501 167.625C449.501 169.975 450.001 172.15 451.001 174.15C452.051 176.15 453.451 177.75 455.201 178.95C457.001 180.1 458.951 180.675 461.051 180.675C464.001 180.675 466.451 179.55 468.401 177.3C468.701 176.9 468.976 176.7 469.226 176.7C469.626 176.7 469.826 176.95 469.826 177.45C469.826 178.4 469.376 179.45 468.476 180.6C467.376 182.05 465.926 183.2 464.126 184.05C462.326 184.85 460.426 185.25 458.426 185.25ZM458.351 162.525C460.701 162.525 462.551 162.4 463.901 162.15C464.301 162.1 464.501 161.55 464.501 160.5C464.501 159.05 463.851 157.825 462.551 156.825C461.301 155.775 459.801 155.25 458.051 155.25C456.951 155.25 455.801 155.6 454.601 156.3C453.451 156.95 452.501 157.775 451.751 158.775C451.001 159.775 450.626 160.775 450.626 161.775C450.626 162.275 450.926 162.525 451.526 162.525H458.351Z" fill="white"/>
<path d="M482.475 185.175C480.925 185.175 479.475 184.925 478.125 184.425C476.775 183.975 475.625 183.325 474.675 182.475C474.275 181.675 474 179.675 473.85 176.475C473.85 176.025 474.175 175.8 474.825 175.8C475.375 175.8 475.675 175.975 475.725 176.325C476.325 178.625 477.3 180.35 478.65 181.5C480.05 182.6 481.55 183.15 483.15 183.15C484.6 183.15 485.825 182.675 486.825 181.725C487.875 180.725 488.4 179.5 488.4 178.05C488.4 176.75 487.95 175.625 487.05 174.675C486.2 173.675 484.625 172.45 482.325 171C479.725 169.4 477.875 167.925 476.775 166.575C475.725 165.175 475.2 163.55 475.2 161.7C475.2 159.2 476.075 157.15 477.825 155.55C479.575 153.9 482.075 153.075 485.325 153.075C486.725 153.075 487.925 153.225 488.925 153.525C489.975 153.775 490.775 154.1 491.325 154.5C491.725 155.05 492.05 155.925 492.3 157.125C492.6 158.275 492.75 159.375 492.75 160.425C492.75 160.775 492.5 160.95 492 160.95C491.7 160.95 491.4 160.9 491.1 160.8C490.8 160.65 490.625 160.475 490.575 160.275C489.875 158.575 489.025 157.3 488.025 156.45C487.075 155.6 485.9 155.175 484.5 155.175C483.2 155.175 482.075 155.575 481.125 156.375C480.175 157.175 479.7 158.25 479.7 159.6C479.7 160.8 480.05 161.85 480.75 162.75C481.5 163.6 482.875 164.6 484.875 165.75C488.025 167.55 490.25 169.175 491.55 170.625C492.85 172.025 493.5 173.825 493.5 176.025C493.5 178.725 492.475 180.925 490.425 182.625C488.375 184.325 485.725 185.175 482.475 185.175Z" fill="white"/>
<path d="M202.46 0C202.76 0 202.97 0.179999 203.09 0.539998C203.21 0.839998 203.18 1.11 203 1.35C199.94 4.35 197.21 7.71 194.81 11.43C192.47 15.09 190.49 18.87 188.87 22.77C187.25 26.67 186.02 30.54 185.18 34.38C184.4 38.16 184.01 41.64 184.01 44.82C184.01 48.06 184.4 50.61 185.18 52.47C185.96 54.27 187.04 55.17 188.42 55.17C189.62 55.17 190.76 54.72 191.84 53.82C192.98 52.92 194.09 51.66 195.17 50.04C195.35 49.92 195.53 49.92 195.71 50.04C195.95 50.16 196.04 50.37 195.98 50.67C195.32 51.69 194.57 52.71 193.73 53.73C192.89 54.69 191.96 55.59 190.94 56.43C189.98 57.21 188.99 57.87 187.97 58.41C186.95 58.89 185.96 59.13 185 59.13C182.78 59.13 181.13 58.11 180.05 56.07C178.97 54.03 178.43 51.3 178.43 47.88C178.43 45.06 178.76 41.94 179.42 38.52C180.08 35.04 181.04 31.5 182.3 27.9C183.62 24.3 185.18 20.79 186.98 17.37C188.84 13.89 190.94 10.77 193.28 8.01C189.68 10.71 185.96 13.95 182.12 17.73C178.28 21.51 174.56 25.56 170.96 29.88C167.42 34.14 164.09 38.55 160.97 43.11C157.91 47.67 155.36 52.11 153.32 56.43C153.2 56.67 152.96 56.97 152.6 57.33C152.24 57.63 151.82 57.93 151.34 58.23C150.86 58.47 150.38 58.68 149.9 58.86C149.42 59.04 149 59.13 148.64 59.13C148.16 59.13 147.98 58.92 148.1 58.5C149.24 49.2 150.86 40.92 152.96 33.66C155.12 26.4 157.64 19.71 160.52 13.59C155.72 20.79 151.01 27.24 146.39 32.94C141.83 38.58 137.21 43.35 132.53 47.25C127.91 51.09 123.2 54.03 118.4 56.07C113.6 58.11 108.65 59.13 103.55 59.13C97.91 59.13 93.56 57.72 90.5 54.9C87.5 52.08 86 48.36 86 43.74C86 40.68 86.87 37.95 88.61 35.55C90.35 33.09 92.75 31.29 95.81 30.15C96.05 30.03 96.2 30.09 96.26 30.33C96.38 30.57 96.38 30.78 96.26 30.96C94.4 32.16 93.08 33.54 92.3 35.1C91.58 36.66 91.22 38.7 91.22 41.22C91.22 43.2 91.55 45.09 92.21 46.89C92.87 48.63 93.83 50.19 95.09 51.57C96.35 52.89 97.94 53.94 99.86 54.72C101.78 55.5 104 55.89 106.52 55.89C111.74 55.89 116.72 54.69 121.46 52.29C126.26 49.89 130.91 46.62 135.41 42.48C139.97 38.28 144.41 33.36 148.73 27.72C153.11 22.08 157.46 16.02 161.78 9.54C157.58 8.1 153.17 6.9 148.55 5.94C143.99 4.92 139.58 4.41 135.32 4.41C130.46 4.41 126.71 5.79 124.07 8.55C121.43 11.25 119.81 14.91 119.21 19.53C119.09 19.83 118.91 19.95 118.67 19.89C118.49 19.83 118.37 19.65 118.31 19.35C118.97 13.41 121.13 8.88 124.79 5.76C128.45 2.64 133.22 1.08 139.1 1.08C141.5 1.08 144.05 1.26 146.75 1.62C149.45 1.92 152.09 2.34 154.67 2.88C157.31 3.42 159.8 4.02 162.14 4.68C164.54 5.28 166.64 5.88 168.44 6.48C168.68 6.42 168.98 6.33 169.34 6.21C169.58 6.27 169.73 6.42 169.79 6.66C169.85 6.9 169.82 7.10999 169.7 7.29C168.86 7.77 168.14 8.43 167.54 9.27C167 10.05 166.4 11.04 165.74 12.24C162.74 18.3 160.34 24.63 158.54 31.23C156.8 37.77 155.36 44.4 154.22 51.12C156.98 46.14 160.22 41.16 163.94 36.18C167.72 31.14 171.74 26.37 176 21.87C180.26 17.37 184.64 13.23 189.14 9.45C193.7 5.67 198.14 2.52 202.46 0Z" fill="white"/>
<path d="M223.821 53.46C223.941 53.34 224.091 53.34 224.271 53.46C224.451 53.58 224.511 53.76 224.451 54C223.371 55.56 222.171 56.82 220.851 57.78C219.531 58.68 218.271 59.13 217.071 59.13C215.691 59.13 214.791 58.17 214.371 56.25C214.011 54.27 214.221 51.93 215.001 49.23C213.381 51.81 211.611 54.03 209.691 55.89C207.831 57.69 205.851 58.77 203.751 59.13C202.311 59.13 201.201 58.47 200.421 57.15C199.641 55.83 199.251 54.3 199.251 52.56C199.251 50.58 199.731 48.63 200.691 46.71C201.651 44.73 202.911 42.96 204.471 41.4C206.091 39.84 207.861 38.58 209.781 37.62C211.761 36.6 213.741 36.09 215.721 36.09C217.821 36.09 219.471 36.6 220.671 37.62C221.271 37.2 222.021 36.84 222.921 36.54C223.881 36.24 224.721 36.09 225.441 36.09C225.681 36.09 225.801 36.24 225.801 36.54C224.421 38.22 223.221 40.08 222.201 42.12C221.241 44.1 220.491 46.02 219.951 47.88C219.411 49.68 219.081 51.3 218.961 52.74C218.841 54.18 218.961 55.17 219.321 55.71C219.621 56.07 220.131 56.19 220.851 56.07C221.571 55.89 222.561 55.02 223.821 53.46ZM206.541 55.8C207.261 55.8 208.131 55.35 209.151 54.45C210.231 53.55 211.341 52.35 212.481 50.85C213.621 49.35 214.731 47.67 215.811 45.81C216.951 43.95 217.941 42.06 218.781 40.14C218.541 39.36 217.971 38.73 217.071 38.25C216.231 37.77 215.241 37.53 214.101 37.53C212.721 37.53 211.431 37.89 210.231 38.61C209.031 39.27 207.981 40.23 207.081 41.49C206.241 42.69 205.551 44.16 205.011 45.9C204.531 47.58 204.291 49.44 204.291 51.48C204.291 52.8 204.501 53.85 204.921 54.63C205.401 55.41 205.941 55.8 206.541 55.8Z" fill="white"/>
<path d="M254.164 52.83C254.284 52.71 254.434 52.74 254.614 52.92C254.794 53.04 254.854 53.22 254.794 53.46C253.714 54.96 252.454 56.28 251.014 57.42C249.634 58.56 248.254 59.13 246.874 59.13C245.854 59.13 245.044 58.8 244.444 58.14C243.904 57.48 243.634 56.61 243.634 55.53C243.634 53.43 243.994 51.15 244.714 48.69C245.494 46.23 246.514 43.74 247.774 41.22C247.954 40.8 248.044 40.35 248.044 39.87C248.044 39.27 247.774 38.97 247.234 38.97C245.014 38.97 242.554 40.5 239.854 43.56C237.154 46.56 234.664 51.36 232.384 57.96C232.324 58.14 232.114 58.32 231.754 58.5C231.454 58.62 231.094 58.74 230.674 58.86C230.254 58.92 229.834 58.98 229.414 59.04C228.994 59.1 228.664 59.13 228.424 59.13C228.124 59.13 227.884 59.07 227.704 58.95C227.584 58.83 227.584 58.62 227.704 58.32C228.724 55.74 229.744 52.92 230.764 49.86C231.844 46.74 232.774 43.62 233.554 40.5C233.734 39.9 233.764 39.48 233.644 39.24C233.524 38.94 233.314 38.79 233.014 38.79C232.354 38.79 231.724 39.09 231.124 39.69C230.524 40.23 229.984 40.83 229.504 41.49C229.324 41.61 229.144 41.58 228.964 41.4C228.844 41.22 228.814 41.04 228.874 40.86C229.174 40.44 229.564 39.96 230.044 39.42C230.584 38.88 231.184 38.37 231.844 37.89C232.504 37.35 233.194 36.93 233.914 36.63C234.634 36.27 235.354 36.09 236.074 36.09C237.094 36.09 237.754 36.42 238.054 37.08C238.414 37.68 238.504 38.43 238.324 39.33C238.024 40.65 237.694 41.91 237.334 43.11C237.034 44.25 236.644 45.54 236.164 46.98C236.884 45.66 237.754 44.37 238.774 43.11C239.854 41.79 241.024 40.62 242.284 39.6C243.604 38.52 245.014 37.68 246.514 37.08C248.014 36.42 249.604 36.09 251.284 36.09C252.004 36.09 252.544 36.27 252.904 36.63C253.324 36.99 253.534 37.41 253.534 37.89C253.534 38.73 253.324 39.48 252.904 40.14C251.644 42.42 250.564 44.79 249.664 47.25C248.824 49.65 248.404 51.81 248.404 53.73C248.404 55.29 248.914 56.07 249.934 56.07C250.594 56.07 251.254 55.8 251.914 55.26C252.574 54.72 253.324 53.91 254.164 52.83Z" fill="white"/>
<path d="M261.568 59.13C259.048 59.13 257.788 57.75 257.788 54.99C257.788 54.03 257.878 52.92 258.058 51.66C258.298 50.4 258.628 49.11 259.048 47.79C259.528 46.41 260.068 45.03 260.668 43.65C261.268 42.27 261.988 40.95 262.828 39.69C262.168 40.11 261.538 40.56 260.938 41.04C260.338 41.46 259.798 41.91 259.318 42.39C259.138 42.51 258.958 42.48 258.778 42.3C258.658 42.06 258.658 41.85 258.778 41.67C259.798 40.59 261.238 39.48 263.098 38.34C265.018 37.2 266.848 36.3 268.588 35.64C268.888 35.64 269.098 35.73 269.218 35.91C269.398 36.03 269.428 36.21 269.308 36.45C267.388 38.97 265.828 41.7 264.628 44.64C263.488 47.58 262.918 50.43 262.918 53.19C262.918 54.93 263.458 55.8 264.538 55.8C265.318 55.8 266.278 55.29 267.418 54.27C268.558 53.19 269.758 51.81 271.018 50.13C272.278 48.39 273.538 46.44 274.798 44.28C276.118 42.12 277.318 39.93 278.398 37.71C278.578 37.35 279.088 36.99 279.928 36.63C280.828 36.27 281.728 36.09 282.628 36.09C283.528 36.09 283.798 36.33 283.438 36.81C282.598 38.37 281.848 39.84 281.188 41.22C280.588 42.54 280.078 43.86 279.658 45.18C279.238 46.5 278.908 47.85 278.668 49.23C278.488 50.55 278.398 52.02 278.398 53.64C278.398 55.56 278.908 56.52 279.928 56.52C280.948 56.52 282.088 55.62 283.348 53.82C283.528 53.7 283.708 53.7 283.888 53.82C284.068 53.94 284.128 54.12 284.068 54.36C283.048 55.92 281.908 57.12 280.648 57.96C279.448 58.74 278.338 59.13 277.318 59.13C274.798 59.13 273.538 57.66 273.538 54.72C273.538 51.66 274.078 48.63 275.158 45.63C272.878 49.77 270.478 53.07 267.958 55.53C265.438 57.93 263.308 59.13 261.568 59.13Z" fill="white"/>
<path d="M298.741 36.09C300.061 36.09 301.111 36.27 301.891 36.63C302.731 36.99 303.151 37.44 303.151 37.98C303.151 38.64 302.971 39.39 302.611 40.23C302.311 41.07 302.011 41.76 301.711 42.3C301.591 42.42 301.441 42.45 301.261 42.39C301.081 42.27 300.991 42.09 300.991 41.85C301.171 41.43 301.261 40.83 301.261 40.05C301.261 39.21 301.021 38.52 300.541 37.98C300.121 37.44 299.521 37.17 298.741 37.17C297.721 37.17 296.881 37.5 296.221 38.16C295.621 38.76 295.321 39.63 295.321 40.77C295.321 41.73 295.561 42.66 296.041 43.56C296.581 44.4 297.151 45.27 297.751 46.17C298.411 47.01 299.011 47.94 299.551 48.96C300.091 49.92 300.361 51.03 300.361 52.29C300.361 54.45 299.491 56.13 297.751 57.33C296.011 58.53 293.731 59.13 290.911 59.13C288.871 59.13 287.251 58.8 286.051 58.14C284.911 57.48 284.341 56.76 284.341 55.98C284.341 55.74 284.431 55.41 284.611 54.99C284.791 54.57 285.031 54.12 285.331 53.64C285.631 53.16 285.961 52.68 286.321 52.2C286.681 51.72 287.071 51.33 287.491 51.03C287.671 50.91 287.821 50.94 287.941 51.12C288.121 51.3 288.151 51.48 288.031 51.66C287.671 52.02 287.401 52.41 287.221 52.83C287.041 53.19 286.951 53.7 286.951 54.36C286.951 55.44 287.311 56.34 288.031 57.06C288.751 57.72 289.681 58.05 290.821 58.05C292.381 58.05 293.581 57.63 294.421 56.79C295.321 55.89 295.771 54.81 295.771 53.55C295.771 52.41 295.501 51.36 294.961 50.4C294.481 49.38 293.941 48.42 293.341 47.52C292.741 46.56 292.171 45.6 291.631 44.64C291.151 43.68 290.911 42.66 290.911 41.58C290.911 40.02 291.571 38.73 292.891 37.71C294.211 36.63 296.161 36.09 298.741 36.09Z" fill="white"/>
<path d="M321.156 44.19C320.796 44.31 320.616 44.16 320.616 43.74C321.036 42.48 320.946 41.37 320.346 40.41C319.806 39.45 318.786 38.97 317.286 38.97C315.366 38.97 313.806 40.17 312.606 42.57C311.466 44.97 310.896 48.09 310.896 51.93C310.896 54.75 312.006 56.16 314.226 56.16C315.246 56.16 316.356 55.8 317.556 55.08C318.816 54.3 319.956 53.31 320.976 52.11C321.216 51.99 321.426 52.02 321.606 52.2C321.786 52.38 321.816 52.59 321.696 52.83C320.196 54.75 318.516 56.28 316.656 57.42C314.796 58.56 312.816 59.13 310.716 59.13C309.396 59.13 308.286 58.68 307.386 57.78C306.486 56.82 306.036 55.5 306.036 53.82C306.036 51.72 306.456 49.62 307.296 47.52C308.196 45.36 309.336 43.44 310.716 41.76C312.096 40.08 313.596 38.73 315.216 37.71C316.836 36.63 318.426 36.09 319.986 36.09C321.366 36.09 322.446 36.48 323.226 37.26C324.006 38.04 324.396 38.91 324.396 39.87C324.396 40.23 324.276 40.62 324.036 41.04C323.856 41.46 323.586 41.88 323.226 42.3C322.926 42.72 322.566 43.11 322.146 43.47C321.786 43.83 321.456 44.07 321.156 44.19Z" fill="white"/>
<path d="M336.142 38.7C336.142 39.6 336.052 40.62 335.872 41.76C335.692 42.9 335.452 44.07 335.152 45.27C336.352 42.39 337.672 40.14 339.112 38.52C340.552 36.9 342.112 36.09 343.792 36.09C344.692 36.09 345.382 36.3 345.862 36.72C346.342 37.14 346.582 37.68 346.582 38.34C346.582 38.94 346.342 39.72 345.862 40.68C345.442 41.64 345.082 42.3 344.782 42.66C344.662 42.72 344.542 42.72 344.422 42.66C344.302 42.54 344.242 42.42 344.242 42.3C344.242 41.88 344.062 41.52 343.702 41.22C343.402 40.92 342.922 40.77 342.262 40.77C340.162 40.77 338.242 42.21 336.502 45.09C334.822 47.91 333.262 51.99 331.822 57.33C331.762 57.63 331.552 57.9 331.192 58.14C330.832 58.32 330.412 58.5 329.932 58.68C329.512 58.8 329.062 58.92 328.582 59.04C328.102 59.1 327.682 59.13 327.322 59.13C326.662 59.13 326.482 58.77 326.782 58.05C327.322 56.79 327.832 55.44 328.312 54C328.852 52.5 329.332 51 329.752 49.5C330.172 48 330.532 46.56 330.832 45.18C331.132 43.74 331.372 42.42 331.552 41.22C331.672 40.32 331.702 39.63 331.642 39.15C331.642 38.67 331.402 38.43 330.922 38.43C330.322 38.43 329.692 38.7 329.032 39.24C328.432 39.72 327.862 40.35 327.322 41.13C327.082 41.31 326.842 41.34 326.602 41.22C326.422 41.04 326.392 40.83 326.512 40.59C326.872 40.11 327.292 39.63 327.772 39.15C328.312 38.61 328.882 38.13 329.482 37.71C330.142 37.23 330.802 36.84 331.462 36.54C332.182 36.24 332.902 36.09 333.622 36.09C334.582 36.09 335.242 36.33 335.602 36.81C335.962 37.23 336.142 37.86 336.142 38.7Z" fill="white"/>
<path d="M357.285 32.22C357.105 32.4 356.895 32.4 356.655 32.22C356.475 32.04 356.324 31.8 356.204 31.5C356.084 31.14 356.025 30.78 356.025 30.42C356.025 30 356.115 29.64 356.295 29.34C356.955 28.5 357.915 27.45 359.175 26.19C360.495 24.87 361.845 23.76 363.225 22.86C363.345 22.8 363.495 22.86 363.675 23.04C363.855 23.16 363.915 23.28 363.855 23.4C362.595 24.54 361.394 25.92 360.254 27.54C359.114 29.1 358.125 30.66 357.285 32.22ZM347.655 42.39C347.475 42.51 347.324 42.48 347.204 42.3C347.084 42.06 347.055 41.85 347.115 41.67C349.335 39.87 352.424 38.01 356.384 36.09C356.864 36.09 357.105 36.36 357.105 36.9C356.325 38.28 355.544 39.78 354.764 41.4C354.044 43.02 353.385 44.64 352.785 46.26C352.245 47.82 351.794 49.35 351.434 50.85C351.074 52.29 350.895 53.49 350.895 54.45C350.895 55.65 351.315 56.25 352.155 56.25C352.815 56.25 353.445 55.98 354.045 55.44C354.705 54.84 355.455 54.09 356.295 53.19C356.415 53.07 356.564 53.1 356.744 53.28C356.924 53.4 356.955 53.61 356.835 53.91C355.515 55.47 354.194 56.73 352.874 57.69C351.614 58.65 350.384 59.13 349.184 59.13C347.084 59.13 346.035 58.14 346.035 56.16C346.035 55.08 346.185 53.82 346.485 52.38C346.845 50.88 347.295 49.38 347.835 47.88C348.435 46.32 349.065 44.82 349.725 43.38C350.445 41.88 351.164 40.59 351.884 39.51C351.224 39.87 350.474 40.32 349.634 40.86C348.854 41.4 348.195 41.91 347.655 42.39Z" fill="white"/>
<path d="M379.156 36.09C380.476 36.09 381.526 36.75 382.306 38.07C383.146 39.33 383.566 40.83 383.566 42.57C383.566 45.03 383.056 47.28 382.036 49.32C381.076 51.3 379.786 53.04 378.166 54.54C376.546 55.98 374.686 57.12 372.586 57.96C370.486 58.74 368.356 59.13 366.196 59.13C365.176 59.13 364.306 59.01 363.586 58.77C362.566 61.71 361.636 64.86 360.796 68.22C360.016 71.58 359.626 74.7 359.626 77.58C359.626 78.96 360.286 79.5 361.606 79.2C362.086 79.14 362.536 79.02 362.956 78.84C363.436 78.66 363.886 78.42 364.306 78.12C364.546 78.12 364.666 78.24 364.666 78.48C364.726 78.72 364.696 78.96 364.576 79.2C364.216 79.38 363.676 79.56 362.956 79.74C362.296 79.98 361.576 80.19 360.796 80.37C360.016 80.61 359.236 80.79 358.456 80.91C357.676 81.03 357.016 81.09 356.476 81.09C355.996 81.09 355.606 80.97 355.306 80.73C355.006 80.49 354.856 79.65 354.856 79.65C354.856 76.59 355.366 73.02 356.386 68.94C357.346 64.92 358.606 60.75 360.166 56.43C359.806 55.95 359.596 55.56 359.536 55.26C359.476 55.02 359.926 54.75 360.886 54.45C361.666 52.29 362.506 50.13 363.406 47.97C364.306 45.81 365.206 43.68 366.106 41.58C367.246 39.12 367.756 37.59 367.636 36.99C367.576 36.39 367.216 36.27 366.556 36.63C365.656 37.11 364.666 37.95 363.586 39.15C363.466 39.27 363.316 39.24 363.136 39.06C363.016 38.82 362.986 38.64 363.046 38.52C363.466 38.04 364.006 37.53 364.666 36.99C365.326 36.39 366.016 35.85 366.736 35.37C367.516 34.89 368.266 34.5 368.986 34.2C369.706 33.84 370.336 33.66 370.876 33.66C371.536 33.66 371.956 33.96 372.136 34.56C372.376 35.1 372.346 35.7 372.046 36.36C371.266 38.46 370.246 40.83 368.986 43.47C369.586 42.63 370.276 41.79 371.056 40.95C371.836 40.05 372.646 39.24 373.486 38.52C374.386 37.8 375.316 37.23 376.276 36.81C377.236 36.33 378.196 36.09 379.156 36.09ZM368.446 57.33C369.886 57.33 371.236 57.06 372.496 56.52C373.756 55.92 374.836 55.08 375.736 54C376.696 52.86 377.446 51.48 377.986 49.86C378.586 48.18 378.886 46.26 378.886 44.1C378.886 42.66 378.616 41.49 378.076 40.59C377.536 39.69 376.756 39.24 375.736 39.24C374.356 39.24 372.706 40.47 370.786 42.93C368.866 45.39 367.096 48.84 365.476 53.28C365.296 53.76 365.116 54.27 364.936 54.81C364.756 55.29 364.576 55.8 364.396 56.34C365.356 57 366.706 57.33 368.446 57.33Z" fill="white"/>
<path d="M404.439 36.54C404.739 36.66 404.859 36.84 404.799 37.08C404.739 37.26 404.469 37.41 403.989 37.53C403.089 37.53 402.039 37.56 400.839 37.62C399.699 37.68 398.469 37.77 397.149 37.89C395.949 40.83 394.959 43.71 394.179 46.53C393.399 49.29 393.009 51.54 393.009 53.28C393.009 55.32 393.789 56.34 395.349 56.34C396.909 56.34 398.649 54.99 400.569 52.29C400.749 52.17 400.899 52.17 401.019 52.29C401.199 52.41 401.259 52.62 401.199 52.92C400.179 54.6 398.889 56.07 397.329 57.33C395.769 58.53 394.239 59.13 392.739 59.13C391.179 59.13 390.009 58.77 389.229 58.05C388.509 57.27 388.149 56.22 388.149 54.9C388.149 53.16 388.569 50.76 389.409 47.7C390.249 44.64 391.329 41.52 392.649 38.34C391.089 38.52 389.649 38.76 388.329 39.06C388.029 39 387.939 38.85 388.059 38.61C388.239 38.37 388.509 38.13 388.869 37.89C389.289 37.59 389.769 37.35 390.309 37.17C390.849 36.93 391.359 36.81 391.839 36.81C392.079 36.81 392.319 36.81 392.559 36.81C392.799 36.81 393.039 36.78 393.279 36.72C394.059 34.98 394.869 33.3 395.709 31.68C396.549 30.06 397.389 28.59 398.229 27.27C398.589 26.85 399.069 26.49 399.669 26.19C400.329 25.83 400.959 25.56 401.559 25.38C402.159 25.2 402.639 25.11 402.999 25.11C403.419 25.05 403.599 25.14 403.539 25.38C402.519 26.94 401.499 28.68 400.479 30.6C399.519 32.52 398.589 34.53 397.689 36.63C398.829 36.57 399.969 36.54 401.109 36.54C402.309 36.54 403.419 36.54 404.439 36.54Z" fill="white"/>
<path d="M485.791 11.79C485.791 16.41 484.711 20.7 482.551 24.66C480.451 28.56 477.661 32.37 474.181 36.09C470.761 39.75 466.891 43.47 462.571 47.25C458.251 50.97 453.901 54.96 449.521 59.22C448.441 59.22 448.171 58.29 448.711 56.43C449.851 52.95 450.781 49.26 451.501 45.36C452.221 41.46 452.671 37.59 452.851 33.75C453.031 29.91 452.911 26.25 452.491 22.77C452.071 19.29 451.291 16.23 450.151 13.59C449.071 10.89 447.571 8.76 445.651 7.2C443.731 5.58 441.361 4.77 438.541 4.77C434.461 4.77 431.101 6.39 428.461 9.63C425.821 12.81 423.661 17.7 421.981 24.3C421.861 24.54 421.681 24.63 421.441 24.57C421.201 24.51 421.081 24.36 421.081 24.12C421.861 20.76 422.821 17.67 423.961 14.85C425.161 12.03 426.571 9.63 428.191 7.65C429.871 5.61 431.821 4.02 434.041 2.88C436.261 1.74 438.811 1.17 441.691 1.17C444.451 1.17 446.821 1.85999 448.801 3.24C450.781 4.62 452.431 6.51 453.751 8.91C455.071 11.31 456.031 14.16 456.631 17.46C457.231 20.7 457.531 24.24 457.531 28.08C457.531 31.86 457.201 35.85 456.541 40.05C455.941 44.19 455.071 48.36 453.931 52.56C458.131 49.08 461.911 45.81 465.271 42.75C468.631 39.69 471.451 36.69 473.731 33.75C476.011 30.75 477.751 27.72 478.951 24.66C480.211 21.6 480.841 18.33 480.841 14.85C480.841 12.03 480.241 9.75 479.041 8.01C477.841 6.27 476.371 5.4 474.631 5.4C473.551 5.4 472.681 5.67 472.021 6.21C471.421 6.69 470.881 7.47 470.401 8.55C469.801 8.79 469.501 8.58 469.501 7.92C469.801 7.08 470.221 6.27 470.761 5.49C471.361 4.65 471.961 3.93 472.561 3.33C473.221 2.67 473.881 2.16 474.541 1.8C475.201 1.38 475.801 1.17 476.341 1.17C477.781 1.17 479.071 1.47 480.211 2.07C481.411 2.67 482.401 3.48 483.181 4.5C484.021 5.46 484.651 6.6 485.071 7.92C485.551 9.18 485.791 10.47 485.791 11.79Z" fill="white"/>
<path d="M498.601 40.59C498.601 44.01 494.071 46.35 485.011 47.61C484.951 48.21 484.891 48.81 484.831 49.41C484.831 50.01 484.831 50.64 484.831 51.3C484.831 52.86 485.191 54.06 485.911 54.9C486.631 55.74 487.771 56.16 489.331 56.16C490.471 56.16 491.641 55.83 492.841 55.17C494.041 54.51 495.001 53.67 495.721 52.65C495.961 52.53 496.141 52.59 496.261 52.83C496.381 53.01 496.411 53.22 496.351 53.46C495.151 55.02 493.621 56.37 491.761 57.51C489.961 58.59 488.011 59.13 485.911 59.13C483.811 59.13 482.281 58.62 481.321 57.6C480.421 56.52 479.971 55.02 479.971 53.1C479.971 51.24 480.361 49.32 481.141 47.34C481.921 45.3 482.911 43.44 484.111 41.76C485.371 40.08 486.781 38.73 488.341 37.71C489.961 36.63 491.581 36.09 493.201 36.09C494.821 36.09 496.112 36.57 497.072 37.53C498.092 38.43 498.601 39.45 498.601 40.59ZM490.771 38.43C489.391 38.43 488.191 39.09 487.171 40.41C486.211 41.67 485.551 43.65 485.191 46.35C488.071 46.05 490.201 45.51 491.581 44.73C492.961 43.89 493.651 42.87 493.651 41.67C493.651 40.77 493.381 40.02 492.841 39.42C492.301 38.76 491.611 38.43 490.771 38.43Z" fill="white"/>
<path d="M510.869 38.7C510.869 39.6 510.779 40.62 510.599 41.76C510.419 42.9 510.179 44.07 509.879 45.27C511.079 42.39 512.399 40.14 513.839 38.52C515.279 36.9 516.839 36.09 518.519 36.09C519.419 36.09 520.109 36.3 520.589 36.72C521.069 37.14 521.309 37.68 521.309 38.34C521.309 38.94 521.069 39.72 520.589 40.68C520.169 41.64 519.809 42.3 519.509 42.66C519.389 42.72 519.269 42.72 519.149 42.66C519.029 42.54 518.969 42.42 518.969 42.3C518.969 41.88 518.789 41.52 518.429 41.22C518.129 40.92 517.649 40.77 516.989 40.77C514.889 40.77 512.969 42.21 511.229 45.09C509.549 47.91 507.989 51.99 506.549 57.33C506.489 57.63 506.279 57.9 505.919 58.14C505.559 58.32 505.139 58.5 504.659 58.68C504.239 58.8 503.789 58.92 503.309 59.04C502.829 59.1 502.409 59.13 502.049 59.13C501.389 59.13 501.209 58.77 501.509 58.05C502.049 56.79 502.559 55.44 503.039 54C503.579 52.5 504.059 51 504.479 49.5C504.899 48 505.259 46.56 505.559 45.18C505.859 43.74 506.099 42.42 506.279 41.22C506.399 40.32 506.429 39.63 506.369 39.15C506.369 38.67 506.129 38.43 505.649 38.43C505.049 38.43 504.419 38.7 503.759 39.24C503.159 39.72 502.589 40.35 502.049 41.13C501.809 41.31 501.569 41.34 501.329 41.22C501.149 41.04 501.119 40.83 501.239 40.59C501.599 40.11 502.019 39.63 502.499 39.15C503.039 38.61 503.609 38.13 504.209 37.71C504.869 37.23 505.529 36.84 506.189 36.54C506.909 36.24 507.629 36.09 508.349 36.09C509.309 36.09 509.969 36.33 510.329 36.81C510.689 37.23 510.869 37.86 510.869 38.7Z" fill="white"/>
<path d="M531.652 36.09C532.972 36.09 534.022 36.27 534.802 36.63C535.642 36.99 536.062 37.44 536.062 37.98C536.062 38.64 535.882 39.39 535.522 40.23C535.222 41.07 534.922 41.76 534.622 42.3C534.502 42.42 534.352 42.45 534.172 42.39C533.992 42.27 533.902 42.09 533.902 41.85C534.082 41.43 534.172 40.83 534.172 40.05C534.172 39.21 533.932 38.52 533.452 37.98C533.032 37.44 532.432 37.17 531.652 37.17C530.632 37.17 529.792 37.5 529.132 38.16C528.532 38.76 528.232 39.63 528.232 40.77C528.232 41.73 528.472 42.66 528.952 43.56C529.492 44.4 530.062 45.27 530.662 46.17C531.322 47.01 531.922 47.94 532.462 48.96C533.002 49.92 533.272 51.03 533.272 52.29C533.272 54.45 532.402 56.13 530.662 57.33C528.922 58.53 526.642 59.13 523.822 59.13C521.782 59.13 520.161 58.8 518.961 58.14C517.821 57.48 517.251 56.76 517.251 55.98C517.251 55.74 517.341 55.41 517.521 54.99C517.701 54.57 517.941 54.12 518.241 53.64C518.541 53.16 518.871 52.68 519.231 52.2C519.591 51.72 519.982 51.33 520.402 51.03C520.582 50.91 520.731 50.94 520.851 51.12C521.031 51.3 521.061 51.48 520.941 51.66C520.581 52.02 520.312 52.41 520.132 52.83C519.952 53.19 519.861 53.7 519.861 54.36C519.861 55.44 520.221 56.34 520.941 57.06C521.661 57.72 522.592 58.05 523.732 58.05C525.292 58.05 526.492 57.63 527.332 56.79C528.232 55.89 528.682 54.81 528.682 53.55C528.682 52.41 528.412 51.36 527.872 50.4C527.392 49.38 526.852 48.42 526.252 47.52C525.652 46.56 525.082 45.6 524.542 44.64C524.062 43.68 523.822 42.66 523.822 41.58C523.822 40.02 524.482 38.73 525.802 37.71C527.122 36.63 529.072 36.09 531.652 36.09Z" fill="white"/>
<path d="M557.577 40.59C557.577 44.01 553.047 46.35 543.987 47.61C543.927 48.21 543.867 48.81 543.807 49.41C543.807 50.01 543.807 50.64 543.807 51.3C543.807 52.86 544.167 54.06 544.887 54.9C545.607 55.74 546.747 56.16 548.307 56.16C549.447 56.16 550.617 55.83 551.817 55.17C553.017 54.51 553.977 53.67 554.697 52.65C554.937 52.53 555.117 52.59 555.237 52.83C555.357 53.01 555.387 53.22 555.327 53.46C554.127 55.02 552.597 56.37 550.737 57.51C548.937 58.59 546.987 59.13 544.887 59.13C542.787 59.13 541.257 58.62 540.297 57.6C539.397 56.52 538.947 55.02 538.947 53.1C538.947 51.24 539.337 49.32 540.117 47.34C540.897 45.3 541.887 43.44 543.087 41.76C544.347 40.08 545.757 38.73 547.317 37.71C548.937 36.63 550.557 36.09 552.177 36.09C553.797 36.09 555.087 36.57 556.047 37.53C557.067 38.43 557.577 39.45 557.577 40.59ZM549.747 38.43C548.367 38.43 547.167 39.09 546.147 40.41C545.187 41.67 544.527 43.65 544.167 46.35C547.047 46.05 549.177 45.51 550.557 44.73C551.937 43.89 552.627 42.87 552.627 41.67C552.627 40.77 552.357 40.02 551.817 39.42C551.277 38.76 550.587 38.43 549.747 38.43Z" fill="white"/>
</g>
<path d="M264.08 113.24C263.733 113.24 263.587 113.12 263.64 112.88C263.96 112.027 264.307 111.147 264.68 110.24C265.053 109.333 265.44 108.427 265.84 107.52C266.267 106.613 266.68 105.733 267.08 104.88C267.48 104.027 267.853 103.227 268.2 102.48C267.56 102.64 266.96 102.787 266.4 102.92C265.867 103.053 265.373 103.12 264.92 103.12C264.787 103.093 264.733 103.013 264.76 102.88C264.787 102.747 264.88 102.64 265.04 102.56C265.547 102.507 266.093 102.4 266.68 102.24C267.267 102.08 267.84 101.88 268.4 101.64C268.987 101.4 269.547 101.133 270.08 100.84C270.613 100.52 271.08 100.2 271.48 99.88C271.613 99.8266 271.72 99.8266 271.8 99.88C271.907 99.9333 271.96 100.027 271.96 100.16C271.293 101.04 270.667 102 270.08 103.04C269.493 104.08 268.947 105.147 268.44 106.24C267.96 107.307 267.533 108.387 267.16 109.48C266.813 110.547 266.52 111.547 266.28 112.48C266.147 112.693 265.853 112.867 265.4 113C264.973 113.16 264.533 113.24 264.08 113.24Z" fill="white"/>
<path d="M277.964 100.48C278.871 100.48 279.751 100.547 280.604 100.68C281.457 100.787 282.364 100.92 283.324 101.08C283.697 101.16 284.031 101.053 284.324 100.76C284.564 100.493 284.711 100.293 284.764 100.16C284.871 100.107 284.964 100.133 285.044 100.24C285.124 100.32 285.137 100.453 285.084 100.64C283.804 102.88 282.617 104.773 281.524 106.32C280.457 107.867 279.431 109.28 278.444 110.56C277.484 111.84 276.551 113.093 275.644 114.32C274.764 115.547 273.871 116.96 272.964 118.56C272.857 118.667 272.684 118.773 272.444 118.88C272.231 118.987 271.977 119.08 271.684 119.16C271.417 119.267 271.137 119.347 270.844 119.4C270.577 119.453 270.337 119.48 270.124 119.48C270.017 119.48 269.924 119.44 269.844 119.36C269.764 119.307 269.751 119.213 269.804 119.08C270.871 117.507 271.911 116.147 272.924 115C273.964 113.853 275.004 112.72 276.044 111.6C277.111 110.48 278.191 109.267 279.284 107.96C280.404 106.653 281.591 105.053 282.844 103.16C282.391 103.107 281.964 103.053 281.564 103C281.191 102.947 280.804 102.907 280.404 102.88C280.004 102.853 279.564 102.84 279.084 102.84C278.604 102.813 278.057 102.8 277.444 102.8C276.137 102.8 275.177 103.04 274.564 103.52C273.977 103.973 273.511 104.76 273.164 105.88C273.084 105.987 272.977 106 272.844 105.92C272.737 105.813 272.697 105.693 272.724 105.56C272.937 104.867 273.204 104.12 273.524 103.32C273.844 102.52 274.151 101.853 274.444 101.32C274.577 101.187 274.724 101.067 274.884 100.96C275.071 100.853 275.297 100.773 275.564 100.72C275.831 100.64 276.151 100.587 276.524 100.56C276.924 100.507 277.404 100.48 277.964 100.48Z" fill="white"/>
<path d="M292.291 101.64C291.544 101.64 290.864 101.787 290.251 102.08C289.664 102.373 289.158 102.773 288.731 103.28C288.304 103.76 287.971 104.347 287.731 105.04C287.518 105.707 287.411 106.44 287.411 107.24C287.411 108.68 287.731 109.8 288.371 110.6C289.038 111.373 289.971 111.76 291.171 111.76C292.531 111.76 293.664 111.267 294.571 110.28C295.478 109.267 295.931 107.88 295.931 106.12C295.931 104.84 295.638 103.773 295.051 102.92C294.464 102.067 293.544 101.64 292.291 101.64ZM289.811 113C288.531 113 287.478 112.627 286.651 111.88C285.824 111.133 285.411 110.12 285.411 108.84C285.411 107.853 285.624 106.867 286.051 105.88C286.478 104.867 287.051 103.96 287.771 103.16C288.518 102.36 289.384 101.72 290.371 101.24C291.358 100.733 292.411 100.48 293.531 100.48C294.864 100.48 295.931 100.867 296.731 101.64C297.531 102.387 297.931 103.373 297.931 104.6C297.931 105.693 297.704 106.747 297.251 107.76C296.798 108.747 296.198 109.64 295.451 110.44C294.704 111.213 293.838 111.84 292.851 112.32C291.891 112.773 290.878 113 289.811 113Z" fill="white"/>
<path d="M307.604 101.64C306.857 101.64 306.177 101.787 305.563 102.08C304.977 102.373 304.47 102.773 304.043 103.28C303.617 103.76 303.283 104.347 303.043 105.04C302.83 105.707 302.723 106.44 302.723 107.24C302.723 108.68 303.043 109.8 303.683 110.6C304.35 111.373 305.283 111.76 306.483 111.76C307.843 111.76 308.977 111.267 309.883 110.28C310.79 109.267 311.243 107.88 311.243 106.12C311.243 104.84 310.95 103.773 310.363 102.92C309.777 102.067 308.857 101.64 307.604 101.64ZM305.124 113C303.844 113 302.79 112.627 301.963 111.88C301.137 111.133 300.723 110.12 300.723 108.84C300.723 107.853 300.937 106.867 301.363 105.88C301.79 104.867 302.363 103.96 303.083 103.16C303.83 102.36 304.697 101.72 305.683 101.24C306.67 100.733 307.723 100.48 308.843 100.48C310.177 100.48 311.243 100.867 312.043 101.64C312.843 102.387 313.243 103.373 313.243 104.6C313.243 105.693 313.017 106.747 312.563 107.76C312.11 108.747 311.51 109.64 310.764 110.44C310.017 111.213 309.15 111.84 308.163 112.32C307.203 112.773 306.19 113 305.124 113Z" fill="white"/>
<path d="M315.236 106.48C315.663 106.453 316.343 106.427 317.276 106.4C318.209 106.373 319.249 106.36 320.396 106.36C321.569 106.333 322.796 106.32 324.076 106.32C325.356 106.32 326.569 106.32 327.716 106.32C328.889 106.32 329.943 106.32 330.876 106.32C331.809 106.32 332.503 106.32 332.956 106.32C333.036 106.373 333.049 106.453 332.996 106.56C332.969 106.667 332.889 106.773 332.756 106.88C332.623 106.987 332.476 107.093 332.316 107.2C332.156 107.28 331.996 107.32 331.836 107.32C331.143 107.293 330.316 107.267 329.356 107.24C328.396 107.213 327.356 107.2 326.236 107.2C325.143 107.173 324.023 107.16 322.876 107.16C321.729 107.16 320.636 107.16 319.596 107.16C318.556 107.16 317.609 107.173 316.756 107.2C315.903 107.227 315.223 107.253 314.716 107.28C314.636 107.227 314.623 107.093 314.676 106.88C314.756 106.64 314.943 106.507 315.236 106.48Z" fill="white"/>
<path d="M335.916 113.24C335.569 113.24 335.423 113.12 335.476 112.88C335.796 112.027 336.143 111.147 336.516 110.24C336.889 109.333 337.276 108.427 337.676 107.52C338.103 106.613 338.516 105.733 338.916 104.88C339.316 104.027 339.689 103.227 340.036 102.48C339.396 102.64 338.796 102.787 338.236 102.92C337.703 103.053 337.209 103.12 336.756 103.12C336.623 103.093 336.569 103.013 336.596 102.88C336.623 102.747 336.716 102.64 336.876 102.56C337.383 102.507 337.929 102.4 338.516 102.24C339.103 102.08 339.676 101.88 340.236 101.64C340.823 101.4 341.383 101.133 341.916 100.84C342.449 100.52 342.916 100.2 343.316 99.88C343.449 99.8266 343.556 99.8266 343.636 99.88C343.743 99.9333 343.796 100.027 343.796 100.16C343.129 101.04 342.503 102 341.916 103.04C341.329 104.08 340.783 105.147 340.276 106.24C339.796 107.307 339.369 108.387 338.996 109.48C338.649 110.547 338.356 111.547 338.116 112.48C337.983 112.693 337.689 112.867 337.236 113C336.809 113.16 336.369 113.24 335.916 113.24Z" fill="white"/>
<path d="M358.08 96.96C358.08 99.12 356.48 100.853 353.28 102.16C353.84 102.773 354.347 103.44 354.8 104.16C355.253 104.853 355.48 105.747 355.48 106.84C355.48 107.613 355.28 108.373 354.88 109.12C354.507 109.867 353.973 110.533 353.28 111.12C352.613 111.68 351.827 112.133 350.92 112.48C350.04 112.827 349.08 113 348.04 113C346.6 113 345.493 112.667 344.72 112C343.973 111.307 343.6 110.387 343.6 109.24C343.6 107.8 344.173 106.467 345.32 105.24C346.467 104.013 348.173 103.067 350.44 102.4C349.933 101.813 349.48 101.213 349.08 100.6C348.707 99.96 348.52 99.1866 348.52 98.28C348.52 97.7733 348.653 97.2666 348.92 96.76C349.187 96.2266 349.56 95.76 350.04 95.36C350.547 94.9333 351.16 94.6 351.88 94.36C352.6 94.0933 353.413 93.96 354.32 93.96C355.44 93.96 356.347 94.2533 357.04 94.84C357.733 95.4266 358.08 96.1333 358.08 96.96ZM349.56 111.88C350.707 111.88 351.613 111.547 352.28 110.88C352.973 110.213 353.32 109.28 353.32 108.08C353.32 106.853 353.067 105.853 352.56 105.08C352.08 104.307 351.533 103.587 350.92 102.92C349.053 103.453 347.747 104.187 347 105.12C346.253 106.027 345.88 107.08 345.88 108.28C345.88 109.373 346.187 110.253 346.8 110.92C347.413 111.56 348.333 111.88 349.56 111.88ZM352.84 101.72C354.973 100.813 356.04 99.4933 356.04 97.76C356.04 96.8533 355.773 96.16 355.24 95.68C354.733 95.1733 354.053 94.92 353.2 94.92C352.427 94.92 351.8 95.1466 351.32 95.6C350.867 96.0533 350.64 96.64 350.64 97.36C350.64 98.3466 350.853 99.1733 351.28 99.84C351.733 100.48 352.253 101.107 352.84 101.72Z" fill="white"/>
<path d="M363.478 100.48C364.678 100.48 365.544 100.773 366.078 101.36C366.611 101.92 366.878 102.573 366.878 103.32C366.878 104.093 366.704 104.787 366.358 105.4C366.038 105.987 365.558 106.547 364.918 107.08C364.278 107.613 363.478 108.16 362.518 108.72C361.584 109.28 360.504 109.92 359.278 110.64C359.838 110.827 360.491 110.987 361.238 111.12C361.984 111.253 362.811 111.32 363.718 111.32C364.331 111.32 364.798 111.24 365.118 111.08C365.438 110.893 365.678 110.653 365.838 110.36C365.971 110.253 366.078 110.253 366.158 110.36C366.238 110.44 366.251 110.573 366.198 110.76C365.744 111.453 365.211 112 364.598 112.4C364.011 112.8 363.251 113 362.318 113C361.571 113 360.918 112.933 360.358 112.8C359.798 112.64 359.291 112.493 358.838 112.36C358.411 112.227 358.011 112.147 357.638 112.12C357.291 112.067 356.944 112.147 356.598 112.36C356.384 112.493 356.198 112.613 356.038 112.72C355.878 112.827 355.731 112.92 355.598 113C355.464 113 355.398 112.92 355.398 112.76C355.398 112.573 355.464 112.413 355.598 112.28C356.744 111.533 357.864 110.853 358.958 110.24C360.051 109.627 361.011 109.013 361.838 108.4C362.691 107.787 363.371 107.133 363.878 106.44C364.384 105.747 364.638 104.933 364.638 104C364.638 103.307 364.424 102.747 363.998 102.32C363.598 101.893 363.038 101.68 362.318 101.68C361.464 101.68 360.744 101.973 360.158 102.56C359.598 103.147 359.224 103.867 359.038 104.72C358.958 104.8 358.864 104.8 358.758 104.72C358.651 104.64 358.598 104.533 358.598 104.4C358.704 103.92 358.891 103.453 359.158 103C359.424 102.52 359.758 102.093 360.158 101.72C360.584 101.347 361.078 101.053 361.638 100.84C362.198 100.6 362.811 100.48 363.478 100.48Z" fill="white"/>
<path d="M376.197 101.64C375.451 101.64 374.771 101.787 374.157 102.08C373.571 102.373 373.064 102.773 372.637 103.28C372.211 103.76 371.877 104.347 371.637 105.04C371.424 105.707 371.317 106.44 371.317 107.24C371.317 108.68 371.637 109.8 372.277 110.6C372.944 111.373 373.877 111.76 375.077 111.76C376.437 111.76 377.571 111.267 378.477 110.28C379.384 109.267 379.837 107.88 379.837 106.12C379.837 104.84 379.544 103.773 378.957 102.92C378.371 102.067 377.451 101.64 376.197 101.64ZM373.717 113C372.437 113 371.384 112.627 370.557 111.88C369.731 111.133 369.317 110.12 369.317 108.84C369.317 107.853 369.531 106.867 369.957 105.88C370.384 104.867 370.957 103.96 371.677 103.16C372.424 102.36 373.291 101.72 374.277 101.24C375.264 100.733 376.317 100.48 377.437 100.48C378.771 100.48 379.837 100.867 380.637 101.64C381.437 102.387 381.837 103.373 381.837 104.6C381.837 105.693 381.611 106.747 381.157 107.76C380.704 108.747 380.104 109.64 379.357 110.44C378.611 111.213 377.744 111.84 376.757 112.32C375.797 112.773 374.784 113 373.717 113Z" fill="white"/>
<defs>
<filter id="filter0_d" x="82" y="0" width="479.577" height="193.25" filterUnits="userSpaceOnUse" color-interpolation-filters="sRGB">
<feFlood flood-opacity="0" result="BackgroundImageFix"/>
<feColorMatrix in="SourceAlpha" type="matrix" values="0 0 0 0 0 0 0 0 0 0 0 0 0 0 0 0 0 0 127 0"/>
<feOffset dy="4"/>
<feGaussianBlur stdDeviation="2"/>
<feColorMatrix type="matrix" values="0 0 0 0 0 0 0 0 0 0 0 0 0 0 0 0 0 0 0.25 0"/>
<feBlend mode="normal" in2="BackgroundImageFix" result="effect1_dropShadow"/>
<feBlend mode="normal" in="SourceGraphic" in2="effect1_dropShadow" result="shape"/>
</filter>
</defs>
</svg>
