<svg width="600" height="600" viewBox="0 0 600 600" fill="none" xmlns="http://www.w3.org/2000/svg">
<rect width="600" height="600" rx="72" fill="#39253B"/>
<path d="M167.796 191.75C167.796 195.654 164.686 204.298 158.464 217.683C152.243 230.51 134.428 275.404 105.019 352.365C125.379 327.827 151.112 299.385 182.218 267.038C244.995 202.346 288.261 170 312.014 170C317.104 170 321.912 171.394 326.436 174.183C331.526 176.971 334.071 183.385 334.071 193.423C334.071 202.904 330.961 213.779 324.739 226.048C318.518 237.76 311.449 252.26 303.531 269.548C295.613 286.837 290.24 297.712 287.412 302.173C334.919 259.788 370.833 234.135 395.152 225.212C419.471 215.731 435.589 210.99 443.507 210.99C451.425 210.99 455.384 213.779 455.384 219.356C455.384 222.702 451.142 230.788 442.659 243.615C434.175 256.442 424.844 275.404 414.663 300.5C404.483 325.596 398.828 343.163 397.697 353.202C396.566 363.24 396 372.163 396 379.971C396 387.779 398.262 394.192 402.787 399.212C411.27 408.135 422.864 408.692 437.569 400.885C452.273 393.077 472.634 377.462 498.649 354.038C525.231 330.615 546.439 307.75 562.275 285.442C564.537 282.654 567.082 282.096 569.91 283.769C573.303 284.885 575 286.279 575 287.952C575 289.067 574.435 290.462 573.303 292.135C564.82 307.192 549.55 326.433 527.493 349.856C491.297 388.337 461.039 412.038 436.72 420.962C410.139 429.885 390.91 431 379.033 424.308C367.156 417.615 359.804 410.087 356.976 401.721C354.149 393.356 352.735 384.99 352.735 376.625C352.735 350.413 357.825 324.202 368.005 297.99C378.75 271.779 387.234 253.933 393.455 244.452C371.964 253.375 353.583 264.529 338.313 277.913C315.125 297.99 296.461 315.558 282.322 330.615L265.356 349.019C260.265 361.288 251.216 368.26 238.209 369.933C225.766 371.606 219.828 367.423 220.393 357.385C221.524 346.788 231.987 323.087 251.782 286.279C271.577 249.471 281.474 229.115 281.474 225.212C281.474 220.75 279.212 218.519 274.687 218.519C264.507 218.519 246.126 229.952 219.545 252.817C202.013 268.99 175.997 299.663 141.498 344.837C107.564 389.452 88.335 413.154 83.8105 415.942C63.4503 425.981 50.7251 431 45.6351 431C40.545 431 38 430.163 38 428.49C38 426.817 38.8484 424.308 40.5451 420.962C42.2418 417.615 59.4913 369.096 92.2938 275.404C79.8515 294.365 68.5403 308.865 58.3602 318.904C53.8357 323.923 51.5735 323.087 51.5735 316.394C51.5735 309.144 53.553 303.01 57.5119 297.99C82.9621 265.087 101.626 237.202 113.502 214.337C116.896 194.817 123.682 183.385 133.863 180.038C140.084 177.808 147.153 177.808 155.071 180.038C163.555 182.269 167.796 186.173 167.796 191.75Z" fill="white"/>
</svg>
